<?xml version="1.0" encoding="utf-8"?>
<!-- Generator: Adobe Illustrator 16.0.0, SVG Export Plug-In . SVG Version: 6.00 Build 0)  -->
<!DOCTYPE svg PUBLIC "-//W3C//DTD SVG 1.1//EN" "http://www.w3.org/Graphics/SVG/1.1/DTD/svg11.dtd">
<svg version="1.1" id="Layer_1" xmlns="http://www.w3.org/2000/svg" xmlns:xlink="http://www.w3.org/1999/xlink" x="0px" y="0px"
	 width="2500px" height="534px" viewBox="0 0 2500 534" enable-background="new 0 0 2500 534" xml:space="preserve">
<path fill="#FFFFFF" d="M2500,241.584v-43.966h-54.598v-68.352l-1.838,0.566l-51.282,15.69l-1.011,0.307v51.79h-80.941v-28.852
	c0-13.434,3.004-23.714,8.924-30.57c5.879-6.774,14.288-10.218,25.014-10.218c7.709,0,15.692,1.816,23.727,5.397l2.015,0.9V87.975
	l-0.948-0.349c-7.494-2.694-17.688-4.051-30.324-4.051c-15.926,0-30.395,3.466-43.014,10.334
	c-12.626,6.878-22.559,16.696-29.517,29.181c-6.934,12.469-10.452,26.87-10.452,42.808v31.72h-38.017v43.966h38.017v185.223h54.576
	V241.584h80.94V359.29c0,48.477,22.866,73.042,67.962,73.042c7.41,0,15.209-0.868,23.173-2.568
	c8.106-1.745,13.628-3.489,16.878-5.352l0.719-0.426v-44.372l-2.221,1.468c-2.962,1.974-6.65,3.587-10.975,4.786
	c-4.343,1.221-7.971,1.833-10.781,1.833c-10.562,0-18.379-2.847-23.229-8.465c-4.904-5.668-7.393-15.581-7.393-29.448V241.584H2500
	L2500,241.584z M2095.861,387.708c-19.81,0-35.427-6.568-46.434-19.507c-11.073-13.003-16.685-31.543-16.685-55.098
	c0-24.303,5.611-43.323,16.689-56.557c11.014-13.146,26.481-19.818,45.983-19.818c18.924,0,33.988,6.372,44.779,18.95
	c10.844,12.644,16.348,31.512,16.348,56.097c0,24.888-5.175,44.006-15.381,56.794
	C2131.026,381.26,2115.785,387.708,2095.861,387.708 M2098.286,192.096c-37.792,0-67.81,11.074-89.212,32.914
	c-21.389,21.843-32.232,52.07-32.232,89.851c0,35.885,10.585,64.748,31.466,85.775c20.88,21.035,49.296,31.691,84.452,31.691
	c36.634,0,66.054-11.229,87.446-33.372c21.391-22.118,32.228-52.061,32.228-88.958c0-36.445-10.169-65.523-30.234-86.411
	C2162.124,202.689,2133.887,192.096,2098.286,192.096 M1888.849,192.096c-25.708,0-46.973,6.576-63.217,19.541
	c-16.344,13.042-24.634,30.147-24.634,50.847c0,10.759,1.79,20.316,5.311,28.423c3.543,8.133,9.025,15.294,16.31,21.304
	c7.229,5.962,18.388,12.206,33.173,18.559c12.431,5.115,21.701,9.441,27.59,12.852c5.756,3.342,9.84,6.701,12.147,9.974
	c2.241,3.202,3.378,7.584,3.378,12.991c0,15.398-11.53,22.891-35.258,22.891c-8.8,0-18.839-1.838-29.835-5.461
	c-10.919-3.568-21.224-8.793-30.554-15.492l-2.267-1.625v52.544l0.832,0.387c7.722,3.565,17.458,6.571,28.934,8.937
	c11.454,2.367,21.86,3.571,30.899,3.571c27.896,0,50.361-6.606,66.753-19.649c16.495-13.132,24.856-30.641,24.856-52.056
	c0-15.448-4.501-28.696-13.372-39.381c-8.81-10.598-24.102-20.327-45.429-28.927c-16.992-6.819-27.877-12.481-32.368-16.827
	c-4.329-4.198-6.527-10.135-6.527-17.654c0-6.665,2.714-12.005,8.283-16.328c5.613-4.347,13.427-6.557,23.227-6.557
	c9.093,0,18.396,1.437,27.649,4.251c9.245,2.815,17.366,6.586,24.145,11.197l2.23,1.523v-49.843l-0.856-0.367
	c-6.254-2.683-14.501-4.978-24.518-6.84C1905.761,193.03,1896.716,192.096,1888.849,192.096 M1658.722,387.708
	c-19.804,0-35.427-6.568-46.431-19.506c-11.076-13.004-16.677-31.539-16.677-55.099c0-24.303,5.608-43.323,16.689-56.557
	c11.003-13.146,26.469-19.818,45.98-19.818c18.917,0,33.981,6.372,44.774,18.95c10.846,12.644,16.348,31.512,16.348,56.097
	c0,24.888-5.178,44.006-15.383,56.794C1693.888,381.26,1678.655,387.708,1658.722,387.708 M1661.156,192.096
	c-37.802,0-67.821,11.074-89.212,32.914c-21.389,21.843-32.24,52.07-32.24,89.851c0,35.899,10.593,64.748,31.473,85.775
	c20.881,21.035,49.295,31.691,84.451,31.691c36.629,0,66.056-11.229,87.448-33.372c21.386-22.118,32.228-52.061,32.228-88.958
	c0-36.445-10.172-65.523-30.242-86.411C1724.981,202.689,1696.749,192.096,1661.156,192.096 M1456.86,237.308v-39.69h-53.911
	v229.184h53.911V309.565c0-19.936,4.52-36.312,13.438-48.683c8.806-12.223,20.539-18.416,34.866-18.416
	c4.855,0,10.307,0.801,16.21,2.385c5.843,1.574,10.075,3.284,12.571,5.083l2.266,1.643v-54.351l-0.873-0.375
	c-5.021-2.133-12.123-3.209-21.11-3.209c-13.548,0-25.671,4.353-36.056,12.924c-9.114,7.533-15.702,17.861-20.74,30.742H1456.86z
	 M1306.404,192.096c-24.732,0-46.793,5.304-65.558,15.758c-18.803,10.479-33.345,25.439-43.238,44.463
	c-9.85,18.977-14.852,41.144-14.852,65.864c0,21.654,4.85,41.526,14.434,59.041c9.589,17.543,23.16,31.267,40.341,40.786
	c17.156,9.506,36.984,14.326,58.938,14.326c25.621,0,47.495-5.122,65.033-15.224l0.709-0.406v-49.391l-2.267,1.654
	c-7.944,5.787-16.822,10.406-26.375,13.733c-9.528,3.325-18.215,5.006-25.833,5.006c-21.154,0-38.136-6.619-50.462-19.668
	c-12.354-13.067-18.617-31.415-18.617-54.504c0-23.233,6.532-42.054,19.405-55.939c12.834-13.846,29.848-20.868,50.563-20.868
	c17.72,0,34.987,6,51.323,17.85l2.261,1.643v-52.042l-0.729-0.411c-6.148-3.441-14.532-6.282-24.941-8.438
	C1326.174,193.18,1316.036,192.096,1306.404,192.096 M1145.627,197.62h-53.911v229.182h53.911V197.62L1145.627,197.62z
	 M1119.223,99.987c-8.873,0-16.612,3.021-22.97,9.006c-6.385,6.003-9.623,13.561-9.623,22.479c0,8.778,3.2,16.198,9.523,22.041
	c6.283,5.826,14.046,8.779,23.071,8.779c9.023,0,16.815-2.953,23.174-8.77c6.398-5.853,9.645-13.27,9.645-22.051
	c0-8.607-3.158-16.087-9.381-22.237C1136.445,103.097,1128.555,99.987,1119.223,99.987 M984.712,180.711v246.091h55.019V107.003
	h-76.148L866.794,344.54l-93.928-237.537h-79.249v319.796h51.703V180.686h1.775l99.186,246.115h39.018l97.638-246.091H984.712
	L984.712,180.711z"/>
<path fill="#FFFFFF" d="M253.612,253.749H0V0.136h253.611V253.749z"/>
<path fill="#FFFFFF" d="M533.627,253.749H280.021V0.136h253.606V253.749L533.627,253.749z"/>
<path fill="#FFFFFF" d="M253.605,533.863H0V280.254h253.604V533.863z"/>
<path fill="#FFFFFF" d="M533.627,533.863H280.021V280.254h253.606V533.863L533.627,533.863z"/>
</svg>
