<?xml version="1.0" encoding="utf-8"?>
<!-- Generator: Adobe Illustrator 16.0.0, SVG Export Plug-In . SVG Version: 6.00 Build 0)  -->
<!DOCTYPE svg PUBLIC "-//W3C//DTD SVG 1.1//EN" "http://www.w3.org/Graphics/SVG/1.1/DTD/svg11.dtd">
<svg version="1.1"
	 id="svg2" xmlns:dc="http://purl.org/dc/elements/1.1/" xmlns:cc="http://creativecommons.org/ns#" xmlns:rdf="http://www.w3.org/1999/02/22-rdf-syntax-ns#" xmlns:svg="http://www.w3.org/2000/svg"
	 xmlns="http://www.w3.org/2000/svg" xmlns:xlink="http://www.w3.org/1999/xlink" x="0px" y="0px" width="430.783px"
	 height="431.605px" viewBox="25.001 25 430.783 431.605" enable-background="new 25.001 25 430.783 431.605" xml:space="preserve">
<g id="layer1" transform="translate(146.39782,-476.27972)">
	<path id="path3014" fill="#FFFFFF" d="M87.984,932.687c0.008-0.221,9.867-27.401,21.91-60.401l21.896-60l33.339-0.5l33.34-0.5
		l5.715-2.807c11.396-5.596,10.419-3.549,38.753-81.293c20.614-56.561,25.543-71.056,25.861-76.049
		c0.768-12.053-4.615-21.014-15.762-26.241l-5.567-2.611H201.06h-46.409l-55.354,151.93
		c-30.444,83.562-55.502,152.078-55.683,152.259s-4.896-1.028-10.478-2.687c-81.114-24.097-140.619-92.879-152.787-176.607
		c-2.33-16.033-2.33-44.755,0-60.788c11.396-78.414,64.645-144.353,138.919-172.024c12.178-4.537,16.249-5.454,15.496-3.49
		c-5.646,14.74-108.796,298.932-108.796,299.749c0,0.846,6.157,1.158,22.75,1.155l22.75-0.01l25.957-71.246
		c14.276-39.185,27.491-75.408,29.366-80.495l3.408-9.25h16.991c15.778,0,16.942,0.125,16.301,1.75
		c-2.824,7.159-57.523,157.834-57.523,158.456c0,0.438,10.291,0.795,22.87,0.795h22.869l28.307-77.751
		c26.798-73.604,28.31-78.123,28.348-84.75c0.05-8.57-2.663-14.863-8.598-19.942c-7.104-6.081-10.637-6.797-36.046-7.312
		c-12.513-0.253-22.722-0.749-22.687-1.103s9.839-27.418,21.786-60.144l21.724-59.5l14.671,0.185
		c93.677,1.176,177.141,65.754,202.72,156.849c5.797,20.646,7.453,33.639,7.453,58.467c0,24.829-1.656,37.822-7.453,58.468
		c-22.862,81.421-92.315,142.549-176.002,154.905c-10.156,1.499-37.977,3.354-37.947,2.529V932.687z M142.995,782.034
		c0.014-0.412,10.71-30,23.769-65.75l23.745-65l16.73-0.273c9.202-0.151,16.739,0.073,16.751,0.5
		c0.011,0.426-10.677,30.136-23.75,66.023l-23.771,65.249l-16.75,0.001C150.507,782.784,142.981,782.447,142.995,782.034
		L142.995,782.034z"/>
</g>
</svg>
