<?xml version="1.0" encoding="utf-8"?>
<!-- Generator: Adobe Illustrator 16.0.0, SVG Export Plug-In . SVG Version: 6.00 Build 0)  -->
<!DOCTYPE svg PUBLIC "-//W3C//DTD SVG 1.1//EN" "http://www.w3.org/Graphics/SVG/1.1/DTD/svg11.dtd">
<svg version="1.1" id="Layer_1" xmlns="http://www.w3.org/2000/svg" xmlns:xlink="http://www.w3.org/1999/xlink" x="0px" y="0px"
	 width="440.665px" height="177.914px" viewBox="0 0 440.665 177.914" enable-background="new 0 0 440.665 177.914"
	 xml:space="preserve">
<g>
	<polygon fill="#FFFFFF" points="440.665,12.657 367.312,12.657 371.834,0.009 440.665,0.009 	"/>
	<path fill="#FFFFFF" d="M245.123,0.007L313.227,0l4.463,12.678c0.032-0.019-72.543,0.016-72.543,0
		C245.146,12.659,245.103,0.007,245.123,0.007z"/>
	<path fill="#FFFFFF" d="M191.036,0.007c11.225,1.081,20.983,5.08,29.294,12.668c0,0-123.447,0.012-123.447,0
		c0-0.016,0-12.673,0-12.673L191.036,0.007z"/>
	<g>
		<rect x="0.011" y="0.007" fill="#FFFFFF" width="85.758" height="12.646"/>
		<path fill="#FFFFFF" d="M42.89,6.329"/>
	</g>
	<path fill="#FFFFFF" d="M440.665,36.385h-81.759c0,0,4.458-12.579,4.435-12.583h77.324V36.385z"/>
	<polygon fill="#FFFFFF" points="326.113,36.401 245.119,36.401 245.119,23.797 321.679,23.797 	"/>
	<path fill="#FFFFFF" d="M229.943,23.794c1.628,4.157,3.554,7.708,3.554,12.586H96.906V23.794H229.943z"/>
	<g>
		<rect x="0.011" y="23.794" fill="#FFFFFF" width="85.758" height="12.586"/>
		<path fill="#FFFFFF" d="M42.89,30.086"/>
	</g>
	<polygon fill="#FFFFFF" points="350.546,60.173 355.036,47.529 416.421,47.548 416.421,60.146 	"/>
	<polygon fill="#FFFFFF" points="330.053,47.525 334.524,60.173 269.27,60.173 269.27,47.525 	"/>
	<path fill="#FFFFFF" d="M234.578,47.522c0,4.338-0.544,8.856-1.807,12.65h-37.397v-12.65H234.578z"/>
	<g>
		<rect x="23.914" y="47.584" fill="#FFFFFF" width="36.86" height="12.586"/>
		<path fill="#FFFFFF" d="M42.341,53.879"/>
	</g>
	<g>
		<rect x="121.72" y="47.522" fill="#FFFFFF" width="36.796" height="12.648"/>
		<path fill="#FFFFFF" d="M140.118,53.847"/>
	</g>
	<path fill="#FFFFFF" d="M305.514,73.828c0,0,0.015,9.572,0.005,9.593H269.27V70.833h69.079l4.287,11.734
		c0.019,0.007,4.137-11.762,4.146-11.734h69.617v12.588h-36.071c0-0.021-0.022-9.59-0.022-9.59l-3.333,9.59L308.848,83.4
		L305.514,73.828z"/>
	<path fill="#FFFFFF" d="M121.72,70.833H227.35v-0.009c-2.307,4.217-6.5,9.345-10.477,12.597c0,0-95.157,0.016-95.157,0
		C121.716,83.4,121.72,70.851,121.72,70.833z"/>
	<g>
		<rect x="23.914" y="70.828" fill="#FFFFFF" width="36.86" height="12.588"/>
		<path fill="#FFFFFF" d="M42.341,77.12"/>
	</g>
	<g>
		<rect x="380.327" y="94.563" fill="#FFFFFF" width="36.071" height="12.583"/>
		<path fill="#FFFFFF" d="M398.365,100.853"/>
	</g>
	<path fill="#FFFFFF" d="M305.514,94.563H269.27v12.583c-0.019-0.004,36.259,0.01,36.259,0
		C305.528,107.143,305.564,94.563,305.514,94.563z"/>
	<path fill="#FFFFFF" d="M373.042,94.563c-0.166-0.023-4.224,12.579-4.394,12.583l-51.382,0.023
		c-0.041-0.019-4.518-12.63-4.521-12.606H373.042z"/>
	<path fill="#FFFFFF" d="M121.711,94.559h94.979c4.336,3.617,8.257,8.07,11.324,12.588c0.174-0.004-106.297,0.01-106.297,0
		C121.716,107.143,121.711,94.567,121.711,94.559z"/>
	<path fill="#FFFFFF" d="M60.769,107.146V94.559H23.973c0,0,0.009,12.584,0,12.584C23.966,107.143,60.751,107.146,60.769,107.146z"
		/>
	<g>
		<rect x="380.327" y="118.293" fill="#FFFFFF" width="36.066" height="12.589"/>
		<path fill="#FFFFFF" d="M398.365,124.583"/>
	</g>
	<g>
		<rect x="269.27" y="118.293" fill="#FFFFFF" width="36.244" height="12.584"/>
		<path fill="#FFFFFF" d="M287.394,124.583"/>
	</g>
	<path fill="#FFFFFF" d="M360.21,130.941c0.009-0.06,4.448-12.662,4.518-12.648H321.05c-0.078-0.009,4.476,12.589,4.476,12.589
		S360.201,130.992,360.21,130.941z"/>
	<path fill="#FFFFFF" d="M121.716,130.877c0,0.051-0.005-12.584,0-12.588h37.344c0,0,0.032,12.593,0,12.593
		C159.026,130.882,121.716,130.863,121.716,130.877z"/>
	<path fill="#FFFFFF" d="M233.254,118.289c1.807,3.792,1.99,8.31,2.348,12.647h-39.566v-12.647H233.254z"/>
	<g>
		<rect x="23.973" y="118.289" fill="#FFFFFF" width="36.796" height="12.584"/>
		<path fill="#FFFFFF" d="M42.371,124.578"/>
	</g>
	<g>
		<rect x="380.327" y="141.532" fill="#FFFFFF" width="60.334" height="12.593"/>
		<path fill="#FFFFFF" d="M410.494,147.831"/>
	</g>
	<g>
		<rect x="245.119" y="141.532" fill="#FFFFFF" width="60.395" height="12.593"/>
		<path fill="#FFFFFF" d="M275.315,147.831"/>
	</g>
	<polygon fill="#FFFFFF" points="352.094,154.125 333.67,154.125 329.249,141.532 356.354,141.532 	"/>
	<path fill="#FFFFFF" d="M0.006,141.532v12.589h85.698c0.037,0.018-0.039-12.579,0-12.579
		C85.741,141.542-0.092,141.532,0.006,141.532z"/>
	<path fill="#FFFFFF" d="M234.034,141.532c-0.902,4.155-1.729,9.214-4.763,12.593l-1.132-0.004H96.902v-12.589H234.034z"/>
	<polygon fill="#FFFFFF" points="343.742,177.883 342.049,177.883 337.742,165.268 348.164,165.268 	"/>
	<g>
		<rect x="380.327" y="165.268" fill="#FFFFFF" width="60.334" height="12.644"/>
		<path fill="#FFFFFF" d="M410.494,171.589"/>
	</g>
	<path fill="#FFFFFF" d="M96.883,177.883v-12.597c0,0,123.814,0.014,124.17,0.014c-8.312,7.951-19.718,12.437-32,12.611
		l-92.151-0.028"/>
	<g>
		<rect x="245.119" y="165.268" fill="#FFFFFF" width="60.395" height="12.644"/>
		<path fill="#FFFFFF" d="M275.315,171.589"/>
	</g>
	<path fill="#FFFFFF" d="M85.705,165.322c0,0-0.039,12.561,0,12.561c0.037,0-85.675,0.051-85.698,0.023
		c-0.023-0.023,0.023-12.62,0-12.62S85.666,165.359,85.705,165.322z"/>
</g>
</svg>
