<?xml version="1.0" encoding="utf-8"?>
<!-- Generator: Adobe Illustrator 16.0.0, SVG Export Plug-In . SVG Version: 6.00 Build 0)  -->
<!DOCTYPE svg PUBLIC "-//W3C//DTD SVG 1.1//EN" "http://www.w3.org/Graphics/SVG/1.1/DTD/svg11.dtd">
<svg version="1.1" id="Layer_1" xmlns="http://www.w3.org/2000/svg" xmlns:xlink="http://www.w3.org/1999/xlink" x="0px" y="0px"
	 width="496.802px" height="207.179px" viewBox="0 0 496.802 207.179" enable-background="new 0 0 496.802 207.179"
	 xml:space="preserve">
<g>
	<polygon fill-rule="evenodd" clip-rule="evenodd" fill="#FFFFFF" points="149.203,50.117 149.203,77.996 173.086,77.996 
		173.086,158.785 205.25,158.785 205.25,77.996 230.58,77.996 230.58,50.117 149.203,50.117 	"/>
	<polyline fill-rule="evenodd" clip-rule="evenodd" fill="#FFFFFF" points="149.203,50.117 149.203,77.996 173.086,77.996 
		173.086,158.785 205.25,158.785 205.25,77.996 230.58,77.996 230.58,50.117 	"/>
	<rect x="341.637" y="50.087" fill-rule="evenodd" clip-rule="evenodd" fill="#FFFFFF" width="30.535" height="108.698"/>
	<polygon fill-rule="evenodd" clip-rule="evenodd" fill="#FFFFFF" points="458.69,99.545 494.336,50.117 455.28,50.117 
		440.141,73.123 427.444,50.117 388.342,50.117 420.576,99.545 378.104,158.785 417.165,158.785 440.141,126.452 457.701,158.785 
		496.802,158.785 458.69,99.545 	"/>
	<polyline fill-rule="evenodd" clip-rule="evenodd" fill="#FFFFFF" points="458.69,99.545 494.336,50.117 455.28,50.117 
		440.141,73.123 427.444,50.117 388.342,50.117 420.576,99.545 378.104,158.785 417.165,158.785 440.141,126.452 457.701,158.785 
		496.802,158.785 	"/>
	<path fill-rule="evenodd" clip-rule="evenodd" fill="#FFFFFF" d="M0,104.42c0,31.341,25.455,56.887,56.687,56.887
		c16.199,0,31.237-6.928,41.65-17.397C80.99,116.063,80.99,116.063,80.99,116.063c-4.634,8.102-13.89,12.779-24.303,12.779
		c-12.723,0-23.135-10.482-23.135-24.423c0-13.894,10.412-25.547,23.135-25.547c10.413,0,19.669,5.862,24.303,13.952
		C98.337,64.98,98.337,64.98,98.337,64.98c-10.413-10.488-25.451-17.446-41.65-17.446C25.455,47.534,0,73.068,0,104.42"/>
	<path fill-rule="evenodd" clip-rule="evenodd" fill="#FFFFFF" d="M271.187,73.223c5.761,0,13.768,1.167,17.219,4.637
		c2.315,2.286,2.315,4.618,2.315,8.095c0,9.255-5.767,12.715-19.534,12.715 M299.903,114.844
		c12.622-3.445,20.63-15.008,20.63-30.067c0-10.387-3.417-18.481-9.178-24.28c-6.868-6.917-17.223-10.38-29.812-10.38
		c-42.48,0-42.48,0-42.48,0c0,108.668,0,108.668,0,108.668c32.124,0,32.124,0,32.124,0c0-32.383,0-32.383,0-32.383
		c20.674,32.383,20.674,32.383,20.674,32.383c41.304,0,41.304,0,41.304,0L299.903,114.844L299.903,114.844z"/>
	<rect x="107.665" y="50.087" fill-rule="evenodd" clip-rule="evenodd" fill="#FFFFFF" width="32.213" height="108.698"/>
	<path fill-rule="evenodd" clip-rule="evenodd" fill="#FFFFFF" d="M104.274,20.82c0-11.512,9.107-20.82,20.351-20.82
		c11.229,0,20.34,9.309,20.34,20.82c0,11.453-9.11,20.763-20.34,20.763C113.382,41.583,104.274,32.273,104.274,20.82L104.274,20.82z
		"/>
	<path fill-rule="evenodd" clip-rule="evenodd" fill="#FFFFFF" d="M336.582,186.795c0-11.253,9.106-20.358,20.334-20.358
		c11.234,0,20.337,9.105,20.337,20.358c0,11.274-9.103,20.384-20.337,20.384C345.688,207.179,336.582,198.069,336.582,186.795
		L336.582,186.795z"/>
</g>
</svg>
