<?xml version="1.0" encoding="utf-8"?>
<!-- Generator: Adobe Illustrator 16.0.0, SVG Export Plug-In . SVG Version: 6.00 Build 0)  -->
<!DOCTYPE svg PUBLIC "-//W3C//DTD SVG 1.1//EN" "http://www.w3.org/Graphics/SVG/1.1/DTD/svg11.dtd">
<svg version="1.1" id="Layer_1" xmlns="http://www.w3.org/2000/svg" xmlns:xlink="http://www.w3.org/1999/xlink" x="0px" y="0px"
	 width="229.714px" height="229.715px" viewBox="0 0 229.714 229.715" enable-background="new 0 0 229.714 229.715"
	 xml:space="preserve">
<g>
	<path fill-rule="evenodd" clip-rule="evenodd" fill="#FFFFFF" d="M229.714,114.857C229.714,51.539,178.176,0,114.857,0
		C51.539,0,0,51.539,0,114.857c0,63.564,51.539,114.857,114.857,114.857C178.176,229.715,229.714,178.422,229.714,114.857
		L229.714,114.857L229.714,114.857z M224.234,114.857c0,60.455-48.921,109.377-109.377,109.377
		C54.401,224.233,5.399,175.313,5.399,114.857c0-60.456,49.002-109.458,109.458-109.458
		C175.313,5.399,224.234,54.729,224.234,114.857L224.234,114.857L224.234,114.857z M217.281,114.857
		c0-36.322-18.489-73.872-58.248-85.897c-8.263-2.537-15.216-4.172-23.233-4.172c-18.406,0-19.061,10.471-27.65,10.471
		c-4.746,0-7.936-3.437-7.936-7.608c0-7.281,8.59-13.007,22.251-13.007c12.762,0,22.579,3.191,24.461,4.09l0.327-0.899
		c-3.437-1.31-15.544-5.481-32.396-5.481c-36.649,0-73.872,18.816-85.897,58.247c-2.536,8.263-4.172,15.298-4.172,23.234
		c0,18.488,10.471,19.388,10.471,27.978c0,4.499-3.436,7.689-7.608,7.689c-7.281,0-13.007-8.344-13.007-22.333
		c0-12.681,3.19-22.579,3.763-24.461l-0.899-0.328c-0.982,3.846-5.154,15.626-5.154,32.478c0,36.895,18.816,74.117,58.247,86.226
		c8.263,2.535,15.299,4.09,23.234,4.09c18.488,0,19.061-10.799,27.651-10.799c4.499,0,8.017,3.519,8.017,7.936
		c0,7.035-8.344,12.762-22.333,12.762c-12.68,0-22.906-3.19-24.46-3.845l-0.327,0.981c3.518,1.554,15.625,5.072,32.477,5.072
		c36.568,0,74.118-18.488,85.898-58.247c2.536-7.935,4.09-15.216,4.09-22.906c0-18.733-10.471-19.388-10.471-27.978
		c0-4.746,3.189-7.936,7.607-7.936c7.362,0,13.089,8.59,13.089,22.579c0.001,12.435-3.19,22.252-3.845,24.461l0.981,0.327
		C213.435,143.817,217.28,132.037,217.281,114.857L217.281,114.857L217.281,114.857z M178.749,145.372
		c0,14.316-12.353,29.287-30.514,29.287c-21.924,0-33.051-18.488-33.051-35.013c0-23.233,15.871-33.05,22.579-36.567
		c-1.309-0.982-2.29-2.209-3.19-3.845c-7.689,5.399-14.644,10.226-29.287,18.489c-0.655,10.144-1.554,21.27-4.172,28.959
		c-5.399,16.197-16.525,27.978-31.168,27.978c-12.353,0-18.407-8.916-18.407-18.488c0-6.953,4.09-15.87,11.453-22.579
		c9.244-8.263,19.388-13.334,33.377-20.697c0.327-1.881,0.655-3.763,0.982-6.054c-3.518,3.19-8.59,4.5-12.762,4.5
		c-6.626,0-12.108-5.727-13.335-11.78c-8.917-0.655-15.625-7.036-15.952-17.18c0-7.281,2.863-13.662,7.69-13.662
		c1.881,0,2.536,1.554,2.536,2.863c0,1.227-1.636,5.399-1.636,9.49c0,4.171,1.963,9.571,7.036,9.571
		c0-16.525,12.107-37.876,26.424-37.876c9.49,0,10.799,7.035,10.799,10.226c0,14.971-14.971,31.496-27.079,35.586
		c0.327,1.309,1.636,4.826,5.481,4.826c4.745,0,10.471-4.5,13.334-8.017c1.227-6.626,6.053-16.198,12.435-16.198
		c2.536,0,3.763,1.882,3.763,4.172c0,4.744-5.072,10.798-8.917,14.889c-0.573,3.19-0.9,6.708-0.9,9.572
		c11.126-6.708,16.854-10.145,25.115-16.198c-0.654-2.208-0.654-4.827-0.654-7.362c0-14.889,9.898-31.496,22.906-31.496
		c7.362,0,11.126,5.153,11.126,10.88c0,10.798-9.245,20.288-22.252,30.187c0.981,2.536,2.536,4.745,5.072,6.054
		c0.327-0.655,4.499-1.309,7.935-1.309c3.846,0,9.245,0.981,9.245,4.826c0,4.417-6.054,5.399-10.799,5.399
		c-2.536,0.328-6.708-0.654-6.708-0.654c-6.954,1.881-20.371,9.898-20.371,30.187c0.001,13.743,8.591,26.424,22.007,26.424
		c10.144,0,18.406-7.608,18.733-19.388c0.001-7.609-3.19-15.625-10.799-15.625c-3.845,0-7.28,2.863-7.28,7.035
		c-0.327,6.38,4.418,7.035,4.418,11.126c0,2.863-2.209,4.172-4.418,4.172c-6.381,0-11.207-6.381-11.207-14.316
		c0-9.571,8.344-17.507,19.143-17.507C171.468,120.256,178.749,132.364,178.749,145.372L178.749,145.372L178.749,145.372z
		 M155.27,65.2c0-1.554-0.327-3.518-2.291-3.518c-4.744,0-12.353,10.226-12.353,23.233C150.117,76.653,155.27,69.618,155.27,65.2
		L155.27,65.2L155.27,65.2z M98.905,63.891c0-1.554-0.9-2.208-2.209-2.208c-6.708,0-16.198,17.507-16.198,27.978
		C90.97,83.934,98.905,70.927,98.905,63.891L98.905,63.891L98.905,63.891z M95.142,123.447
		c-14.317,6.955-32.478,19.389-32.478,33.051c0,5.071,2.536,8.263,7.281,8.263C83.934,164.76,92.524,142.509,95.142,123.447
		L95.142,123.447L95.142,123.447z"/>
</g>
</svg>
