<?xml version="1.0" encoding="utf-8"?>
<!-- Generator: Adobe Illustrator 16.0.0, SVG Export Plug-In . SVG Version: 6.00 Build 0)  -->
<!DOCTYPE svg PUBLIC "-//W3C//DTD SVG 1.1//EN" "http://www.w3.org/Graphics/SVG/1.1/DTD/svg11.dtd">
<svg version="1.1" id="Layer_1" xmlns="http://www.w3.org/2000/svg" xmlns:xlink="http://www.w3.org/1999/xlink" x="0px" y="0px"
	 width="600px" height="600px" viewBox="0 0 600 600" enable-background="new 0 0 600 600" xml:space="preserve">
<g>
	<g>
		<g>
			<path fill="#3693D1" d="M4276.852-385.937c-1.01,0-2.039-0.214-3.02-0.663c-3.629-1.67-5.217-5.967-3.545-9.594
				c7.039-15.302,10.543-31.683,10.406-48.683c-0.514-63.061-52.354-114.034-115.305-113.433c-25.68,0.212-49.869,8.72-69.95,24.604
				c-3.13,2.475-7.678,1.946-10.158-1.186c-2.478-3.133-1.946-7.681,1.187-10.158c22.627-17.898,49.875-27.485,78.804-27.723
				c0.355-0.003,0.715-0.003,1.067-0.003c70.555,0,128.242,57.101,128.818,127.783c0.154,19.144-3.795,37.595-11.732,54.843
				C4282.206-387.498,4279.586-385.937,4276.852-385.937z"/>
		</g>
		<g>
			<path fill="#3693D1" d="M4003.975-310.276c-61.872,0-112.617-50.344-113.122-112.224
				c-0.508-62.383,49.835-113.552,112.221-114.063l0.918-0.003c1.203,0,2.412,0.02,3.621,0.062
				c-0.034-45.539,36.802-82.767,82.399-83.137l0.687-0.003c32.107,0,60.917,18.234,74.756,46.872l0.887-0.003
				c67.456,0,122.669,51.225,128.308,117.729c34.297,5.658,60.527,35.714,60.816,71.041c0.158,19.395-7.246,37.688-20.852,51.516
				c-13.604,13.825-31.775,21.525-51.168,21.684c-10.186,0.082-71.959,0.166-137.364,0.257
				c-64.255,0.091-130.703,0.184-141.161,0.271H4003.975z M4003.992-522.103l-0.8,0.003c-54.414,0.446-98.32,45.073-97.876,99.481
				c0.441,53.971,44.7,97.88,98.659,97.88h0.828c10.508-0.088,76.979-0.181,141.263-0.271c62.498-0.085,127.127-0.175,137.262-0.257
				c15.531-0.127,30.082-6.294,40.977-17.364c10.893-11.073,16.826-25.723,16.697-41.254c-0.244-29.999-23.85-55.253-53.738-57.49
				c-3.67-0.271-6.547-3.263-6.686-6.938c-2.334-61.683-52.514-109.998-114.235-109.998l-0.952,0.003
				c-0.994,0.009-1.975,0.06-2.951,0.11l-1.26,0.062c-3.08,0.125-5.859-1.655-7.018-4.475c-10.624-25.861-35.533-42.57-63.462-42.57
				l-0.57,0.003c-37.83,0.305-68.354,31.333-68.05,69.166c0.02,2.11,0.144,4.319,0.373,6.553c0.22,2.17-0.548,4.322-2.096,5.862
				c-1.548,1.534-3.692,2.302-5.873,2.059C4010.997-521.914,4007.466-522.103,4003.992-522.103z"/>
		</g>
	</g>
</g>
<g>
	<g>
		<g>
			<path fill="#3693D1" d="M3370.366-620.979h-96.577c-3.994,0-7.231-3.237-7.231-7.231c0-3.995,3.237-7.231,7.231-7.231h96.577
				c3.994,0,7.23,3.237,7.23,7.231C3377.596-624.217,3374.36-620.979,3370.366-620.979z"/>
		</g>
		<g>
			<path fill="#3693D1" d="M3423.129-266.783h-202.105c-15.073,0-27.333-12.26-27.333-27.333v-341.688
				c0-15.07,12.259-27.333,27.333-27.333h202.105c15.074,0,27.336,12.262,27.336,27.333v341.688
				C3450.465-279.043,3438.204-266.783,3423.129-266.783z M3221.024-648.674c-7.096,0-12.87,5.774-12.87,12.87v341.688
				c0,7.097,5.774,12.87,12.87,12.87h202.105c7.096,0,12.873-5.773,12.873-12.87v-341.688c0-7.096-5.777-12.87-12.873-12.87
				H3221.024z"/>
		</g>
		<g>
			<path fill="#3693D1" d="M3385.208-355.821h-148.975c-3.994,0-7.231-3.237-7.231-7.231v-233.312c0-3.994,3.237-7.231,7.231-7.231
				h171.691c3.994,0,7.23,3.237,7.23,7.231v208.041c0,3.994-3.236,7.231-7.23,7.231s-7.232-3.237-7.232-7.231v-200.81h-157.228
				v218.849h141.743c3.994,0,7.23,3.237,7.23,7.231S3389.202-355.821,3385.208-355.821z"/>
		</g>
		<g>
			<path fill="#3693D1" d="M3359.621-317.557c0-9.824-7.961-17.79-17.788-17.79h-32.109c-9.822,0-17.788,7.966-17.788,17.79l0,0
				c0,9.825,7.966,17.785,17.788,17.785h32.109C3351.66-299.771,3359.621-307.731,3359.621-317.557L3359.621-317.557z"/>
		</g>
	</g>
</g>
<g>
	<g>
		<path fill="#3693D1" d="M2429.55-1009.602h-67.976c-3.995,0-7.231-3.237-7.231-7.231v-44.175c0-3.994,3.237-7.231,7.231-7.231
			h67.976c3.995,0,7.231,3.237,7.231,7.231v44.175C2436.781-1012.839,2433.544-1009.602,2429.55-1009.602z M2368.806-1024.064
			h53.513v-29.712h-53.513V-1024.064z"/>
	</g>
	<g>
		<path fill="#3693D1" d="M2429.55-1083.386h-67.976c-3.995,0-7.231-3.237-7.231-7.231v-44.18c0-3.994,3.237-7.231,7.231-7.231
			h67.976c3.995,0,7.231,3.237,7.231,7.231v44.18C2436.781-1086.623,2433.544-1083.386,2429.55-1083.386z M2368.806-1097.849h53.513
			v-29.717h-53.513V-1097.849z"/>
	</g>
	<g>
		<path fill="#3693D1" d="M2526.452-1009.602h-67.976c-3.994,0-7.231-3.237-7.231-7.231v-44.175c0-3.994,3.237-7.231,7.231-7.231
			h67.976c3.994,0,7.231,3.237,7.231,7.231v44.175C2533.684-1012.839,2530.446-1009.602,2526.452-1009.602z M2465.708-1024.064
			h53.513v-29.712h-53.513V-1024.064z"/>
	</g>
	<g>
		<path fill="#3693D1" d="M2526.452-1083.386h-67.976c-3.994,0-7.231-3.237-7.231-7.231v-44.18c0-3.994,3.237-7.231,7.231-7.231
			h67.976c3.994,0,7.231,3.237,7.231,7.231v44.18C2533.684-1086.623,2530.446-1083.386,2526.452-1083.386z M2465.708-1097.849
			h53.513v-29.717h-53.513V-1097.849z"/>
	</g>
	<g>
		<path fill="#3693D1" d="M2429.55-1157.175h-67.976c-3.994,0-7.231-3.237-7.231-7.231v-44.169c0-3.994,3.237-7.231,7.231-7.231
			h67.976c3.994,0,7.231,3.237,7.231,7.231v44.169C2436.782-1160.412,2433.544-1157.175,2429.55-1157.175z M2368.806-1171.638
			h53.513v-29.706h-53.513V-1171.638z"/>
	</g>
	<g>
		<path fill="#3693D1" d="M2626.247-1009.602h-67.977c-3.994,0-7.232-3.237-7.232-7.231v-44.175c0-3.994,3.238-7.231,7.232-7.231
			h67.977c3.994,0,7.23,3.237,7.23,7.231v44.175C2633.478-1012.839,2630.241-1009.602,2626.247-1009.602z M2565.501-1024.064h53.514
			v-29.712h-53.514V-1024.064z"/>
	</g>
	<g>
		<path fill="#3693D1" d="M2626.247-1083.386h-67.977c-3.994,0-7.232-3.237-7.232-7.231v-44.18c0-3.994,3.238-7.231,7.232-7.231
			h67.977c3.994,0,7.23,3.237,7.23,7.231v44.18C2633.478-1086.623,2630.241-1083.386,2626.247-1083.386z M2565.501-1097.849h53.514
			v-29.717h-53.514V-1097.849z"/>
	</g>
	<g>
		<path fill="#3693D1" d="M2626.247-1157.175h-67.977c-3.994,0-7.232-3.237-7.232-7.231v-44.169c0-3.994,3.238-7.231,7.232-7.231
			h67.977c3.994,0,7.23,3.237,7.23,7.231v44.169C2633.478-1160.412,2630.241-1157.175,2626.247-1157.175z M2565.501-1171.638h53.514
			v-29.706h-53.514V-1171.638z"/>
	</g>
	<g>
		<path fill="#3693D1" d="M2626.247-1230.958h-67.977c-3.994,0-7.232-3.237-7.232-7.231v-44.174c0-3.994,3.238-7.231,7.232-7.231
			h67.977c3.994,0,7.23,3.237,7.23,7.231v44.174C2633.478-1234.195,2630.241-1230.958,2626.247-1230.958z M2565.501-1245.42h53.514
			v-29.711h-53.514V-1245.42z"/>
	</g>
	<g>
		<path fill="#3693D1" d="M2626.247-1304.747h-67.977c-3.994,0-7.232-3.237-7.232-7.231v-44.167c0-3.994,3.238-7.231,7.232-7.231
			h67.977c3.994,0,7.23,3.237,7.23,7.231v44.167C2633.478-1307.984,2630.241-1304.747,2626.247-1304.747z M2565.501-1319.21h53.514
			v-29.705h-53.514V-1319.21z"/>
	</g>
	<g>
		<path fill="#3693D1" d="M2722.425-1009.602h-67.977c-3.994,0-7.23-3.237-7.23-7.231v-44.175c0-3.994,3.236-7.231,7.23-7.231
			h67.977c3.994,0,7.232,3.237,7.232,7.231v44.175C2729.657-1012.839,2726.419-1009.602,2722.425-1009.602z M2661.681-1024.064
			h53.514v-29.712h-53.514V-1024.064z"/>
	</g>
	<g>
		<path fill="#3693D1" d="M2722.425-1083.386h-67.977c-3.994,0-7.23-3.237-7.23-7.231v-44.18c0-3.994,3.236-7.231,7.23-7.231h67.977
			c3.994,0,7.232,3.237,7.232,7.231v44.18C2729.657-1086.623,2726.419-1083.386,2722.425-1083.386z M2661.681-1097.849h53.514
			v-29.717h-53.514V-1097.849z"/>
	</g>
	<g>
		<path fill="#3693D1" d="M2722.425-1157.175h-67.977c-3.994,0-7.23-3.237-7.23-7.231v-44.169c0-3.994,3.236-7.231,7.23-7.231
			h67.977c3.994,0,7.232,3.237,7.232,7.231v44.169C2729.657-1160.412,2726.419-1157.175,2722.425-1157.175z M2661.681-1171.638
			h53.514v-29.706h-53.514V-1171.638z"/>
	</g>
	<g>
		<path fill="#3693D1" d="M2722.425-1230.958h-67.977c-3.994,0-7.23-3.237-7.23-7.231v-44.174c0-3.994,3.236-7.231,7.23-7.231
			h67.977c3.994,0,7.232,3.237,7.232,7.231v44.174C2729.657-1234.195,2726.419-1230.958,2722.425-1230.958z M2661.681-1245.42
			h53.514v-29.711h-53.514V-1245.42z"/>
	</g>
	<g>
		<path fill="#3693D1" d="M2722.425-1304.747h-67.977c-3.994,0-7.23-3.237-7.23-7.231v-44.167c0-3.994,3.236-7.231,7.23-7.231
			h67.977c3.994,0,7.232,3.237,7.232,7.231v44.167C2729.657-1307.984,2726.419-1304.747,2722.425-1304.747z M2661.681-1319.21
			h53.514v-29.705h-53.514V-1319.21z"/>
	</g>
	<g>
		<path fill="#3693D1" d="M2722.425-1378.524h-67.977c-3.994,0-7.23-3.237-7.23-7.231v-44.18c0-3.994,3.236-7.231,7.23-7.231h67.977
			c3.994,0,7.232,3.237,7.232,7.231v44.18C2729.657-1381.761,2726.419-1378.524,2722.425-1378.524z M2661.681-1392.987h53.514
			v-29.717h-53.514V-1392.987z"/>
	</g>
</g>
<g>
	<g>
		<g>
			<path fill="#3693D1" d="M1153.341-299.962c-0.666,0-1.332-0.126-1.959-0.382c-3.472-1.413-85.018-35.396-85.018-104.147v-71.332
				c0-9.858,8.483-17.88,18.911-17.88c0.128,0,0.256,0.006,0.383,0.016c0.091,0.005,1.269,0.082,3.306,0.082
				c10.273,0,36.823-1.824,61.434-18.733c1.772-1.218,4.113-1.218,5.886,0c24.61,16.909,51.161,18.733,61.434,18.733
				c2.037,0,3.214-0.077,3.313-0.084c0.123-0.008,0.252-0.014,0.375-0.014c10.428,0,18.911,8.021,18.911,17.88v71.332
				c0,68.752-81.545,102.734-85.017,104.147C1154.673-300.088,1154.007-299.962,1153.341-299.962z M1085.125-483.306
				c-4.625,0.071-8.364,3.401-8.364,7.482v71.332c0,56.278,64.412,88.144,76.578,93.658c12.154-5.522,76.584-37.469,76.584-93.658
				v-71.332c0-4.081-3.738-7.411-8.364-7.482c-0.517,0.03-1.834,0.096-3.84,0.096c-10.835,0-38.226-1.86-64.377-18.607
				c-26.15,16.747-53.542,18.607-64.377,18.607C1086.96-483.21,1085.641-483.275,1085.125-483.306z"/>
		</g>
		<g>
			<path fill="#3693D1" d="M1153.341-336.273c-0.82,0-1.641-0.195-2.39-0.583c-16.041-8.305-53.351-31.542-53.351-67.887v-37.124
				c0-2.871,2.327-5.198,5.198-5.198s5.198,2.327,5.198,5.198v37.124c0,29.039,29.996,49.053,45.345,57.388
				c15.35-8.337,45.349-28.353,45.349-57.388v-47.435c-10.929-0.82-27.896-3.62-45.348-12.414
				c-10.535,5.312-22.029,9.034-34.207,11.07c-2.83,0.475-5.51-1.439-5.984-4.272c-0.473-2.83,1.439-5.51,4.27-5.981
				c12.012-2.01,23.271-5.795,33.466-11.257c1.533-0.82,3.375-0.82,4.908,0c19.417,10.4,38.563,12.438,48.25,12.731
				c2.808,0.083,5.042,2.384,5.042,5.193v52.364c0,36.338-37.313,59.58-53.355,67.887
				C1154.981-336.469,1154.161-336.273,1153.341-336.273z"/>
		</g>
		<g>
			<path fill="#3693D1" d="M1153.341-435.094c-2.871,0-5.198-2.327-5.198-5.198v-30.155c0-2.871,2.327-5.197,5.198-5.197
				s5.198,2.326,5.198,5.197v30.155C1158.539-437.421,1156.212-435.094,1153.341-435.094z"/>
		</g>
		<g>
			<path fill="#3693D1" d="M1153.341-336.273c-2.871,0-5.198-2.327-5.198-5.198v-58.971c0-2.871,2.327-5.198,5.198-5.198
				s5.198,2.327,5.198,5.198v58.971C1158.539-338.601,1156.212-336.273,1153.341-336.273z"/>
		</g>
	</g>
	<g>
		<g>
			<path fill="#3693D1" d="M940.672-582.485c-1.451,0-2.892-0.601-3.92-1.782c-1.886-2.165-1.661-5.446,0.503-7.334
				c28.382-24.736,64.775-38.358,102.475-38.358c27.865,0,55.213,7.434,79.087,21.5c3.681,2.168,7.335,4.529,10.86,7.017
				c2.345,1.655,2.905,4.899,1.25,7.243c-1.655,2.347-4.9,2.903-7.244,1.25c-3.293-2.322-6.706-4.527-10.143-6.554
				c-22.277-13.125-47.8-20.061-73.811-20.061c-35.188,0-69.156,12.715-95.645,35.8
				C943.101-582.905,941.883-582.485,940.672-582.485z"/>
		</g>
		<g>
			<path fill="#3693D1" d="M1189.076-490.049c-2.548,0-4.772-1.876-5.14-4.471c-4.381-30.936-18.334-59.122-40.351-81.509
				c-2.013-2.047-1.986-5.336,0.061-7.351c2.047-2.01,5.338-1.985,7.35,0.062c23.588,23.983,38.539,54.186,43.232,87.34
				c0.403,2.843-1.574,5.474-4.417,5.876C1189.564-490.064,1189.318-490.049,1189.076-490.049z"/>
		</g>
		<g>
			<path fill="#3693D1" d="M920.547-470.602c-2.871,0-5.198-2.327-5.198-5.197c0-46.503,22.011-87.454,58.879-109.541
				c2.462-1.479,5.654-0.676,7.13,1.787c1.475,2.46,0.675,5.654-1.788,7.13c-33.704,20.193-53.825,57.811-53.825,100.624
				C925.745-472.929,923.417-470.602,920.547-470.602z"/>
		</g>
		<g>
			<path fill="#3693D1" d="M1086.64-581.358c-0.675,0-1.36-0.132-2.021-0.412c-5.108-2.156-10.408-3.957-15.751-5.348
				c-9.469-2.459-19.272-3.708-29.136-3.708c-13.526,0-26.78,2.323-39.392,6.897c-2.698,0.979-5.68-0.416-6.659-3.112
				c-0.979-2.701,0.416-5.682,3.114-6.66c13.752-4.99,28.198-7.521,42.937-7.521c10.745,0,21.428,1.36,31.752,4.04
				c5.832,1.52,11.611,3.484,17.182,5.836c2.644,1.116,3.882,4.166,2.764,6.812C1090.592-582.55,1088.667-581.358,1086.64-581.358z"
				/>
		</g>
		<g>
			<path fill="#3693D1" d="M958.368-329.716c-1.5,0-2.988-0.646-4.015-1.893c-1.826-2.217-1.509-5.492,0.708-7.317
				c14.69-12.097,21.314-30.895,24.284-44.532c0.612-2.805,3.381-4.579,6.185-3.974c2.805,0.611,4.583,3.378,3.974,6.185
				c-4.76,21.863-14.386,39.271-27.833,50.346C960.701-330.104,959.531-329.716,958.368-329.716z"/>
		</g>
		<g>
			<path fill="#3693D1" d="M985.319-401.153c-0.04,0-0.079,0-0.118,0c-2.87-0.065-5.145-2.442-5.081-5.312
				c0.173-7.712-0.312-15.033-1.329-20.117c-3.63-14.505-7.082-30.546-6.104-52.912c1.404-32.053,29.673-67.768,67.995-67.768
				c21.851,0,42.513,10.606,55.272,28.371c1.675,2.333,1.143,5.579-1.189,7.255c-2.333,1.673-5.58,1.141-7.253-1.19
				c-10.812-15.054-28.318-24.04-46.83-24.04c-31.523,0-56.414,30.529-57.61,57.826c-0.919,21.048,2.235,35.687,5.833,50.05
				c0.019,0.077,0.036,0.154,0.052,0.231c1.179,5.811,1.746,14.021,1.557,22.525C990.45-403.403,988.136-401.153,985.319-401.153z"
				/>
		</g>
		<g>
			<path fill="#3693D1" d="M1047.43-311.389c-0.73,0-1.471-0.154-2.178-0.483c-2.606-1.202-3.742-4.293-2.538-6.899
				c8.929-19.315,20.302-48.56,25.583-70.338c0.676-2.791,3.483-4.503,6.276-3.829c2.791,0.679,4.503,3.488,3.827,6.278
				c-5.446,22.464-17.108,52.474-26.249,72.25C1051.273-312.51,1049.393-311.389,1047.43-311.389z"/>
		</g>
		<g>
			<path fill="#3693D1" d="M1072.929-471.592c-2.871,0-5.198-2.327-5.198-5.198c0-15.116-12.3-27.415-27.419-27.415
				c-15.117,0-27.417,12.299-27.417,27.415c0,2.871-2.327,5.198-5.198,5.198s-5.198-2.327-5.198-5.198
				c0-20.849,16.962-37.811,37.812-37.811c20.852,0,37.814,16.962,37.814,37.811C1078.126-473.919,1075.8-471.592,1072.929-471.592z
				"/>
		</g>
		<g>
			<path fill="#3693D1" d="M1147.273-529.019c-1.81,0-3.568-0.948-4.526-2.634c-8.817-15.54-20.914-29.371-34.062-38.951
				c-2.32-1.691-2.831-4.941-1.14-7.263c1.69-2.32,4.942-2.828,7.262-1.139c14.317,10.428,27.451,25.425,36.982,42.222
				c1.417,2.498,0.541,5.672-1.955,7.087C1149.023-529.235,1148.142-529.019,1147.273-529.019z"/>
		</g>
		<g>
			<path fill="#3693D1" d="M1020.101-311.389c-0.721,0-1.453-0.15-2.151-0.472c-2.612-1.189-3.766-4.271-2.577-6.883
				c16.584-36.413,20.806-64.9,22.492-101.801c0.132-2.869,2.537-5.063,5.43-4.956c2.868,0.132,5.086,2.562,4.955,5.432
				c-1.745,38.169-6.136,67.691-23.416,105.634C1023.962-312.522,1022.075-311.389,1020.101-311.389z"/>
		</g>
		<g>
			<path fill="#3693D1" d="M1041.988-438.943c-0.132,0-0.265-0.006-0.399-0.017c-2.862-0.217-5.007-2.712-4.789-5.575
				c1.537-20.239-2.471-37.875-2.512-38.05c-0.648-2.798,1.093-5.59,3.888-6.237c2.783-0.649,5.585,1.088,6.237,3.882
				c0.181,0.778,4.415,19.297,2.751,41.193C1046.959-441.021,1044.681-438.943,1041.988-438.943z"/>
		</g>
		<g>
			<path fill="#3693D1" d="M986.204-317.887c-1.199,0-2.403-0.41-3.384-1.255c-2.179-1.867-2.428-5.148-0.558-7.325
				c2.98-3.472,19.979-28.227,23.532-54.297c3.197-23.513-0.003-70.837-0.036-71.314c-0.197-2.862,1.965-5.346,4.829-5.541
				c2.855-0.192,5.345,1.966,5.542,4.828c0.136,1.982,3.306,48.862-0.035,73.428c-3.941,28.924-22.462,55.609-25.946,59.666
				C989.122-318.5,987.667-317.887,986.204-317.887z"/>
		</g>
		<g>
			<path fill="#3693D1" d="M1084.12-314.062c-2.624,0-4.878-1.981-5.162-4.649c-1.122-10.525,0.612-22.58,5.3-36.852
				c0.896-2.729,3.834-4.215,6.56-3.313c2.727,0.894,4.212,3.833,3.316,6.558c-4.218,12.843-5.802,23.476-4.839,32.507
				c0.304,2.855-1.764,5.417-4.618,5.722C1084.49-314.069,1084.304-314.062,1084.12-314.062z"/>
		</g>
		<g>
			<path fill="#3693D1" d="M1130.002-490.808c-2.381,0-4.527-1.645-5.068-4.065c-7.733-34.629-41.3-70.447-84.086-70.447
				c-19.471,0-39.216,6.828-55.6,19.224c-2.289,1.732-5.549,1.281-7.281-1.009c-1.732-2.288-1.28-5.549,1.009-7.281
				c18.177-13.754,40.151-21.329,61.872-21.329c48.001,0,85.606,39.952,94.232,78.577c0.625,2.802-1.138,5.579-3.94,6.205
				C1130.759-490.849,1130.378-490.808,1130.002-490.808z"/>
		</g>
		<g>
			<path fill="#3693D1" d="M937.539-347.768c-1.948,0-3.814-1.099-4.702-2.975c-1.228-2.595-0.12-5.695,2.475-6.924
				c24.466-11.575,22.553-29.154,15.435-71.337c-1.711-10.14-3.65-21.632-5.269-34.291c-4.107-32.127-0.024-52.91,14.094-71.736
				c1.723-2.295,4.98-2.762,7.277-1.04c2.296,1.724,2.762,4.982,1.04,7.277c-9.01,12.014-16.711,28.104-12.098,64.182
				c1.592,12.454,3.513,23.837,5.207,33.879c6.815,40.381,11.316,67.061-21.238,82.463
				C939.041-347.929,938.283-347.768,937.539-347.768z"/>
		</g>
		<g>
			<path fill="#3693D1" d="M925.902-373.617c-1.187,0-2.268-0.14-3.221-0.349c-8.782-1.917-16.532-11.345-23.693-28.816
				c-6.889-16.808-12.18-39.113-14.367-53.765c-0.024-0.165-0.041-0.329-0.05-0.493l-0.881-16.599
				c-0.005-0.092-0.007-0.183-0.007-0.276c0-12.727,1.536-25.385,4.566-37.619c4.896-19.776,13.52-38.168,25.629-54.663
				c1.697-2.314,4.951-2.812,7.266-1.112c2.313,1.697,2.813,4.952,1.114,7.265c-11.302,15.395-19.349,32.556-23.917,51.008
				c-2.817,11.376-4.25,23.146-4.262,34.986l0.861,16.21c2.116,14.037,7.146,35.206,13.668,51.116
				c7.738,18.879,13.972,22.097,16.294,22.603c0.737,0.16,2.999,0.657,6.68-2.78c4.043-3.774,1.947-9.78-3.801-22.584
				c-0.946-2.109-1.925-4.288-2.883-6.538c-4.205-9.876-7.516-22.298-10.122-37.982c-0.47-2.832,1.443-5.509,4.276-5.979
				c2.833-0.469,5.508,1.443,5.979,4.276c2.469,14.858,5.553,26.509,9.431,35.613c0.931,2.185,1.882,4.304,2.801,6.351
				c5.818,12.958,11.312,25.197,1.413,34.439C933.93-374.87,929.449-373.617,925.902-373.617z"/>
		</g>
	</g>
</g>
<g>
	<g>
		<path fill="#3693D1" d="M-312.288,461.186c-2.076,0-4.048-1.176-4.99-3.149l-16.543-34.639c-3.782,0.351-7.525,0.532-11.172,0.532
			h-2.75c-3.695,0-7.385-0.178-11.185-0.532l-16.546,34.639c-1.229,2.57-4.212,3.784-6.882,2.812l-39.985-14.562
			c-2.675-0.972-4.172-3.814-3.463-6.57l9.402-36.591c-7.154-4.77-13.785-10.265-19.785-16.395l-34.222,15.565
			c-2.594,1.175-5.652,0.198-7.078-2.269l-21.283-36.862c-1.423-2.467-0.743-5.612,1.575-7.267l30.342-21.678
			c-2.397-8.368-3.905-16.961-4.5-25.645l-35.962-10.009c-2.743-0.763-4.458-3.484-3.964-6.29l7.402-41.909
			c0.493-2.799,3.018-4.773,5.874-4.549l40.306,3.123c3.043,0.236,5.322,2.895,5.085,5.94c-0.238,3.046-2.897,5.303-5.94,5.085
			l-35.306-2.734l-5.657,32.026l34.96,9.73c2.324,0.646,3.96,2.722,4.044,5.132c0.369,10.395,2.175,20.688,5.367,30.591
			c0.736,2.294-0.091,4.797-2.05,6.197l-29.488,21.07l16.263,28.171l33.242-15.12c2.178-0.997,4.75-0.471,6.366,1.296
			c6.946,7.578,14.912,14.175,23.672,19.609c2.054,1.274,3.043,3.732,2.44,6.074l-9.147,35.602l30.558,11.128l16.07-33.645
			c1.026-2.147,3.324-3.399,5.668-3.106c4.775,0.592,9.292,0.882,13.807,0.882h2.75c4.467,0,9.106-0.298,13.789-0.882
			c2.359-0.293,4.646,0.959,5.673,3.106l16.07,33.645l30.593-11.128l-9.165-35.598c-0.603-2.342,0.384-4.8,2.434-6.074
			c8.755-5.443,16.717-12.044,23.661-19.617c1.62-1.763,4.182-2.285,6.366-1.296l33.249,15.124l16.277-28.175l-29.499-21.082
			c-1.959-1.401-2.786-3.909-2.044-6.203c3.169-9.789,4.978-20.077,5.375-30.582c0.09-2.406,1.726-4.476,4.043-5.119l34.96-9.73
			l-5.652-32.04l-35.316,2.748c-2.452,0.186-4.698-1.236-5.582-3.504c-3.884-9.971-9.154-19.328-15.666-27.816
			c-1.456-1.898-1.527-4.519-0.173-6.493l19.799-28.88l-24.918-20.908l-24.804,24.323c-1.724,1.691-4.349,2.067-6.478,0.927
			c-9.593-5.128-19.799-8.819-30.334-10.964c-2.38-0.486-4.164-2.467-4.399-4.884l-3.376-34.666h-32.526l-3.365,34.664
			c-0.235,2.419-2.02,4.399-4.399,4.886c-10.52,2.143-20.729,5.834-30.349,10.969c-2.127,1.14-4.754,0.76-6.476-0.934
			l-24.782-24.321l-24.943,20.908l19.824,28.878c1.729,2.517,1.089,5.959-1.43,7.688c-2.519,1.728-5.957,1.093-7.689-1.428
			l-22.667-33.019c-1.611-2.348-1.176-5.536,1.006-7.367l32.639-27.359c2.179-1.827,5.391-1.706,7.426,0.292l25.517,25.041
			c8.244-4.062,16.86-7.178,25.704-9.297l3.462-35.666c0.274-2.832,2.657-4.994,5.504-4.994h42.563c2.847,0,5.228,2.16,5.504,4.994
			l3.473,35.666c8.854,2.119,17.469,5.235,25.7,9.297l25.536-25.044c2.03-1.995,5.246-2.116,7.426-0.287l32.605,27.359
			c2.18,1.829,2.616,5.016,1.004,7.363l-20.405,29.765c5.249,7.323,9.684,15.189,13.232,23.474l36.297-2.828
			c2.877-0.211,5.381,1.754,5.875,4.554l7.398,41.924c0.494,2.804-1.221,5.525-3.964,6.288l-35.971,10.014
			c-0.609,8.739-2.117,17.327-4.497,25.626l30.349,21.691c2.315,1.659,2.995,4.8,1.572,7.267l-21.298,36.862
			c-1.426,2.467-4.491,3.443-7.078,2.269l-34.229-15.565c-5.998,6.126-12.623,11.616-19.766,16.39l9.42,36.596
			c0.71,2.756-0.789,5.599-3.465,6.57l-40.025,14.562C-311.02,461.077-311.657,461.186-312.288,461.186z"/>
	</g>
	<g>
		<path fill="#3693D1" d="M-346.362,353.971c-30.525,0-55.361-24.834-55.361-55.359c0-3.055,2.475-5.529,5.529-5.529
			s5.529,2.475,5.529,5.529c0,24.428,19.875,44.3,44.303,44.3s44.3-19.872,44.3-44.3s-19.872-44.302-44.3-44.302
			c-7.146,0.002-13.967,1.647-20.27,4.896c-2.714,1.399-6.046,0.333-7.448-2.385c-1.397-2.713-0.33-6.048,2.385-7.447
			c7.771-4.005,16.53-6.122,25.33-6.124c30.528,0,55.361,24.834,55.361,55.361C-291.003,329.137-315.836,353.971-346.362,353.971z"
			/>
	</g>
</g>
<g>
	<g>
		<path fill="#3693D1" d="M300.001,386.711l-75.09-43.349v-86.713l75.09-43.344l75.087,43.344l0.005,86.707L300.001,386.711z
			 M235.558,337.218l64.444,37.205l64.446-37.21l-0.003-74.419l-64.443-37.2l-64.444,37.2V337.218z"/>
		<polygon fill="#3693D1" points="300.001,306.146 227.573,264.329 232.896,255.111 300.001,293.855 367.107,255.111 
			372.43,264.329 		"/>
		<rect x="294.681" y="299.999" fill="#3693D1" width="10.644" height="80.565"/>
	</g>
	<polygon fill="#3693D1" points="227.573,264.329 208.664,253.413 186.834,253.413 186.834,242.77 211.518,242.77 232.896,255.111 	
		"/>
	<polygon fill="#3693D1" points="372.427,264.329 367.104,255.111 388.482,242.77 413.166,242.77 413.166,253.413 391.336,253.413 	
		"/>
	<polygon fill="#3693D1" points="407.166,357.236 388.482,357.236 367.104,344.895 372.427,335.677 391.336,346.591 
		407.166,346.591 	"/>
	<polygon fill="#3693D1" points="211.518,357.236 186.834,357.236 186.834,346.591 208.664,346.591 227.573,335.677 
		232.896,344.895 	"/>
	<rect x="294.681" y="190.835" fill="#3693D1" width="10.644" height="32.615"/>
	<rect x="294.681" y="380.564" fill="#3693D1" width="10.644" height="32.618"/>
	<g>
		<path fill="#3693D1" d="M300.001,203.996l-40.417-40.417l40.417-40.417l40.417,40.417L300.001,203.996z M274.641,163.579
			l25.362,25.362l25.36-25.36l-25.362-25.362L274.641,163.579z"/>
		<path fill="#3693D1" d="M328.58,465h-57.158v-57.156h57.158V465z M282.069,454.354h35.868v-35.865h-35.868V454.354z"/>
		<path fill="#3693D1" d="M192.157,276.086H135v-57.158h57.157V276.086z M145.646,265.439h35.868v-35.865h-35.868V265.439z"/>
		<path fill="#3693D1" d="M436.42,392.915l-40.416-40.416l40.418-40.418l40.417,40.416L436.42,392.915z M411.058,352.496
			l25.363,25.363l25.362-25.362l-25.362-25.362L411.058,352.496z"/>
		<path fill="#3693D1" d="M163.579,334.585c9.876,0,17.912,8.035,17.912,17.911c0,9.878-8.036,17.913-17.912,17.913
			s-17.912-8.035-17.912-17.913C145.667,342.62,153.702,334.585,163.579,334.585 M163.579,323.918
			c-15.784,0-28.579,12.795-28.579,28.578c0,15.784,12.795,28.579,28.579,28.579s28.579-12.795,28.579-28.579
			C192.157,336.713,179.362,323.918,163.579,323.918L163.579,323.918z"/>
		<g>
			<defs>
				<polygon id="SVGID_1_" points="88.015,277.802 162.708,352.496 88.015,427.19 				"/>
			</defs>
			<clipPath id="SVGID_2_">
				<use xlink:href="#SVGID_1_"  overflow="visible"/>
			</clipPath>
			<g clip-path="url(#SVGID_2_)">
				<g>
					<path fill="#3693D1" d="M163.579,404.008c-28.404,0-51.512-23.108-51.512-51.512s23.108-51.512,51.512-51.512
						s51.512,23.108,51.512,51.512S191.982,404.008,163.579,404.008z M163.579,311.984c-22.338,0-40.512,18.174-40.512,40.512
						s18.173,40.512,40.512,40.512s40.512-18.174,40.512-40.512S185.917,311.984,163.579,311.984z"/>
				</g>
				<g>
					<path fill="#3693D1" d="M163.579,427.19c-41.187,0-74.694-33.508-74.694-74.694s33.508-74.694,74.694-74.694
						s74.694,33.508,74.694,74.694S204.765,427.19,163.579,427.19z M163.579,288.802c-35.121,0-63.694,28.573-63.694,63.694
						s28.573,63.694,63.694,63.694s63.694-28.573,63.694-63.694S198.7,288.802,163.579,288.802z"/>
				</g>
			</g>
		</g>
		<path fill="#3693D1" d="M436.421,229.595c9.876,0,17.912,8.035,17.912,17.911c0,9.878-8.036,17.913-17.912,17.913
			s-17.912-8.035-17.912-17.913C418.509,237.63,426.545,229.595,436.421,229.595 M436.421,218.928
			c-15.784,0-28.579,12.795-28.579,28.578c0,15.784,12.795,28.579,28.579,28.579S465,263.29,465,247.506
			C465,231.723,452.205,218.928,436.421,218.928L436.421,218.928z"/>
	</g>
</g>
<g>
	<g>
		<g>
			<path fill="#3693D1" d="M781.674,293.216c-12.262,0-22.238-9.977-22.238-22.238c0-12.263,9.977-22.238,22.238-22.238
				s22.238,9.976,22.238,22.238C803.912,283.239,793.936,293.216,781.674,293.216z M781.674,252.625
				c-10.119,0-18.352,8.233-18.352,18.353s8.232,18.352,18.352,18.352s18.352-8.232,18.352-18.352S791.793,252.625,781.674,252.625z
				"/>
			<polygon fill="#3693D1" points="779.234,279.911 770.367,271.046 773.115,268.298 779.234,274.415 790.232,263.418 
				792.979,266.165 			"/>
		</g>
		<g>
			<path fill="#3693D1" d="M801.105,329.057h-52.25c-5.834,0-10.58-4.744-10.58-10.578v-95.001c0-5.834,4.746-10.58,10.58-10.58
				h65.637c5.834,0,10.58,4.746,10.58,10.58v23.75h-3.887v-23.75c0-3.691-3.004-6.693-6.693-6.693h-65.637
				c-3.691,0-6.693,3.002-6.693,6.693v95.001c0,3.689,3.002,6.693,6.693,6.693h52.25V329.057z"/>
			<polygon fill="#3693D1" points="801.105,304.011 746.049,304.011 746.049,237.943 817.299,237.943 817.299,247.228 
				813.412,247.228 813.412,241.829 749.936,241.829 749.936,300.125 801.105,300.125 			"/>
			<rect x="740.219" y="230.171" fill="#3693D1" width="82.91" height="3.886"/>
			<rect x="740.219" y="307.897" fill="#3693D1" width="60.887" height="3.887"/>
			<rect x="779.73" y="221.534" fill="#3693D1" width="3.887" height="3.887"/>
			<rect x="773.037" y="316.535" fill="#3693D1" width="17.273" height="3.887"/>
		</g>
		<g>
			<path fill="#3693D1" d="M852.275,329.057h-47.068v-47.067h47.068V329.057z M809.094,325.172h39.295v-39.297h-39.295V325.172z"/>
			<rect x="807.15" y="316.535" fill="#3693D1" width="43.182" height="3.887"/>
			<path fill="#3693D1" d="M844.072,285.875h-30.66v-20.943c0-4.095,1.596-7.944,4.49-10.839c2.895-2.896,6.744-4.49,10.84-4.49
				c4.094,0,7.945,1.595,10.84,4.49c2.895,2.895,4.49,6.744,4.49,10.839V285.875z M817.299,281.989h22.887v-17.058
				c0-3.056-1.191-5.93-3.352-8.091c-2.162-2.162-5.035-3.352-8.092-3.352s-5.93,1.189-8.092,3.352
				c-2.162,2.161-3.352,5.035-3.352,8.091V281.989z"/>
			<g>
				<path fill="#3693D1" d="M828.742,304.875c-3.453,0-6.262-2.809-6.262-6.262c0-3.452,2.809-6.261,6.262-6.261
					s6.262,2.809,6.262,6.261C835.004,302.066,832.195,304.875,828.742,304.875z M828.742,296.238c-1.311,0-2.375,1.065-2.375,2.375
					s1.064,2.375,2.375,2.375c1.309,0,2.375-1.065,2.375-2.375S830.051,296.238,828.742,296.238z"/>
				<rect x="826.799" y="302.932" fill="#3693D1" width="3.887" height="6.909"/>
			</g>
		</g>
	</g>
</g>
<g>
	<g>
		<path fill="#3693D1" d="M2542-299.957c-90.987,0-165-74.021-165-165c0-90.989,74.013-165,165-165c90.98,0,165,74.011,165,165
			h-15.39c0-82.496-67.114-149.618-149.61-149.618s-149.617,67.122-149.617,149.618c0,82.495,67.121,149.608,149.617,149.608
			V-299.957z"/>
		<g>
			<path fill="#3693D1" d="M2706.807-456.9l-15.367-0.727c0.116-2.428,0.17-4.871,0.17-7.33H2707
				C2707-462.259,2706.938-459.567,2706.807-456.9z"/>
			<path fill="#3693D1" d="M2566.3-301.736l-2.25-15.227c4.826-0.712,9.675-1.67,14.4-2.855l3.736,14.928
				C2576.965-303.584,2571.62-302.525,2566.3-301.736z M2597.675-309.585l-5.189-14.485c4.57-1.642,9.133-3.534,13.549-5.632
				l6.589,13.905C2607.752-313.482,2602.726-311.396,2597.675-309.585z M2626.894-323.437l-7.927-13.195
				c4.168-2.506,8.268-5.25,12.196-8.167l9.172,12.352C2636.012-329.229,2631.487-326.199,2626.894-323.437z M2652.841-342.726
				l-10.34-11.399c3.619-3.278,7.107-6.775,10.378-10.386l11.4,10.34C2660.675-350.196,2656.831-346.345,2652.841-342.726z
				 M2674.557-366.676l-12.358-9.181c2.908-3.905,5.653-8.02,8.167-12.204l13.194,7.927
				C2680.783-375.524,2677.759-370.993,2674.557-366.676z M2691.2-394.41l-13.906-6.596c2.081-4.394,3.976-8.957,5.623-13.559
				l14.485,5.189C2695.585-404.295,2693.497-399.26,2691.2-394.41z M2702.104-424.889l-14.934-3.72
				c1.175-4.733,2.135-9.574,2.846-14.4l15.22,2.235C2704.456-435.453,2703.404-430.109,2702.104-424.889z"/>
			<path fill="#3693D1" d="M2542-299.957v-15.392c2.459,0,4.903-0.054,7.332-0.169l0.727,15.366
				C2547.391-300.027,2544.699-299.957,2542-299.957z"/>
		</g>
	</g>
	<g>
		<path fill="#3693D1" d="M2541.969-337.018c-70.548,0-127.94-57.393-127.94-127.939c0-70.547,57.392-127.94,127.94-127.94h7.694
			v124.753l88.204,88.204l-5.444,5.438C2608.255-350.327,2576.129-337.018,2541.969-337.018z M2534.274-577.243
			c-58.483,3.968-104.855,52.812-104.855,112.286c0,62.056,50.486,112.55,112.55,112.55c27.47,0,53.448-9.791,73.95-27.718
			l-81.645-81.646V-577.243z"/>
		<g>
			<rect x="2443.681" y="-472.652" fill="#3693D1" width="15.39" height="15.388"/>
			<rect x="2474.461" y="-472.652" fill="#3693D1" width="15.39" height="15.388"/>
			<rect x="2505.233" y="-472.652" fill="#3693D1" width="15.391" height="15.388"/>
		</g>
		<path fill="#3693D1" d="M2669.948-457.27h-97.19v-15.39h81.537c-3.256-47.826-36.674-88.792-83.501-101.136l3.92-14.879
			c56.07,14.78,95.234,65.653,95.234,123.71V-457.27z"/>
	</g>
</g>
<g>
	<g>
		<path fill="#3693D1" d="M2393.835,561.345c-39.549-39.631-61.332-92.248-61.332-148.158c0-106.04,79.288-195.471,184.429-208.026
			l1.727,14.458c-97.823,11.679-171.602,94.897-171.602,193.568c0,52.031,20.275,100.99,57.088,137.869L2393.835,561.345z"/>
		<path fill="#3693D1" d="M2542,242.514c-17.393,0-31.544-14.151-31.544-31.551c0-17.394,14.151-31.545,31.544-31.545
			s31.544,14.151,31.544,31.545C2573.544,228.362,2559.393,242.514,2542,242.514z M2542,193.979c-9.366,0-16.99,7.624-16.99,16.983
			c0,9.365,7.624,16.99,16.99,16.99c9.366,0,16.983-7.625,16.983-16.99C2558.983,201.604,2551.366,193.979,2542,193.979z"/>
	</g>
	<g>
		<path fill="#3693D1" d="M2567.068,621.214l-1.727-14.461c97.823-11.684,171.595-94.902,171.595-193.566
			c0-52.024-20.269-100.991-57.082-137.863l10.31-10.287c39.549,39.622,61.332,92.24,61.332,148.15
			C2751.497,519.22,2672.209,608.649,2567.068,621.214z"/>
		<path fill="#3693D1" d="M2542,646.946c-17.393,0-31.544-14.15-31.544-31.543s14.151-31.545,31.544-31.545
			s31.544,14.152,31.544,31.545S2559.393,646.946,2542,646.946z M2542,598.419c-9.366,0-16.99,7.617-16.99,16.984
			c0,9.365,7.624,16.99,16.99,16.99c9.366,0,16.983-7.625,16.983-16.99C2558.983,606.036,2551.366,598.419,2542,598.419z"/>
	</g>
	<g>
		<path fill="#3693D1" d="M2542,569.298c-86.086,0-156.111-70.033-156.111-156.111c0-86.087,70.025-156.111,156.111-156.111
			c86.079,0,156.111,70.024,156.111,156.111h-14.561c0-78.052-63.499-141.558-141.55-141.558s-141.557,63.506-141.557,141.558
			c0,78.051,63.505,141.549,141.557,141.549V569.298z"/>
		<g>
			<path fill="#3693D1" d="M2697.928,420.81l-14.539-0.688c0.11-2.297,0.161-4.609,0.161-6.936h14.561
				C2698.111,415.739,2698.053,418.286,2697.928,420.81z"/>
			<path fill="#3693D1" d="M2564.991,567.614l-2.129-14.406c4.566-0.674,9.154-1.58,13.625-2.701l3.534,14.123
				C2575.081,565.866,2570.024,566.868,2564.991,567.614z M2594.676,560.188l-4.91-13.705c4.324-1.553,8.641-3.344,12.819-5.328
				l6.234,13.156C2604.21,556.501,2599.454,558.476,2594.676,560.188z M2622.32,547.083l-7.5-12.484
				c3.944-2.371,7.822-4.967,11.539-7.727l8.678,11.686C2630.947,541.603,2626.667,544.47,2622.32,547.083z M2646.87,528.833
				l-9.783-10.785c3.424-3.102,6.724-6.41,9.819-9.826l10.786,9.783C2654.282,521.765,2650.645,525.409,2646.87,528.833z
				 M2667.416,506.173l-11.692-8.686c2.751-3.695,5.349-7.588,7.727-11.547l12.483,7.5
				C2673.306,497.802,2670.445,502.089,2667.416,506.173z M2683.163,479.933l-13.157-6.24c1.969-4.156,3.762-8.475,5.32-12.828
				l13.705,4.91C2687.311,470.581,2685.335,475.345,2683.163,479.933z M2693.479,451.097l-14.129-3.52
				c1.112-4.479,2.02-9.059,2.692-13.625l14.4,2.115C2695.704,441.101,2694.709,446.157,2693.479,451.097z"/>
			<path fill="#3693D1" d="M2542,569.298v-14.562c2.327,0,4.639-0.051,6.937-0.16l0.688,14.539
				C2547.1,569.231,2544.554,569.298,2542,569.298z"/>
		</g>
	</g>
	<g>
		<path fill="#3693D1" d="M2541.971,534.233c-66.747,0-121.047-54.301-121.047-121.047c0-66.747,54.3-121.048,121.047-121.048h7.28
			v118.033l83.452,83.452l-5.151,5.145C2604.686,521.642,2574.291,534.233,2541.971,534.233z M2534.69,306.949
			c-55.333,3.754-99.206,49.968-99.206,106.237c0,58.713,47.766,106.486,106.486,106.486c25.99,0,50.569-9.264,69.967-26.225
			L2534.69,416.2V306.949z"/>
		<g>
			<rect x="2448.977" y="405.906" fill="#3693D1" width="14.561" height="14.56"/>
			<rect x="2478.1" y="405.906" fill="#3693D1" width="14.561" height="14.56"/>
			<rect x="2507.214" y="405.906" fill="#3693D1" width="14.562" height="14.56"/>
		</g>
		<path fill="#3693D1" d="M2663.055,420.46h-91.955v-14.561h77.145c-3.081-45.25-34.698-84.009-79.003-95.688l3.709-14.078
			c53.049,13.984,90.104,62.116,90.104,117.046V420.46z"/>
	</g>
</g>
<g id="Network_2_">
	<g id="Globe_6_">
		<g>
			<path fill="#3693D1" d="M1806-299.959c-90.98,0-165-74.016-165-165.001c0-90.984,74.02-165.004,165-165.004
				s165,74.02,165,165.004C1971-373.975,1896.98-299.959,1806-299.959z M1806-618.652c-84.748,0-153.691,68.943-153.691,153.692
				c0,84.745,68.944,153.693,153.691,153.693c84.743,0,153.687-68.948,153.687-153.693
				C1959.687-549.709,1890.743-618.652,1806-618.652z"/>
		</g>
		<g>
			<path fill="#3693D1" d="M1687.986-361.101c-2.696,0-5.351-0.081-7.985-0.259l0.736-11.285
				c50.724,3.304,114.856-28.526,155.843-77.488c38.006-45.396,51.554-100.258,38.14-154.479l10.977-2.714
				c14.299,57.814-0.062,116.217-40.443,164.457C1804.195-393.827,1740.686-361.101,1687.986-361.101z"/>
		</g>
		<g>
			<path fill="#3693D1" d="M1890.831-324.951l-10.618-3.888c17.058-46.569,7.056-96.05-28.16-139.318
				c-44.528-54.714-118.139-86.623-179.062-77.647l-1.654-11.186c64.651-9.52,142.576,24.047,189.489,81.691
				C1898.66-428.807,1909.32-375.41,1890.831-324.951z"/>
		</g>
		<g>
			<path fill="#3693D1" d="M1766.273-305.719c-63.319-64.863-71.961-130.459-68.063-174.066
				c6.408-71.725,47.96-125.16,81.595-149.129l6.565,9.212c-31.681,22.571-70.827,73.026-76.898,140.924
				c-3.687,41.24,4.583,103.374,64.895,165.158L1766.273-305.719z"/>
		</g>
		<g>
			<path fill="#3693D1" d="M1800.203-352.253c-66.492,0-123.178-27.98-155.112-77.775l9.52-6.108
				c34.153,53.254,99.063,79.746,173.607,70.884c63.433-7.54,116.817-39.009,129.82-76.521l10.681,3.708
				c-14.362,41.448-71.593,76.01-139.168,84.046C1819.594-352.835,1809.795-352.253,1800.203-352.253z"/>
		</g>
	</g>
	<g>
		<path fill-rule="evenodd" clip-rule="evenodd" fill="#3693D1" d="M1885.189-466.991c0,14.267-11.567,25.833-25.832,25.833
			c-14.269,0-25.831-11.566-25.831-25.833c0-14.264,11.562-25.829,25.831-25.829C1873.622-492.82,1885.189-481.255,1885.189-466.991
			z"/>
	</g>
	<g>
		<path fill-rule="evenodd" clip-rule="evenodd" fill="#3693D1" d="M1750.055-548.987c0,14.222-11.531,25.751-25.753,25.751
			c-14.217,0-25.748-11.529-25.748-25.751c0-14.223,11.531-25.752,25.748-25.752C1738.524-574.739,1750.055-563.21,1750.055-548.987
			z"/>
	</g>
	<g>
		<path fill-rule="evenodd" clip-rule="evenodd" fill="#3693D1" d="M1748.728-371.526c0,13.491-10.936,24.426-24.426,24.426
			c-13.486,0-24.426-10.935-24.426-24.426c0-13.488,10.94-24.427,24.426-24.427C1737.792-395.953,1748.728-385.015,1748.728-371.526
			z"/>
	</g>
	<g>
		<path fill-rule="evenodd" clip-rule="evenodd" fill="#3693D1" d="M1919.431-377.179c0,14.039-11.376,25.422-25.417,25.422
			s-25.422-11.383-25.422-25.422c0-14.044,11.381-25.423,25.422-25.423S1919.431-391.223,1919.431-377.179z"/>
	</g>
</g>
<g>
	<path fill="#3693D1" d="M1859.358-435.772c-17.393,0-31.544-14.15-31.544-31.543s14.151-31.545,31.544-31.545
		s31.544,14.152,31.544,31.545S1876.751-435.772,1859.358-435.772z"/>
	<path fill="#FFFFFF" d="M1859.358-484.3c-9.366,0-16.99,7.617-16.99,16.984c0,9.365,7.624,16.99,16.99,16.99
		c9.366,0,16.983-7.625,16.983-16.99C1876.341-476.683,1868.724-484.3,1859.358-484.3z"/>
</g>
<g>
	<path fill="#3693D1" d="M1724.301-517.444c-17.393,0-31.544-14.15-31.544-31.543s14.151-31.545,31.544-31.545
		s31.544,14.152,31.544,31.545S1741.694-517.444,1724.301-517.444z"/>
	<path fill="#FFFFFF" d="M1724.301-565.971c-9.366,0-16.99,7.617-16.99,16.984c0,9.365,7.624,16.99,16.99,16.99
		c9.366,0,16.983-7.625,16.983-16.99C1741.285-558.354,1733.667-565.971,1724.301-565.971z"/>
</g>
<g>
	<path fill="#3693D1" d="M1724.301-339.982c-17.393,0-31.544-14.15-31.544-31.543s14.151-31.545,31.544-31.545
		s31.544,14.152,31.544,31.545S1741.694-339.982,1724.301-339.982z"/>
	<path fill="#FFFFFF" d="M1724.301-388.51c-9.366,0-16.99,7.617-16.99,16.984c0,9.365,7.624,16.99,16.99,16.99
		c9.366,0,16.983-7.625,16.983-16.99C1741.285-380.893,1733.667-388.51,1724.301-388.51z"/>
</g>
<g>
	<path fill="#3693D1" d="M1894.012-345.635c-17.393,0-31.544-14.15-31.544-31.543s14.151-31.545,31.544-31.545
		s31.544,14.152,31.544,31.545S1911.405-345.635,1894.012-345.635z"/>
	<path fill="#FFFFFF" d="M1894.012-394.162c-9.366,0-16.99,7.617-16.99,16.984c0,9.365,7.624,16.99,16.99,16.99
		c9.366,0,16.983-7.625,16.983-16.99C1910.995-386.545,1903.377-394.162,1894.012-394.162z"/>
</g>
<g>
	<path fill="#3693D1" d="M-400-299.959c-90.98,0-165-74.016-165-165.001c0-90.984,74.02-165.004,165-165.004s165,74.02,165,165.004
		C-235-373.975-309.02-299.959-400-299.959z M-400-618.652c-84.748,0-153.691,68.943-153.691,153.692
		c0,84.745,68.944,153.693,153.691,153.693c84.743,0,153.687-68.948,153.687-153.693C-246.313-549.709-315.257-618.652-400-618.652z
		"/>
</g>
<g>
	<defs>
		<path id="SVGID_3_" d="M-400-324.959c-77.195,0-140-62.802-140-140.001s62.805-140.003,140-140.003
			c77.195,0,140,62.804,140,140.003S-322.805-324.959-400-324.959z"/>
	</defs>
	<clipPath id="SVGID_4_">
		<use xlink:href="#SVGID_3_"  overflow="visible"/>
	</clipPath>
	<g clip-path="url(#SVGID_4_)">
		<g>
			<path fill="#3693D1" d="M-517.058-502.125c-1.422-1.512-1.917-3.753-1.126-5.792l13.888-35.786
				c-2.848-2.515-5.545-5.116-8.044-7.771l-1.885-2.002c-2.533-2.691-4.932-5.5-7.278-8.51l-36.564,11.69
				c-2.714,0.867-5.642-0.474-6.764-3.085l-16.799-39.098c-1.126-2.614-0.081-5.652,2.412-7.025l33.09-18.23
				c-1.43-8.479-1.973-17.074-1.621-25.644l-34.789-14.253c-2.633-1.083-4.018-3.98-3.199-6.709l12.257-40.762
				c0.821-2.728,3.579-4.388,6.372-3.833l36.581,7.239c4.451-7.481,9.674-14.468,15.591-20.853l-17.357-33.047
				c-1.325-2.521-0.518-5.635,1.864-7.198l35.593-23.331c2.375-1.559,5.543-1.073,7.337,1.16l25.349,31.492
				c1.914,2.378,1.54,5.86-0.84,7.774c-2.382,1.914-5.848,1.524-7.775-0.841l-22.205-27.584l-27.199,17.829l16.873,32.127
				c1.123,2.135,0.732,4.749-0.965,6.461c-7.317,7.394-13.575,15.762-18.599,24.874c-1.166,2.108-3.555,3.222-5.918,2.755
				l-35.553-7.034l-9.37,31.149l33.793,13.845c2.218,0.902,3.598,3.137,3.419,5.523c-0.758,10.253-0.102,20.574,1.944,30.678
				c0.479,2.369-0.633,4.774-2.751,5.94l-32.195,17.737l12.839,29.879l35.515-11.355c2.267-0.724,4.753,0.091,6.146,1.999
				c2.842,3.883,5.727,7.371,8.821,10.659l1.885,2.003c3.061,3.253,6.457,6.427,10.092,9.437c1.831,1.518,2.486,4.041,1.626,6.26
				l-13.487,34.761l29.07,14.652l19.642-31.071c1.293-2.044,3.758-3.01,6.091-2.391c9.964,2.645,20.227,3.919,30.501,3.786
				c2.394-0.028,4.53,1.479,5.307,3.748l11.773,34.577l31.673-7.455l-4.865-35.93c-0.323-2.387,0.937-4.708,3.116-5.74
				c9.301-4.401,18.032-10.135,25.954-17.045c1.814-1.584,4.442-1.811,6.499-0.564l31.045,18.79l19.458-26.075l-26.205-23.834
				c-1.816-1.659-2.319-4.269-1.274-6.466c4.599-9.662,7.802-19.913,9.52-30.472c0.385-2.361,2.243-4.209,4.61-4.576l34.6-5.374
				l-1.851-32.476l-34.712-1.393c-2.413-0.096-4.486-1.75-5.114-4.082c-2.84-10.5-7.146-20.462-12.805-29.604
				c-1.278-2.067-1.058-4.724,0.541-6.552l22.931-26.216l-22.291-23.687l-27.55,21.306c-1.923,1.486-4.587,1.544-6.573,0.144
				c-8.77-6.192-18.455-11.097-28.787-14.583c-2.288-0.768-3.812-2.941-3.758-5.355l0.728-34.715l-32.321-3.835l-7.443,34.227
				c-0.648,2.984-3.593,4.877-6.579,4.228c-2.983-0.65-4.878-3.589-4.229-6.579l8.51-39.135c0.605-2.782,3.226-4.65,6.055-4.316
				l42.292,5.018c2.824,0.334,4.937,2.756,4.877,5.608l-0.748,35.743c8.607,3.22,16.782,7.359,24.386,12.347l28.346-21.922
				c2.25-1.741,5.458-1.488,7.409,0.585l29.171,30.996c1.951,2.073,2.009,5.287,0.135,7.431l-23.593,26.973
				c4.525,7.9,8.159,16.309,10.843,25.087l35.739,1.432c2.844,0.111,5.136,2.37,5.298,5.211l2.422,42.495
				c0.162,2.841-1.86,5.343-4.674,5.777l-35.66,5.54c-1.735,8.841-4.425,17.462-8.025,25.724l26.935,24.494
				c2.125,1.95,2.411,5.121,0.71,7.399l-25.459,34.12c-1.703,2.282-4.861,2.898-7.296,1.423l-31.944-19.332
				c-6.782,5.546-14.069,10.333-21.744,14.288l5.003,36.966c0.378,2.824-1.442,5.471-4.214,6.125l-41.441,9.754
				c-2.773,0.651-5.585-0.911-6.503-3.601l-12.123-35.594c-8.572-0.169-17.11-1.23-25.481-3.161l-20.195,31.94
				c-1.52,2.405-4.617,3.262-7.159,1.979l-38.036-19.167C-516.11-501.276-516.625-501.665-517.058-502.125z"/>
		</g>
		<g>
			<path fill="#3693D1" d="M-462.333-600.417c-20.92-22.229-19.856-57.335,2.372-78.255c2.225-2.094,5.723-1.988,7.816,0.237
				c2.094,2.225,1.987,5.723-0.237,7.816c-17.789,16.742-18.639,44.834-1.897,62.623s44.832,18.641,62.621,1.9
				c17.789-16.741,18.642-44.833,1.901-62.622c-4.899-5.202-10.772-9.042-17.457-11.405c-2.879-1.018-4.386-4.175-3.368-7.059
				c1.017-2.877,4.178-4.385,7.058-3.367c8.243,2.914,15.787,7.841,21.819,14.249c20.923,22.231,19.857,57.335-2.374,78.256
				C-406.31-577.124-441.414-578.188-462.333-600.417z"/>
		</g>
	</g>
	<g clip-path="url(#SVGID_4_)">
		<g>
			<path fill="#3693D1" d="M-517.752-376.017c1.375-1.556,3.562-2.254,5.664-1.652l36.908,10.552
				c2.243-3.064,4.586-5.99,7.001-8.721l1.821-2.061c2.449-2.769,5.025-5.414,7.809-8.026l-14.989-35.34
				c-1.112-2.624-0.045-5.662,2.452-7.018l37.396-20.309c2.5-1.36,5.622-0.599,7.217,1.757l21.183,31.283
				c8.312-2.2,16.821-3.527,25.387-3.963l11.008-35.946c0.838-2.722,3.596-4.366,6.388-3.801l41.713,8.475
				c2.79,0.568,4.697,3.161,4.4,5.993l-3.859,37.09c7.857,3.747,15.293,8.31,22.192,13.616l31.32-20.311
				c2.388-1.55,5.563-1.031,7.338,1.197l26.492,33.307c1.77,2.224,1.577,5.423-0.483,7.414l-29.039,28.125
				c-2.193,2.124-5.694,2.069-7.818-0.125c-2.125-2.196-2.054-5.683,0.126-7.819l25.435-24.637l-20.244-25.453l-30.448,19.744
				c-2.023,1.313-4.662,1.164-6.523-0.37c-8.032-6.608-16.939-12.073-26.472-16.242c-2.206-0.969-3.534-3.246-3.284-5.642
				l3.748-36.048l-31.876-6.478l-10.694,34.919c-0.696,2.292-2.794,3.87-5.188,3.911c-10.278,0.185-20.497,1.781-30.37,4.744
				c-2.315,0.694-4.812-0.193-6.167-2.196l-20.611-30.435l-28.578,15.521l14.56,34.325c0.929,2.19,0.345,4.741-1.427,6.304
				c-3.606,3.185-6.816,6.376-9.807,9.759l-1.821,2.06c-2.959,3.347-5.809,7.02-8.473,10.914c-1.343,1.962-3.796,2.847-6.085,2.192
				l-35.849-10.248l-11.929,30.289l32.739,16.715c2.153,1.101,3.341,3.468,2.938,5.848c-1.722,10.164-2.052,20.501-0.978,30.72
				c0.247,2.382-1.058,4.646-3.246,5.628l-33.355,14.889l10.325,30.858l35.333-8.135c2.348-0.538,4.774,0.503,6.001,2.578
				c5.233,8.859,11.743,17.028,19.35,24.284c1.742,1.662,2.21,4.258,1.157,6.421l-15.869,32.635l27.747,16.989l21.335-28.277
				c1.485-1.96,4.038-2.699,6.322-1.859c10.043,3.693,20.543,5.945,31.216,6.688c2.387,0.167,4.397,1.85,4.979,4.173l8.52,33.962
				l32.169-4.816l-1.791-34.694c-0.125-2.411,1.332-4.627,3.596-5.466c10.197-3.79,19.722-8.991,28.308-15.463
				c1.94-1.46,4.606-1.484,6.573-0.061l28.205,20.435l21.546-24.367l-23.739-25.482c-1.656-1.779-1.958-4.428-0.746-6.532
				c5.364-9.3,9.361-19.394,11.886-30.001c0.555-2.349,2.58-4.064,4.989-4.233l34.636-2.454l0.86-32.536l-34.766-4.277
				c-3.03-0.372-5.185-3.132-4.811-6.164c0.374-3.031,3.128-5.187,6.163-4.814l39.751,4.891c2.826,0.349,4.926,2.786,4.853,5.634
				l-1.125,42.575c-0.074,2.842-2.292,5.168-5.137,5.369l-35.662,2.527c-2.419,8.866-5.792,17.387-10.062,25.415l24.426,26.219
				c1.94,2.081,1.981,5.299,0.095,7.432l-28.194,31.886c-1.886,2.133-5.081,2.485-7.388,0.815l-29.019-21.024
				c-7.453,5.229-15.493,9.618-23.989,13.095l1.846,35.719c0.15,2.844-1.889,5.333-4.704,5.753l-42.094,6.304
				c-2.814,0.421-5.49-1.362-6.181-4.125l-8.781-35.003c-8.962-0.919-17.793-2.809-26.35-5.638l-21.925,29.065
				c-1.748,2.295-4.879,2.869-7.304,1.386l-36.308-22.229c-2.428-1.486-3.33-4.574-2.084-7.135l16.325-33.581
				c-6.143-6.244-11.578-13.062-16.219-20.343l-36.352,8.366c-2.778,0.636-5.581-0.936-6.486-3.636l-13.506-40.373
				c-0.904-2.701,0.395-5.645,2.988-6.804l34.334-15.332c-0.616-8.552-0.34-17.151,0.816-25.664l-33.656-17.185
				c-2.534-1.294-3.671-4.301-2.626-6.948l15.604-39.632C-518.511-374.995-518.169-375.544-517.752-376.017z"/>
		</g>
		<g>
			<path fill="#3693D1" d="M-414.863-330.522c20.221-22.867,55.277-25.022,78.145-4.802c2.288,2.023,2.503,5.516,0.479,7.804
				c-2.023,2.289-5.516,2.503-7.805,0.48c-18.299-16.182-46.352-14.455-62.533,3.844c-16.182,18.3-14.458,46.351,3.841,62.532
				c18.301,16.181,46.353,14.458,62.534-3.842c4.731-5.354,8.017-11.554,9.758-18.428c0.749-2.96,3.756-4.749,6.721-4
				c2.958,0.75,4.749,3.76,4,6.72c-2.148,8.476-6.364,16.438-12.191,23.032c-20.222,22.87-55.277,25.023-78.146,4.802
				C-432.928-272.601-435.083-307.655-414.863-330.522z"/>
		</g>
	</g>
</g>
<g>
	<g>
		<path fill="#3693D1" d="M299.997-423.738c-22.742,0-41.246-18.506-41.246-41.251c0-22.746,18.504-41.25,41.246-41.25
			c22.747,0,41.25,18.504,41.25,41.25C341.247-442.244,322.743-423.738,299.997-423.738z M299.997-492.489
			c-15.161,0-27.495,12.336-27.495,27.5c0,15.163,12.334,27.5,27.495,27.5c15.163,0,27.5-12.337,27.5-27.5
			C327.497-480.153,315.16-492.489,299.997-492.489z"/>
	</g>
	<g>
		<path fill="#3693D1" d="M410-306.81c-0.975,0-1.953-0.208-2.873-0.63c-2.438-1.123-4.001-3.561-4.001-6.245v-6.876h-110
			c-75.817,0-137.498-61.683-137.498-137.499c0-7.298,0.576-14.619,1.712-21.76l13.58,2.162c-1.024,6.427-1.542,13.021-1.542,19.598
			c0,68.235,55.514,123.749,123.749,123.749H410c3.416,0,6.25,2.489,6.784,5.755l30.208-25.892l-30.116-21.545v0.377
			c0,3.797-3.078,6.875-6.875,6.875h-68.749c-3.903,0-35.188-0.129-53.136-4.119l-7.042,14.072c-1.614,3.226-5.446,4.655-8.78,3.273
			l-33.308-13.804c-3.331-1.382-5.03-5.102-3.891-8.523l5.195-15.605c-5.376-4.293-10.23-9.139-14.503-14.477l-15.588,5.194
			c-3.426,1.141-7.146-0.561-8.526-3.893l-13.796-33.312c-1.38-3.332,0.05-7.165,3.275-8.779l14.695-7.354
			c-0.752-6.805-0.747-13.663,0.016-20.492l-14.712-7.367c-3.225-1.614-4.654-5.446-3.274-8.778l13.796-33.299
			c1.381-3.333,5.102-5.031,8.523-3.892l15.61,5.196c4.258-5.324,9.069-10.152,14.35-14.398l8.615,10.717
			c-5.624,4.52-10.624,9.821-14.863,15.757c-1.754,2.458-4.905,3.482-7.767,2.528l-14.216-4.731l-8.896,21.474l13.4,6.708
			c2.699,1.352,4.2,4.306,3.702,7.282c-1.453,8.688-1.46,17.472-0.018,26.106c0.497,2.975-1.006,5.928-3.705,7.279l-13.379,6.695
			l8.898,21.484l14.193-4.73c2.866-0.953,6.019,0.073,7.771,2.533c5.07,7.11,11.284,13.315,18.471,18.438
			c2.458,1.754,3.484,4.905,2.531,7.77l-4.731,14.217l21.481,8.901l6.703-13.395c1.554-3.104,5.178-4.562,8.448-3.402
			c11.089,3.936,40.469,4.976,54.457,4.976h61.874v-6.876c0-2.575,1.44-4.936,3.731-6.113c2.291-1.177,5.048-0.976,7.144,0.524
			l48.125,34.428c1.719,1.228,2.776,3.179,2.869,5.291c0.092,2.109-0.792,4.146-2.395,5.52l-48.125,41.25
			C413.203-307.377,411.61-306.81,410-306.81z"/>
	</g>
	<g>
		<path fill="#3693D1" d="M359.843-390.88l-8.614-10.718c5.623-4.52,10.624-9.821,14.863-15.758c1.754-2.455,4.906-3.48,7.767-2.526
			l14.215,4.731l8.899-21.485l-13.401-6.71c-2.699-1.352-4.202-4.308-3.704-7.283c1.455-8.687,1.462-17.47,0.02-26.105
			c-0.497-2.977,1.005-5.929,3.705-7.279l13.378-6.696l-8.897-21.474l-14.196,4.721c-2.861,0.952-6.011-0.074-7.764-2.528
			c-5.075-7.105-11.293-13.312-18.481-18.45c-2.455-1.753-3.479-4.902-2.526-7.765l4.733-14.214l-21.479-8.893l-6.706,13.397
			c-1.553,3.105-5.176,4.563-8.446,3.402c-11.092-3.936-40.472-4.976-54.456-4.976h-61.875v6.875c0,2.576-1.439,4.937-3.729,6.114
			c-2.29,1.178-5.046,0.978-7.142-0.518l-48.125-34.375c-1.721-1.228-2.78-3.179-2.874-5.291c-0.093-2.111,0.79-4.148,2.394-5.523
			l48.126-41.25c2.039-1.747,4.907-2.148,7.347-1.026c2.439,1.121,4.003,3.562,4.003,6.247v6.874h109.998
			c75.818,0,137.5,61.682,137.5,137.5c0,9.734-1.028,19.471-3.052,28.938l-13.445-2.875c1.823-8.525,2.747-17.294,2.747-26.062
			c0-68.236-55.514-123.749-123.75-123.749H190.001c-3.415,0-6.249-2.491-6.783-5.756l-30.204,25.888l30.112,21.507v-0.391
			c0-3.797,3.078-6.875,6.875-6.875h68.75c3.903,0,35.186,0.128,53.134,4.12l7.044-14.073c1.614-3.225,5.446-4.652,8.777-3.275
			l33.308,13.792c3.333,1.379,5.031,5.101,3.893,8.524l-5.198,15.61c5.375,4.297,10.23,9.143,14.503,14.477l15.595-5.188
			c3.419-1.138,7.141,0.561,8.521,3.892l13.796,33.301c1.381,3.331-0.049,7.164-3.274,8.778l-14.696,7.355
			c0.753,6.805,0.748,13.663-0.016,20.49l14.713,7.367c3.225,1.614,4.654,5.445,3.274,8.778l-13.796,33.313
			c-1.381,3.331-5.102,5.034-8.523,3.892l-15.612-5.196C369.936-399.955,365.124-395.126,359.843-390.88z"/>
	</g>
</g>
</svg>
