<?xml version="1.0" encoding="utf-8"?>
<!-- Generator: Adobe Illustrator 16.0.0, SVG Export Plug-In . SVG Version: 6.00 Build 0)  -->
<!DOCTYPE svg PUBLIC "-//W3C//DTD SVG 1.1//EN" "http://www.w3.org/Graphics/SVG/1.1/DTD/svg11.dtd">
<svg version="1.1" id="Layer_1" xmlns="http://www.w3.org/2000/svg" xmlns:xlink="http://www.w3.org/1999/xlink" x="0px" y="0px"
	 width="600px" height="600px" viewBox="0 0 600 600" enable-background="new 0 0 600 600" xml:space="preserve">
<g>
	<g>
		<g>
			<path fill="#3693D1" d="M3514.852,379.025c-1.01,0-2.039-0.215-3.02-0.663c-3.629-1.67-5.218-5.968-3.545-9.595
				c7.039-15.302,10.543-31.683,10.405-48.683c-0.514-63.061-52.354-114.034-115.305-113.433c-25.68,0.212-49.869,8.72-69.95,24.604
				c-3.13,2.475-7.678,1.946-10.158-1.186c-2.478-3.133-1.945-7.681,1.188-10.158c22.627-17.898,49.875-27.485,78.804-27.723
				c0.355-0.003,0.716-0.003,1.067-0.003c70.555,0,128.242,57.101,128.818,127.783c0.153,19.145-3.795,37.596-11.732,54.844
				C3520.205,377.463,3517.586,379.025,3514.852,379.025z"/>
		</g>
		<g>
			<path fill="#3693D1" d="M3241.975,454.685c-61.872,0-112.617-50.344-113.122-112.224
				c-0.508-62.383,49.835-113.552,112.221-114.063l0.918-0.003c1.203,0,2.412,0.02,3.621,0.062
				c-0.034-45.539,36.802-82.767,82.399-83.137l0.687-0.003c32.107,0,60.917,18.234,74.757,46.872l0.887-0.003
				c67.456,0,122.669,51.225,128.308,117.729c34.298,5.658,60.527,35.714,60.816,71.041c0.157,19.395-7.246,37.688-20.853,51.516
				c-13.604,13.825-31.774,21.525-51.168,21.685c-10.186,0.082-71.959,0.166-137.363,0.257
				c-64.256,0.091-130.703,0.184-141.161,0.271L3241.975,454.685L3241.975,454.685z M3241.991,242.858l-0.8,0.003
				c-54.414,0.446-98.32,45.073-97.876,99.481c0.44,53.972,44.7,97.88,98.659,97.88h0.828c10.508-0.088,76.979-0.181,141.263-0.271
				c62.498-0.085,127.127-0.175,137.262-0.257c15.531-0.127,30.082-6.294,40.978-17.364c10.893-11.073,16.825-25.723,16.696-41.254
				c-0.243-29.999-23.85-55.253-53.737-57.49c-3.67-0.271-6.548-3.263-6.687-6.938c-2.334-61.684-52.514-109.999-114.235-109.999
				l-0.951,0.003c-0.994,0.009-1.976,0.06-2.951,0.11l-1.26,0.062c-3.08,0.125-5.859-1.655-7.019-4.475
				c-10.624-25.861-35.533-42.57-63.462-42.57l-0.57,0.003c-37.83,0.305-68.354,31.333-68.05,69.166
				c0.021,2.11,0.144,4.319,0.373,6.553c0.22,2.17-0.548,4.322-2.096,5.862c-1.548,1.534-3.692,2.302-5.873,2.059
				C3248.996,243.048,3245.466,242.858,3241.991,242.858z"/>
		</g>
	</g>
</g>
<g>
	<g>
		<g>
			<path fill="#3693D1" d="M2608.365,143.982h-96.576c-3.994,0-7.231-3.237-7.231-7.231c0-3.995,3.237-7.231,7.231-7.231h96.576
				c3.994,0,7.23,3.237,7.23,7.231S2612.36,143.982,2608.365,143.982z"/>
		</g>
		<g>
			<path fill="#3693D1" d="M2661.129,498.178h-202.105c-15.073,0-27.333-12.26-27.333-27.333V129.157
				c0-15.07,12.259-27.333,27.333-27.333h202.105c15.073,0,27.336,12.262,27.336,27.333v341.688
				C2688.465,485.918,2676.203,498.178,2661.129,498.178z M2459.024,116.288c-7.096,0-12.87,5.774-12.87,12.87v341.688
				c0,7.098,5.774,12.87,12.87,12.87h202.105c7.096,0,12.873-5.772,12.873-12.87V129.157c0-7.096-5.777-12.87-12.873-12.87
				L2459.024,116.288L2459.024,116.288z"/>
		</g>
		<g>
			<path fill="#3693D1" d="M2623.207,409.14h-148.975c-3.994,0-7.23-3.236-7.23-7.23V168.597c0-3.994,3.236-7.231,7.23-7.231
				h171.691c3.993,0,7.229,3.237,7.229,7.231v208.041c0,3.994-3.236,7.231-7.229,7.231c-3.994,0-7.232-3.237-7.232-7.231v-200.81
				h-157.229v218.849h141.743c3.994,0,7.23,3.237,7.23,7.231S2627.201,409.14,2623.207,409.14z"/>
		</g>
		<g>
			<path fill="#3693D1" d="M2597.621,447.405c0-9.824-7.961-17.79-17.789-17.79h-32.108c-9.822,0-17.788,7.966-17.788,17.79l0,0
				c0,9.825,7.966,17.785,17.788,17.785h32.108C2589.659,465.19,2597.621,457.23,2597.621,447.405L2597.621,447.405z"/>
		</g>
	</g>
</g>
<g>
	<g>
		<path fill="#3693D1" d="M1667.55-244.64h-67.977c-3.995,0-7.23-3.237-7.23-7.231v-44.175c0-3.994,3.237-7.231,7.23-7.231h67.977
			c3.995,0,7.23,3.237,7.23,7.231v44.175C1674.781-247.877,1671.543-244.64,1667.55-244.64z M1606.806-259.103h53.513v-29.712
			h-53.513V-259.103L1606.806-259.103z"/>
	</g>
	<g>
		<path fill="#3693D1" d="M1667.55-318.424h-67.977c-3.995,0-7.23-3.237-7.23-7.231v-44.18c0-3.994,3.237-7.231,7.23-7.231h67.977
			c3.995,0,7.23,3.237,7.23,7.231v44.18C1674.781-321.662,1671.543-318.424,1667.55-318.424z M1606.806-332.887h53.513v-29.717
			h-53.513V-332.887L1606.806-332.887z"/>
	</g>
	<g>
		<path fill="#3693D1" d="M1764.451-244.64h-67.976c-3.994,0-7.231-3.237-7.231-7.231v-44.175c0-3.994,3.237-7.231,7.231-7.231
			h67.976c3.994,0,7.231,3.237,7.231,7.231v44.175C1771.684-247.877,1768.446-244.64,1764.451-244.64z M1703.707-259.103h53.514
			v-29.712h-53.514V-259.103z"/>
	</g>
	<g>
		<path fill="#3693D1" d="M1764.451-318.424h-67.976c-3.994,0-7.231-3.237-7.231-7.231v-44.18c0-3.994,3.237-7.231,7.231-7.231
			h67.976c3.994,0,7.231,3.237,7.231,7.231v44.18C1771.684-321.662,1768.446-318.424,1764.451-318.424z M1703.707-332.887h53.514
			v-29.717h-53.514V-332.887z"/>
	</g>
	<g>
		<path fill="#3693D1" d="M1667.55-392.213h-67.977c-3.993,0-7.23-3.237-7.23-7.231v-44.169c0-3.994,3.237-7.23,7.23-7.23h67.977
			c3.994,0,7.23,3.237,7.23,7.23v44.169C1674.781-395.451,1671.543-392.213,1667.55-392.213z M1606.806-406.676h53.513v-29.706
			h-53.513V-406.676L1606.806-406.676z"/>
	</g>
	<g>
		<path fill="#3693D1" d="M1864.246-244.64h-67.977c-3.994,0-7.232-3.237-7.232-7.231v-44.175c0-3.994,3.238-7.231,7.232-7.231
			h67.977c3.994,0,7.23,3.237,7.23,7.231v44.175C1871.478-247.877,1868.24-244.64,1864.246-244.64z M1803.5-259.103h53.515v-29.712
			H1803.5V-259.103z"/>
	</g>
	<g>
		<path fill="#3693D1" d="M1864.246-318.424h-67.977c-3.994,0-7.232-3.237-7.232-7.231v-44.18c0-3.994,3.238-7.231,7.232-7.231
			h67.977c3.994,0,7.23,3.237,7.23,7.231v44.18C1871.478-321.662,1868.24-318.424,1864.246-318.424z M1803.5-332.887h53.515v-29.717
			H1803.5V-332.887z"/>
	</g>
	<g>
		<path fill="#3693D1" d="M1864.246-392.213h-67.977c-3.994,0-7.232-3.237-7.232-7.231v-44.169c0-3.994,3.238-7.23,7.232-7.23
			h67.977c3.994,0,7.23,3.237,7.23,7.23v44.169C1871.478-395.451,1868.24-392.213,1864.246-392.213z M1803.5-406.676h53.515v-29.706
			H1803.5V-406.676z"/>
	</g>
	<g>
		<path fill="#3693D1" d="M1864.246-465.996h-67.977c-3.994,0-7.232-3.237-7.232-7.231v-44.174c0-3.994,3.238-7.231,7.232-7.231
			h67.977c3.994,0,7.23,3.237,7.23,7.231v44.174C1871.478-469.233,1868.24-465.996,1864.246-465.996z M1803.5-480.459h53.515
			v-29.711H1803.5V-480.459z"/>
	</g>
	<g>
		<path fill="#3693D1" d="M1864.246-539.786h-67.977c-3.994,0-7.232-3.237-7.232-7.231v-44.167c0-3.994,3.238-7.231,7.232-7.231
			h67.977c3.994,0,7.23,3.237,7.23,7.231v44.167C1871.478-543.023,1868.24-539.786,1864.246-539.786z M1803.5-554.249h53.515
			v-29.705H1803.5V-554.249z"/>
	</g>
	<g>
		<path fill="#3693D1" d="M1960.425-244.64h-67.978c-3.994,0-7.229-3.237-7.229-7.231v-44.175c0-3.994,3.235-7.231,7.229-7.231
			h67.978c3.994,0,7.231,3.237,7.231,7.231v44.175C1967.656-247.877,1964.418-244.64,1960.425-244.64z M1899.681-259.103h53.514
			v-29.712h-53.514V-259.103z"/>
	</g>
	<g>
		<path fill="#3693D1" d="M1960.425-318.424h-67.978c-3.994,0-7.229-3.237-7.229-7.231v-44.18c0-3.994,3.235-7.231,7.229-7.231
			h67.978c3.994,0,7.231,3.237,7.231,7.231v44.18C1967.656-321.662,1964.418-318.424,1960.425-318.424z M1899.681-332.887h53.514
			v-29.717h-53.514V-332.887z"/>
	</g>
	<g>
		<path fill="#3693D1" d="M1960.425-392.213h-67.978c-3.994,0-7.229-3.237-7.229-7.231v-44.169c0-3.994,3.235-7.23,7.229-7.23
			h67.978c3.994,0,7.231,3.237,7.231,7.23v44.169C1967.656-395.451,1964.418-392.213,1960.425-392.213z M1899.681-406.676h53.514
			v-29.706h-53.514V-406.676z"/>
	</g>
	<g>
		<path fill="#3693D1" d="M1960.425-465.996h-67.978c-3.994,0-7.229-3.237-7.229-7.231v-44.174c0-3.994,3.235-7.231,7.229-7.231
			h67.978c3.994,0,7.231,3.237,7.231,7.231v44.174C1967.656-469.233,1964.418-465.996,1960.425-465.996z M1899.681-480.459h53.514
			v-29.711h-53.514V-480.459z"/>
	</g>
	<g>
		<path fill="#3693D1" d="M1960.425-539.786h-67.978c-3.994,0-7.229-3.237-7.229-7.231v-44.167c0-3.994,3.235-7.231,7.229-7.231
			h67.978c3.994,0,7.231,3.237,7.231,7.231v44.167C1967.656-543.023,1964.418-539.786,1960.425-539.786z M1899.681-554.249h53.514
			v-29.705h-53.514V-554.249z"/>
	</g>
	<g>
		<path fill="#3693D1" d="M1960.425-613.562h-67.978c-3.994,0-7.229-3.237-7.229-7.231v-44.18c0-3.994,3.235-7.231,7.229-7.231
			h67.978c3.994,0,7.231,3.237,7.231,7.231v44.18C1967.656-616.8,1964.418-613.562,1960.425-613.562z M1899.681-628.025h53.514
			v-29.717h-53.514V-628.025z"/>
	</g>
</g>
<g>
	<g>
		<path fill="#3693D1" d="M-1074.288,1226.146c-2.076,0-4.048-1.176-4.99-3.148l-16.543-34.639
			c-3.782,0.351-7.525,0.531-11.172,0.531h-2.75c-3.695,0-7.385-0.178-11.186-0.531l-16.546,34.639
			c-1.229,2.57-4.212,3.784-6.882,2.812l-39.984-14.562c-2.676-0.973-4.173-3.814-3.464-6.57l9.402-36.591
			c-7.154-4.77-13.785-10.265-19.785-16.395l-34.222,15.564c-2.594,1.175-5.652,0.198-7.078-2.269l-21.283-36.862
			c-1.423-2.467-0.743-5.612,1.575-7.267l30.342-21.679c-2.396-8.368-3.905-16.961-4.5-25.645l-35.962-10.009
			c-2.743-0.764-4.458-3.484-3.964-6.29l7.402-41.909c0.492-2.799,3.018-4.773,5.874-4.549l40.306,3.123
			c3.043,0.235,5.322,2.895,5.085,5.939c-0.238,3.046-2.897,5.303-5.94,5.085l-35.306-2.733l-5.657,32.025l34.96,9.73
			c2.324,0.646,3.96,2.722,4.044,5.132c0.369,10.395,2.176,20.688,5.367,30.591c0.736,2.294-0.091,4.797-2.05,6.197l-29.488,21.069
			l16.263,28.171l33.242-15.119c2.178-0.997,4.75-0.472,6.366,1.296c6.946,7.577,14.912,14.175,23.672,19.608
			c2.054,1.274,3.043,3.732,2.44,6.074l-9.147,35.602l30.558,11.129l16.07-33.646c1.026-2.146,3.324-3.399,5.668-3.105
			c4.775,0.592,9.292,0.882,13.807,0.882h2.75c4.468,0,9.106-0.298,13.789-0.882c2.359-0.293,4.646,0.959,5.673,3.105l16.07,33.646
			l30.593-11.129l-9.165-35.598c-0.603-2.342,0.385-4.8,2.435-6.074c8.755-5.442,16.717-12.044,23.661-19.616
			c1.619-1.764,4.182-2.285,6.365-1.296l33.249,15.123l16.277-28.175l-29.499-21.082c-1.959-1.4-2.786-3.909-2.044-6.203
			c3.169-9.788,4.978-20.077,5.375-30.582c0.09-2.405,1.726-4.476,4.043-5.118l34.96-9.73l-5.652-32.04l-35.315,2.748
			c-2.452,0.187-4.698-1.236-5.582-3.504c-3.884-9.971-9.154-19.328-15.666-27.816c-1.456-1.897-1.527-4.519-0.173-6.493
			l19.799-28.88l-24.918-20.907l-24.804,24.322c-1.725,1.691-4.35,2.067-6.479,0.928c-9.593-5.129-19.799-8.819-30.334-10.965
			c-2.38-0.485-4.164-2.467-4.398-4.884l-3.376-34.666h-32.526l-3.365,34.664c-0.234,2.419-2.02,4.399-4.398,4.886
			c-10.521,2.144-20.729,5.834-30.35,10.97c-2.127,1.14-4.754,0.76-6.476-0.935l-24.782-24.32l-24.943,20.907l19.824,28.878
			c1.729,2.518,1.089,5.959-1.43,7.688c-2.52,1.728-5.957,1.093-7.689-1.428l-22.667-33.02c-1.61-2.348-1.176-5.536,1.006-7.367
			l32.64-27.358c2.179-1.827,5.391-1.706,7.426,0.292l25.517,25.041c8.244-4.062,16.86-7.178,25.704-9.297l3.462-35.666
			c0.274-2.832,2.657-4.994,5.505-4.994h42.562c2.847,0,5.229,2.16,5.504,4.994l3.474,35.666c8.854,2.119,17.469,5.234,25.699,9.297
			l25.536-25.044c2.03-1.995,5.246-2.116,7.426-0.287l32.605,27.359c2.18,1.828,2.616,5.016,1.004,7.362l-20.405,29.766
			c5.249,7.322,9.685,15.188,13.232,23.474l36.297-2.828c2.877-0.211,5.381,1.754,5.875,4.554l7.398,41.925
			c0.493,2.804-1.222,5.524-3.965,6.287l-35.971,10.015c-0.608,8.739-2.117,17.327-4.497,25.626l30.35,21.69
			c2.314,1.659,2.994,4.801,1.571,7.268l-21.298,36.862c-1.426,2.467-4.491,3.442-7.078,2.269l-34.229-15.565
			c-5.998,6.127-12.623,11.616-19.767,16.391l9.421,36.596c0.71,2.756-0.789,5.6-3.466,6.57l-40.024,14.562
			C-1073.02,1226.039-1073.657,1226.146-1074.288,1226.146z"/>
	</g>
	<g>
		<path fill="#3693D1" d="M-1108.362,1118.932c-30.525,0-55.361-24.834-55.361-55.358c0-3.056,2.476-5.529,5.529-5.529
			s5.529,2.475,5.529,5.529c0,24.428,19.875,44.3,44.303,44.3s44.3-19.872,44.3-44.3c0-24.429-19.872-44.302-44.3-44.302
			c-7.146,0.002-13.967,1.646-20.27,4.896c-2.715,1.399-6.047,0.333-7.448-2.385c-1.397-2.713-0.33-6.048,2.385-7.447
			c7.771-4.005,16.53-6.122,25.33-6.124c30.528,0,55.361,24.834,55.361,55.361
			C-1053.003,1094.098-1077.836,1118.932-1108.362,1118.932z"/>
	</g>
</g>
<g>
	<g>
		<path fill="#3693D1" d="M-461.999,1151.672l-75.09-43.349v-86.713l75.09-43.345l75.087,43.345l0.005,86.707L-461.999,1151.672z
			 M-526.442,1102.179l64.444,37.205l64.445-37.21l-0.003-74.419l-64.442-37.2l-64.444,37.2V1102.179z"/>
		<polygon fill="#3693D1" points="-461.999,1071.108 -534.427,1029.291 -529.104,1020.073 -461.999,1058.817 -394.893,1020.073 
			-389.57,1029.291 		"/>
		<rect x="-467.319" y="1064.96" fill="#3693D1" width="10.645" height="80.565"/>
	</g>
	<polygon fill="#3693D1" points="-534.427,1029.291 -553.336,1018.375 -575.166,1018.375 -575.166,1007.731 -550.482,1007.731 
		-529.104,1020.073 	"/>
	<polygon fill="#3693D1" points="-389.573,1029.291 -394.896,1020.073 -373.518,1007.731 -348.834,1007.731 -348.834,1018.375 
		-370.664,1018.375 	"/>
	<polygon fill="#3693D1" points="-354.834,1122.198 -373.518,1122.198 -394.896,1109.855 -389.573,1100.638 -370.664,1111.552 
		-354.834,1111.552 	"/>
	<polygon fill="#3693D1" points="-550.482,1122.198 -575.166,1122.198 -575.166,1111.552 -553.336,1111.552 -534.427,1100.638 
		-529.104,1109.855 	"/>
	<rect x="-467.319" y="955.796" fill="#3693D1" width="10.645" height="32.615"/>
	<rect x="-467.319" y="1145.526" fill="#3693D1" width="10.645" height="32.618"/>
	<g>
		<path fill="#3693D1" d="M-461.999,968.958l-40.417-40.417l40.417-40.417l40.417,40.417L-461.999,968.958z M-487.359,928.541
			l25.362,25.362l25.359-25.36l-25.361-25.362L-487.359,928.541z"/>
		<path fill="#3693D1" d="M-433.42,1229.961h-57.158v-57.156h57.158V1229.961z M-479.931,1219.316h35.868v-35.865h-35.868V1219.316z
			"/>
		<path fill="#3693D1" d="M-569.844,1041.047H-627v-57.158h57.156V1041.047z M-616.354,1030.401h35.868v-35.865h-35.868V1030.401z"
			/>
		<path fill="#3693D1" d="M-325.58,1157.876l-40.416-40.416l40.418-40.418l40.417,40.416L-325.58,1157.876z M-350.942,1117.458
			l25.363,25.363l25.362-25.362l-25.362-25.362L-350.942,1117.458z"/>
		<path fill="#3693D1" d="M-598.421,1099.546c9.876,0,17.911,8.035,17.911,17.911c0,9.878-8.035,17.913-17.911,17.913
			s-17.912-8.035-17.912-17.913C-616.333,1107.582-608.298,1099.546-598.421,1099.546 M-598.421,1088.879
			c-15.784,0-28.579,12.795-28.579,28.578c0,15.784,12.795,28.579,28.579,28.579c15.783,0,28.578-12.795,28.578-28.579
			C-569.844,1101.674-582.638,1088.879-598.421,1088.879L-598.421,1088.879z"/>
		<g>
			<g>
				<defs>
					<polygon id="SVGID_1_" points="-673.985,1042.763 -599.292,1117.458 -673.985,1192.152 					"/>
				</defs>
				<clipPath id="SVGID_2_">
					<use xlink:href="#SVGID_1_"  overflow="visible"/>
				</clipPath>
				<g clip-path="url(#SVGID_2_)">
					<g>
						<path fill="#3693D1" d="M-598.421,1168.969c-28.404,0-51.513-23.107-51.513-51.512s23.108-51.512,51.513-51.512
							c28.403,0,51.512,23.107,51.512,51.512S-570.018,1168.969-598.421,1168.969z M-598.421,1076.946
							c-22.339,0-40.513,18.174-40.513,40.512s18.173,40.512,40.513,40.512c22.339,0,40.512-18.174,40.512-40.512
							S-576.083,1076.946-598.421,1076.946z"/>
					</g>
					<g>
						<path fill="#3693D1" d="M-598.421,1192.152c-41.188,0-74.694-33.509-74.694-74.694s33.508-74.694,74.694-74.694
							c41.186,0,74.693,33.509,74.693,74.694S-557.235,1192.152-598.421,1192.152z M-598.421,1053.763
							c-35.121,0-63.694,28.573-63.694,63.694s28.573,63.693,63.694,63.693c35.12,0,63.693-28.572,63.693-63.693
							S-563.3,1053.763-598.421,1053.763z"/>
					</g>
				</g>
			</g>
		</g>
		<path fill="#3693D1" d="M-325.579,994.556c9.876,0,17.912,8.035,17.912,17.911c0,9.878-8.036,17.913-17.912,17.913
			s-17.912-8.035-17.912-17.913C-343.491,1002.591-335.455,994.556-325.579,994.556 M-325.579,983.889
			c-15.784,0-28.579,12.795-28.579,28.578c0,15.784,12.795,28.579,28.579,28.579S-297,1028.251-297,1012.467
			C-297,996.684-309.795,983.889-325.579,983.889L-325.579,983.889z"/>
	</g>
</g>
<g>
	<g>
		<g>
			<path fill="#3693D1" d="M19.674,1058.177c-12.262,0-22.238-9.977-22.238-22.237c0-12.264,9.978-22.238,22.238-22.238
				s22.238,9.976,22.238,22.238C41.912,1048.201,31.936,1058.177,19.674,1058.177z M19.674,1017.586
				c-10.119,0-18.353,8.233-18.353,18.354c0,10.119,8.232,18.352,18.353,18.352s18.352-8.232,18.352-18.352
				C38.026,1025.819,29.793,1017.586,19.674,1017.586z"/>
			<polygon fill="#3693D1" points="17.234,1044.873 8.367,1036.007 11.115,1033.259 17.234,1039.376 28.232,1028.379 
				30.979,1031.126 			"/>
		</g>
		<g>
			<path fill="#3693D1" d="M39.105,1094.018h-52.25c-5.834,0-10.58-4.744-10.58-10.578v-95c0-5.834,4.746-10.58,10.58-10.58h65.638
				c5.834,0,10.579,4.745,10.579,10.58v23.75h-3.887v-23.75c0-3.691-3.004-6.693-6.692-6.693h-65.638
				c-3.69,0-6.692,3.002-6.692,6.693v95c0,3.689,3.002,6.693,6.692,6.693h52.25V1094.018z"/>
			<polygon fill="#3693D1" points="39.105,1068.972 -15.951,1068.972 -15.951,1002.905 55.299,1002.905 55.299,1012.189 
				51.412,1012.189 51.412,1006.791 -12.064,1006.791 -12.064,1065.086 39.105,1065.086 			"/>
			<rect x="-21.781" y="995.132" fill="#3693D1" width="82.91" height="3.886"/>
			<rect x="-21.781" y="1072.859" fill="#3693D1" width="60.887" height="3.887"/>
			<rect x="17.73" y="986.496" fill="#3693D1" width="3.888" height="3.887"/>
			<rect x="11.037" y="1081.497" fill="#3693D1" width="17.272" height="3.887"/>
		</g>
		<g>
			<path fill="#3693D1" d="M90.275,1094.018H43.207v-47.066h47.067V1094.018z M47.094,1090.133h39.295v-39.297H47.094V1090.133z"/>
			<rect x="45.15" y="1081.497" fill="#3693D1" width="43.183" height="3.887"/>
			<path fill="#3693D1" d="M82.072,1050.836H51.412v-20.943c0-4.095,1.596-7.943,4.489-10.839c2.896-2.896,6.744-4.489,10.841-4.489
				c4.094,0,7.944,1.595,10.84,4.489c2.895,2.896,4.489,6.744,4.489,10.839V1050.836z M55.299,1046.951h22.887v-17.059
				c0-3.056-1.19-5.93-3.352-8.091c-2.162-2.162-5.035-3.352-8.092-3.352c-3.058,0-5.931,1.188-8.093,3.352
				c-2.162,2.161-3.352,5.035-3.352,8.091L55.299,1046.951L55.299,1046.951z"/>
			<g>
				<path fill="#3693D1" d="M66.742,1069.836c-3.453,0-6.263-2.809-6.263-6.262c0-3.452,2.81-6.261,6.263-6.261
					c3.452,0,6.262,2.809,6.262,6.261C73.004,1067.028,70.195,1069.836,66.742,1069.836z M66.742,1061.2
					c-1.312,0-2.375,1.064-2.375,2.375c0,1.31,1.063,2.375,2.375,2.375c1.309,0,2.375-1.065,2.375-2.375
					C69.117,1062.265,68.051,1061.2,66.742,1061.2z"/>
				<rect x="64.799" y="1067.893" fill="#3693D1" width="3.887" height="6.909"/>
			</g>
		</g>
	</g>
</g>
<g>
	<g>
		<path fill="#3693D1" d="M1780,465.004c-90.987,0-165-74.021-165-165c0-90.989,74.013-165,165-165c90.979,0,165,74.011,165,165
			h-15.391c0-82.496-67.114-149.618-149.609-149.618c-82.496,0-149.617,67.122-149.617,149.618
			c0,82.495,67.121,149.608,149.617,149.608V465.004z"/>
		<g>
			<path fill="#3693D1" d="M1944.807,308.061l-15.367-0.727c0.116-2.428,0.17-4.871,0.17-7.33H1945
				C1945,302.703,1944.938,305.395,1944.807,308.061z"/>
			<path fill="#3693D1" d="M1804.3,463.225l-2.25-15.227c4.826-0.712,9.675-1.67,14.399-2.855l3.736,14.929
				C1814.965,461.377,1809.619,462.436,1804.3,463.225z M1835.675,455.376l-5.189-14.485c4.57-1.642,9.134-3.533,13.549-5.632
				l6.589,13.905C1845.752,451.479,1840.726,453.566,1835.675,455.376z M1864.894,441.525l-7.927-13.195
				c4.168-2.506,8.268-5.25,12.195-8.167l9.173,12.352C1874.012,435.732,1869.487,438.762,1864.894,441.525z M1890.841,422.236
				l-10.341-11.399c3.619-3.278,7.107-6.774,10.379-10.386l11.399,10.34C1898.675,414.765,1894.83,418.617,1890.841,422.236z
				 M1912.557,398.286l-12.358-9.181c2.908-3.905,5.653-8.021,8.167-12.204l13.194,7.927
				C1918.782,389.438,1915.759,393.968,1912.557,398.286z M1929.199,370.551l-13.906-6.596c2.082-4.395,3.977-8.957,5.623-13.559
				l14.485,5.188C1933.584,360.667,1931.496,365.702,1929.199,370.551z M1940.104,340.073l-14.934-3.721
				c1.175-4.732,2.135-9.573,2.846-14.399l15.22,2.234C1942.455,329.508,1941.404,334.852,1940.104,340.073z"/>
			<path fill="#3693D1" d="M1780,465.004v-15.392c2.459,0,4.902-0.055,7.332-0.169l0.727,15.365
				C1785.391,464.934,1782.698,465.004,1780,465.004z"/>
		</g>
	</g>
	<g>
		<path fill="#3693D1" d="M1779.969,427.944c-70.548,0-127.94-57.394-127.94-127.939c0-70.547,57.393-127.94,127.94-127.94h7.693
			v124.753l88.204,88.205l-5.443,5.438C1846.255,414.634,1814.129,427.944,1779.969,427.944z M1772.274,187.718
			c-58.482,3.968-104.854,52.812-104.854,112.286c0,62.056,50.485,112.55,112.55,112.55c27.47,0,53.448-9.791,73.95-27.718
			l-81.646-81.646V187.718z"/>
		<g>
			<rect x="1681.681" y="292.31" fill="#3693D1" width="15.39" height="15.388"/>
			<rect x="1712.461" y="292.31" fill="#3693D1" width="15.39" height="15.388"/>
			<rect x="1743.233" y="292.31" fill="#3693D1" width="15.391" height="15.388"/>
		</g>
		<path fill="#3693D1" d="M1907.948,307.692h-97.189v-15.391h81.537c-3.256-47.826-36.674-88.792-83.501-101.136l3.92-14.879
			c56.069,14.78,95.233,65.653,95.233,123.71V307.692L1907.948,307.692z"/>
	</g>
</g>
<g>
	<g>
		<path fill="#3693D1" d="M1631.834,1326.306c-39.549-39.631-61.332-92.248-61.332-148.157c0-106.04,79.288-195.472,184.43-208.026
			l1.727,14.458c-97.822,11.679-171.602,94.896-171.602,193.568c0,52.03,20.274,100.989,57.088,137.869L1631.834,1326.306z"/>
		<path fill="#3693D1" d="M1780,1007.475c-17.394,0-31.545-14.15-31.545-31.551c0-17.394,14.151-31.545,31.545-31.545
			c17.393,0,31.543,14.151,31.543,31.545C1811.543,993.324,1797.393,1007.475,1780,1007.475z M1780,958.941
			c-9.366,0-16.99,7.624-16.99,16.982c0,9.365,7.624,16.99,16.99,16.99c9.365,0,16.982-7.625,16.982-16.99
			C1796.983,966.565,1789.365,958.941,1780,958.941z"/>
	</g>
	<g>
		<path fill="#3693D1" d="M1805.068,1386.175l-1.727-14.461c97.822-11.684,171.595-94.901,171.595-193.565
			c0-52.024-20.27-100.991-57.082-137.863l10.31-10.287c39.55,39.622,61.332,92.24,61.332,148.15
			C1989.496,1284.181,1910.209,1373.611,1805.068,1386.175z"/>
		<path fill="#3693D1" d="M1780,1411.908c-17.394,0-31.545-14.15-31.545-31.543c0-17.394,14.151-31.545,31.545-31.545
			c17.393,0,31.543,14.151,31.543,31.545C1811.543,1397.758,1797.393,1411.908,1780,1411.908z M1780,1363.38
			c-9.366,0-16.99,7.617-16.99,16.984c0,9.364,7.624,16.989,16.99,16.989c9.365,0,16.982-7.625,16.982-16.989
			C1796.983,1370.998,1789.365,1363.38,1780,1363.38z"/>
	</g>
	<g>
		<path fill="#3693D1" d="M1780,1334.259c-86.086,0-156.111-70.032-156.111-156.11c0-86.088,70.025-156.111,156.111-156.111
			c86.078,0,156.11,70.024,156.11,156.111h-14.561c0-78.053-63.499-141.559-141.551-141.559
			c-78.051,0-141.557,63.506-141.557,141.559c0,78.051,63.505,141.549,141.557,141.549L1780,1334.259L1780,1334.259z"/>
		<g>
			<path fill="#3693D1" d="M1935.928,1185.771l-14.539-0.688c0.109-2.297,0.161-4.609,0.161-6.937h14.561
				C1936.111,1180.701,1936.053,1183.248,1935.928,1185.771z"/>
			<path fill="#3693D1" d="M1802.99,1332.576l-2.129-14.406c4.566-0.674,9.154-1.58,13.625-2.701l3.534,14.123
				C1813.08,1330.828,1808.024,1331.83,1802.99,1332.576z M1832.676,1325.15l-4.91-13.705c4.324-1.553,8.641-3.344,12.818-5.328
				l6.234,13.156C1842.209,1321.462,1837.453,1323.438,1832.676,1325.15z M1860.32,1312.044l-7.5-12.484
				c3.944-2.37,7.822-4.967,11.539-7.727l8.678,11.686C1868.947,1306.564,1864.666,1309.431,1860.32,1312.044z M1884.869,1293.794
				l-9.782-10.785c3.424-3.102,6.724-6.41,9.818-9.826l10.786,9.783C1892.281,1286.726,1888.645,1290.371,1884.869,1293.794z
				 M1905.416,1271.134l-11.692-8.686c2.751-3.695,5.349-7.588,7.727-11.547l12.483,7.5
				C1911.306,1262.763,1908.445,1267.05,1905.416,1271.134z M1921.162,1244.895l-13.156-6.24c1.969-4.156,3.762-8.476,5.319-12.828
				l13.705,4.91C1925.311,1235.542,1923.334,1240.306,1921.162,1244.895z M1931.479,1216.058l-14.129-3.52
				c1.112-4.479,2.02-9.06,2.691-13.625l14.4,2.115C1933.703,1206.062,1932.709,1211.119,1931.479,1216.058z"/>
			<path fill="#3693D1" d="M1780,1334.259v-14.562c2.326,0,4.639-0.051,6.937-0.16l0.688,14.539
				C1785.1,1334.193,1782.554,1334.259,1780,1334.259z"/>
		</g>
	</g>
	<g>
		<path fill="#3693D1" d="M1779.971,1299.195c-66.747,0-121.047-54.302-121.047-121.047c0-66.747,54.3-121.049,121.047-121.049
			h7.279v118.033l83.452,83.452l-5.15,5.146C1842.686,1286.604,1812.291,1299.195,1779.971,1299.195z M1772.69,1071.911
			c-55.333,3.754-99.206,49.968-99.206,106.237c0,58.713,47.766,106.485,106.486,106.485c25.989,0,50.568-9.264,69.967-26.225
			l-77.247-77.248V1071.911z"/>
		<g>
			<rect x="1686.977" y="1170.868" fill="#3693D1" width="14.561" height="14.56"/>
			<rect x="1716.1" y="1170.868" fill="#3693D1" width="14.561" height="14.56"/>
			<rect x="1745.214" y="1170.868" fill="#3693D1" width="14.562" height="14.56"/>
		</g>
		<path fill="#3693D1" d="M1901.055,1185.421H1809.1v-14.561h77.145c-3.08-45.25-34.697-84.01-79.003-95.688l3.709-14.078
			c53.05,13.984,90.104,62.116,90.104,117.046V1185.421z"/>
	</g>
</g>
<g id="Network_2_">
	<g id="Globe_6_">
		<g>
			<path fill="#3693D1" d="M1044,465.002c-90.98,0-165-74.016-165-165.001c0-90.984,74.02-165.004,165-165.004
				c90.979,0,165,74.02,165,165.004C1209,390.987,1134.98,465.002,1044,465.002z M1044,146.309
				c-84.748,0-153.691,68.943-153.691,153.692c0,84.745,68.944,153.693,153.691,153.693c84.742,0,153.687-68.948,153.687-153.693
				C1197.687,215.252,1128.742,146.309,1044,146.309z"/>
		</g>
		<g>
			<path fill="#3693D1" d="M925.986,403.861c-2.696,0-5.351-0.081-7.984-0.26l0.735-11.284
				c50.725,3.304,114.856-28.526,155.844-77.488c38.006-45.396,51.554-100.258,38.14-154.479l10.977-2.714
				c14.3,57.814-0.062,116.217-40.442,164.457C1042.195,371.134,978.686,403.861,925.986,403.861z"/>
		</g>
		<g>
			<path fill="#3693D1" d="M1128.83,440.01l-10.617-3.888c17.058-46.569,7.056-96.05-28.16-139.318
				c-44.528-54.714-118.14-86.623-179.062-77.647l-1.653-11.186c64.65-9.52,142.575,24.047,189.488,81.691
				C1136.659,336.155,1147.32,389.551,1128.83,440.01z"/>
		</g>
		<g>
			<path fill="#3693D1" d="M1004.273,459.243c-63.319-64.863-71.961-130.459-68.062-174.066
				c6.407-71.725,47.96-125.16,81.595-149.129l6.564,9.212c-31.681,22.571-70.826,73.026-76.897,140.924
				c-3.688,41.24,4.583,103.374,64.895,165.158L1004.273,459.243z"/>
		</g>
		<g>
			<path fill="#3693D1" d="M1038.202,412.708c-66.491,0-123.178-27.98-155.111-77.775l9.52-6.107
				c34.153,53.254,99.063,79.746,173.607,70.884c63.433-7.54,116.816-39.009,129.819-76.521l10.682,3.708
				c-14.362,41.447-71.593,76.01-139.168,84.046C1057.594,412.126,1047.795,412.708,1038.202,412.708z"/>
		</g>
	</g>
	<g>
		<path fill="#3693D1" d="M1123.189,297.97c0,14.267-11.567,25.833-25.832,25.833c-14.269,0-25.831-11.565-25.831-25.833
			c0-14.264,11.562-25.829,25.831-25.829C1111.621,272.141,1123.189,283.707,1123.189,297.97z"/>
	</g>
	<g>
		<path fill="#3693D1" d="M988.055,215.974c0,14.222-11.531,25.751-25.753,25.751c-14.217,0-25.748-11.529-25.748-25.751
			c0-14.223,11.531-25.752,25.748-25.752C976.524,190.222,988.055,201.751,988.055,215.974z"/>
	</g>
	<g>
		<path fill="#3693D1" d="M986.728,393.435c0,13.491-10.936,24.427-24.426,24.427c-13.486,0-24.427-10.936-24.427-24.427
			c0-13.487,10.94-24.427,24.427-24.427C975.791,369.008,986.728,379.947,986.728,393.435z"/>
	</g>
	<g>
		<path fill="#3693D1" d="M1157.431,387.783c0,14.039-11.376,25.422-25.417,25.422s-25.422-11.383-25.422-25.422
			c0-14.044,11.381-25.423,25.422-25.423S1157.431,373.739,1157.431,387.783z"/>
	</g>
</g>
<g>
	<path fill="#3693D1" d="M1097.358,329.189c-17.393,0-31.544-14.15-31.544-31.543s14.151-31.545,31.544-31.545
		s31.544,14.152,31.544,31.545S1114.75,329.189,1097.358,329.189z"/>
	<path fill="#FFFFFF" d="M1097.358,280.662c-9.366,0-16.99,7.617-16.99,16.984c0,9.365,7.624,16.99,16.99,16.99
		s16.983-7.625,16.983-16.99C1114.341,288.279,1106.724,280.662,1097.358,280.662z"/>
</g>
<g>
	<path fill="#3693D1" d="M962.301,247.518c-17.394,0-31.544-14.15-31.544-31.543s14.15-31.545,31.544-31.545
		c17.393,0,31.544,14.152,31.544,31.545S979.694,247.518,962.301,247.518z"/>
	<path fill="#FFFFFF" d="M962.301,198.99c-9.366,0-16.99,7.617-16.99,16.984c0,9.365,7.624,16.99,16.99,16.99
		s16.982-7.625,16.982-16.99C979.284,206.607,971.666,198.99,962.301,198.99z"/>
</g>
<g>
	<path fill="#3693D1" d="M962.301,424.979c-17.394,0-31.544-14.149-31.544-31.543c0-17.393,14.15-31.545,31.544-31.545
		c17.393,0,31.544,14.152,31.544,31.545C993.845,410.829,979.694,424.979,962.301,424.979z"/>
	<path fill="#FFFFFF" d="M962.301,376.452c-9.366,0-16.99,7.617-16.99,16.983c0,9.365,7.624,16.99,16.99,16.99
		s16.982-7.625,16.982-16.99C979.284,384.069,971.666,376.452,962.301,376.452z"/>
</g>
<g>
	<path fill="#3693D1" d="M1132.012,419.327c-17.394,0-31.544-14.15-31.544-31.543c0-17.394,14.15-31.545,31.544-31.545
		c17.393,0,31.544,14.151,31.544,31.545C1163.556,405.177,1149.405,419.327,1132.012,419.327z"/>
	<path fill="#FFFFFF" d="M1132.012,370.799c-9.366,0-16.99,7.617-16.99,16.984c0,9.365,7.624,16.99,16.99,16.99
		c9.365,0,16.982-7.625,16.982-16.99C1148.994,378.417,1141.377,370.799,1132.012,370.799z"/>
</g>
<g>
	<path fill="#3693D1" d="M-1162,465.002c-90.98,0-165-74.016-165-165.001c0-90.984,74.02-165.004,165-165.004
		c90.979,0,165,74.02,165,165.004C-997,390.987-1071.02,465.002-1162,465.002z M-1162,146.309
		c-84.748,0-153.691,68.943-153.691,153.692c0,84.745,68.944,153.693,153.691,153.693c84.743,0,153.687-68.948,153.687-153.693
		C-1008.313,215.252-1077.257,146.309-1162,146.309z"/>
</g>
<g>
	<g>
		<defs>
			<path id="SVGID_3_" d="M-1162,440.002c-77.195,0-140-62.802-140-140.001s62.805-140.003,140-140.003
				c77.194,0,140,62.804,140,140.003S-1084.805,440.002-1162,440.002z"/>
		</defs>
		<clipPath id="SVGID_4_">
			<use xlink:href="#SVGID_3_"  overflow="visible"/>
		</clipPath>
		<g clip-path="url(#SVGID_4_)">
			<g>
				<path fill="#3693D1" d="M-1279.058,262.837c-1.422-1.512-1.917-3.753-1.126-5.792l13.889-35.786
					c-2.849-2.515-5.546-5.116-8.044-7.771l-1.886-2.002c-2.532-2.691-4.932-5.5-7.277-8.51l-36.564,11.69
					c-2.714,0.867-5.642-0.474-6.764-3.085l-16.799-39.098c-1.126-2.614-0.081-5.652,2.412-7.025l33.09-18.23
					c-1.431-8.479-1.974-17.074-1.621-25.644l-34.789-14.253c-2.633-1.083-4.018-3.98-3.199-6.709l12.257-40.762
					c0.821-2.728,3.579-4.388,6.372-3.833l36.581,7.239c4.451-7.481,9.674-14.468,15.591-20.853l-17.356-33.047
					c-1.325-2.521-0.519-5.635,1.863-7.198l35.594-23.331c2.375-1.559,5.543-1.073,7.337,1.16l25.349,31.492
					c1.914,2.378,1.54,5.86-0.84,7.774c-2.382,1.914-5.848,1.524-7.775-0.841l-22.204-27.584l-27.199,17.829l16.873,32.127
					c1.123,2.135,0.731,4.749-0.965,6.461c-7.317,7.394-13.575,15.762-18.6,24.874c-1.166,2.108-3.555,3.222-5.918,2.755
					l-35.553-7.034l-9.37,31.149l33.793,13.845c2.218,0.902,3.599,3.137,3.419,5.523c-0.758,10.253-0.102,20.574,1.944,30.678
					c0.479,2.369-0.633,4.774-2.751,5.94l-32.195,17.737l12.839,29.879l35.516-11.355c2.267-0.724,4.753,0.091,6.146,1.999
					c2.842,3.883,5.728,7.371,8.821,10.659l1.885,2.003c3.062,3.253,6.457,6.427,10.092,9.437c1.831,1.518,2.486,4.041,1.626,6.26
					l-13.486,34.761l29.069,14.652l19.643-31.071c1.293-2.044,3.758-3.01,6.091-2.391c9.964,2.645,20.227,3.919,30.501,3.786
					c2.394-0.028,4.53,1.479,5.307,3.748l11.773,34.577l31.673-7.455l-4.865-35.93c-0.323-2.387,0.938-4.708,3.116-5.74
					c9.301-4.401,18.032-10.135,25.954-17.045c1.813-1.584,4.441-1.811,6.499-0.564l31.045,18.79l19.458-26.075l-26.205-23.834
					c-1.816-1.659-2.319-4.269-1.274-6.466c4.6-9.662,7.803-19.913,9.521-30.472c0.385-2.361,2.243-4.209,4.609-4.576l34.601-5.374
					l-1.852-32.476l-34.712-1.393c-2.413-0.096-4.485-1.75-5.113-4.082c-2.841-10.5-7.146-20.462-12.806-29.604
					c-1.277-2.067-1.058-4.724,0.541-6.552l22.932-26.216l-22.291-23.687l-27.551,21.306c-1.923,1.486-4.587,1.544-6.572,0.144
					c-8.771-6.192-18.455-11.097-28.787-14.583c-2.288-0.768-3.812-2.941-3.759-5.355l0.729-34.715l-32.321-3.835l-7.442,34.227
					c-0.648,2.984-3.594,4.877-6.579,4.228c-2.983-0.65-4.878-3.589-4.229-6.579l8.51-39.135c0.605-2.782,3.227-4.65,6.056-4.316
					l42.292,5.018c2.824,0.334,4.937,2.756,4.877,5.608l-0.748,35.743c8.606,3.22,16.782,7.359,24.386,12.347l28.346-21.922
					c2.25-1.741,5.458-1.488,7.409,0.585l29.171,30.996c1.951,2.073,2.01,5.287,0.136,7.431l-23.594,26.973
					c4.525,7.9,8.159,16.309,10.844,25.087l35.738,1.432c2.845,0.111,5.137,2.37,5.298,5.211l2.423,42.495
					c0.161,2.841-1.86,5.343-4.675,5.777l-35.659,5.54c-1.735,8.841-4.426,17.462-8.025,25.724l26.935,24.494
					c2.125,1.95,2.411,5.121,0.71,7.399l-25.459,34.12c-1.702,2.282-4.86,2.898-7.296,1.423l-31.943-19.332
					c-6.782,5.546-14.069,10.333-21.744,14.288l5.003,36.966c0.378,2.824-1.442,5.471-4.214,6.125l-41.441,9.754
					c-2.772,0.651-5.585-0.911-6.503-3.601l-12.123-35.594c-8.572-0.169-17.11-1.23-25.48-3.161l-20.195,31.94
					c-1.521,2.405-4.617,3.262-7.159,1.979l-38.036-19.167C-1278.11,263.685-1278.625,263.296-1279.058,262.837z"/>
			</g>
			<g>
				<path fill="#3693D1" d="M-1224.333,164.544c-20.92-22.229-19.856-57.335,2.372-78.255c2.225-2.094,5.723-1.988,7.815,0.237
					c2.094,2.225,1.987,5.723-0.237,7.816c-17.788,16.742-18.639,44.834-1.896,62.623s44.832,18.641,62.621,1.9
					c17.789-16.741,18.642-44.833,1.9-62.622c-4.898-5.202-10.771-9.042-17.457-11.405c-2.879-1.018-4.386-4.175-3.367-7.059
					c1.017-2.877,4.178-4.385,7.058-3.367c8.243,2.914,15.787,7.841,21.819,14.249c20.923,22.231,19.856,57.335-2.374,78.256
					C-1168.31,187.838-1203.414,186.774-1224.333,164.544z"/>
			</g>
		</g>
	</g>
	<g>
		<defs>
			<path id="SVGID_5_" d="M-1162,440.002c-77.195,0-140-62.802-140-140.001s62.805-140.003,140-140.003
				c77.194,0,140,62.804,140,140.003S-1084.805,440.002-1162,440.002z"/>
		</defs>
		<clipPath id="SVGID_6_">
			<use xlink:href="#SVGID_5_"  overflow="visible"/>
		</clipPath>
		<g clip-path="url(#SVGID_6_)">
			<g>
				<path fill="#3693D1" d="M-1279.752,388.945c1.375-1.557,3.562-2.254,5.664-1.652l36.907,10.552
					c2.243-3.063,4.586-5.989,7.001-8.721l1.821-2.062c2.449-2.769,5.025-5.413,7.809-8.025l-14.988-35.34
					c-1.112-2.624-0.045-5.662,2.452-7.019l37.396-20.309c2.5-1.36,5.622-0.599,7.217,1.757l21.184,31.283
					c8.312-2.2,16.82-3.527,25.387-3.963l11.008-35.946c0.838-2.722,3.596-4.366,6.388-3.801l41.714,8.475
					c2.79,0.568,4.696,3.161,4.399,5.993l-3.858,37.09c7.856,3.747,15.293,8.311,22.191,13.616l31.32-20.312
					c2.388-1.55,5.562-1.03,7.338,1.197l26.492,33.308c1.77,2.224,1.577,5.423-0.483,7.414l-29.039,28.125
					c-2.192,2.124-5.693,2.068-7.817-0.125c-2.125-2.196-2.055-5.684,0.126-7.819l25.435-24.637l-20.244-25.453l-30.447,19.744
					c-2.023,1.312-4.662,1.164-6.523-0.37c-8.032-6.608-16.938-12.073-26.472-16.242c-2.206-0.969-3.534-3.246-3.284-5.643
					l3.748-36.048l-31.876-6.478l-10.694,34.919c-0.696,2.292-2.794,3.87-5.188,3.911c-10.278,0.185-20.497,1.781-30.37,4.744
					c-2.315,0.693-4.812-0.193-6.167-2.196l-20.611-30.436L-1223.397,344l14.561,34.325c0.929,2.189,0.345,4.741-1.427,6.304
					c-3.606,3.186-6.816,6.376-9.808,9.759l-1.821,2.061c-2.959,3.347-5.809,7.02-8.473,10.914
					c-1.343,1.962-3.796,2.847-6.085,2.191l-35.849-10.248l-11.93,30.289l32.739,16.715c2.153,1.102,3.341,3.469,2.938,5.849
					c-1.723,10.164-2.053,20.501-0.979,30.72c0.247,2.382-1.058,4.646-3.246,5.628l-33.354,14.889l10.325,30.858l35.333-8.135
					c2.348-0.538,4.773,0.503,6.001,2.578c5.232,8.858,11.742,17.027,19.35,24.283c1.742,1.662,2.21,4.259,1.157,6.422
					l-15.869,32.635l27.747,16.989l21.335-28.277c1.484-1.96,4.038-2.699,6.321-1.859c10.043,3.693,20.543,5.945,31.217,6.688
					c2.387,0.167,4.396,1.85,4.979,4.173l8.521,33.962l32.169-4.816l-1.791-34.693c-0.125-2.411,1.332-4.627,3.596-5.466
					c10.197-3.79,19.722-8.991,28.308-15.464c1.94-1.46,4.606-1.483,6.573-0.061l28.205,20.435l21.546-24.366l-23.739-25.482
					c-1.656-1.779-1.958-4.428-0.746-6.532c5.364-9.3,9.361-19.394,11.887-30.001c0.555-2.349,2.58-4.063,4.988-4.232l34.637-2.454
					l0.859-32.536l-34.766-4.277c-3.03-0.372-5.186-3.132-4.812-6.164c0.374-3.03,3.128-5.187,6.163-4.813l39.751,4.891
					c2.826,0.35,4.927,2.786,4.854,5.634l-1.125,42.575c-0.074,2.842-2.292,5.168-5.137,5.369l-35.662,2.527
					c-2.419,8.865-5.792,17.387-10.062,25.415l24.426,26.219c1.94,2.081,1.981,5.299,0.096,7.432l-28.194,31.886
					c-1.886,2.134-5.081,2.485-7.388,0.815l-29.02-21.024c-7.453,5.229-15.493,9.618-23.988,13.096l1.846,35.719
					c0.149,2.844-1.89,5.333-4.704,5.753l-42.094,6.304c-2.814,0.422-5.49-1.361-6.182-4.125l-8.78-35.003
					c-8.963-0.919-17.793-2.809-26.351-5.638l-21.925,29.065c-1.748,2.295-4.879,2.868-7.304,1.386l-36.309-22.229
					c-2.428-1.485-3.33-4.573-2.084-7.135l16.325-33.581c-6.143-6.244-11.578-13.062-16.219-20.343l-36.353,8.366
					c-2.777,0.636-5.581-0.937-6.485-3.637l-13.506-40.373c-0.904-2.7,0.395-5.645,2.987-6.804l34.334-15.332
					c-0.615-8.552-0.34-17.15,0.816-25.664l-33.656-17.185c-2.534-1.294-3.671-4.301-2.626-6.948l15.604-39.632
					C-1280.511,389.966-1280.169,389.417-1279.752,388.945z"/>
			</g>
			<g>
				<path fill="#3693D1" d="M-1176.863,434.439c20.221-22.867,55.277-25.022,78.145-4.803c2.288,2.023,2.504,5.517,0.479,7.805
					c-2.023,2.289-5.516,2.503-7.805,0.479c-18.3-16.182-46.353-14.455-62.533,3.844c-16.183,18.301-14.458,46.352,3.841,62.532
					c18.301,16.182,46.353,14.458,62.534-3.842c4.73-5.354,8.017-11.554,9.758-18.428c0.749-2.96,3.756-4.749,6.721-4
					c2.958,0.75,4.749,3.76,4,6.72c-2.147,8.476-6.363,16.438-12.19,23.032c-20.223,22.87-55.277,25.022-78.146,4.802
					C-1194.928,492.361-1197.083,457.306-1176.863,434.439z"/>
			</g>
		</g>
	</g>
</g>
<g>
	<g>
		<path fill="#3693D1" d="M-462.003,341.223c-22.742,0-41.246-18.506-41.246-41.25c0-22.746,18.504-41.25,41.246-41.25
			c22.747,0,41.25,18.504,41.25,41.25C-420.753,322.717-439.257,341.223-462.003,341.223z M-462.003,272.473
			c-15.161,0-27.495,12.336-27.495,27.5c0,15.163,12.334,27.5,27.495,27.5c15.163,0,27.5-12.337,27.5-27.5
			C-434.503,284.809-446.84,272.473-462.003,272.473z"/>
	</g>
	<g>
		<path fill="#3693D1" d="M-352,458.152c-0.976,0-1.953-0.208-2.873-0.63c-2.438-1.123-4.001-3.562-4.001-6.245v-6.876h-110
			c-75.817,0-137.498-61.684-137.498-137.499c0-7.298,0.576-14.619,1.712-21.76l13.58,2.162c-1.024,6.427-1.542,13.021-1.542,19.598
			c0,68.234,55.514,123.749,123.749,123.749H-352c3.416,0,6.25,2.488,6.784,5.755l30.208-25.893l-30.116-21.545v0.377
			c0,3.797-3.078,6.875-6.875,6.875h-68.749c-3.903,0-35.188-0.129-53.136-4.119l-7.042,14.072c-1.614,3.227-5.446,4.655-8.78,3.273
			l-33.309-13.805c-3.331-1.382-5.029-5.102-3.891-8.522l5.195-15.605c-5.376-4.293-10.23-9.139-14.503-14.477l-15.588,5.194
			c-3.427,1.141-7.146-0.562-8.526-3.894l-13.796-33.312c-1.38-3.332,0.05-7.165,3.274-8.779l14.695-7.354
			c-0.752-6.805-0.747-13.663,0.016-20.492l-14.712-7.367c-3.225-1.614-4.653-5.446-3.273-8.778l13.796-33.299
			c1.381-3.333,5.102-5.031,8.523-3.892l15.609,5.196c4.258-5.324,9.069-10.152,14.351-14.398l8.614,10.717
			c-5.624,4.52-10.624,9.821-14.862,15.757c-1.755,2.458-4.905,3.482-7.768,2.528l-14.216-4.731l-8.896,21.474l13.4,6.708
			c2.699,1.352,4.2,4.306,3.702,7.282c-1.453,8.688-1.46,17.471-0.018,26.106c0.496,2.975-1.007,5.928-3.705,7.279l-13.38,6.694
			l8.898,21.484l14.193-4.73c2.865-0.952,6.019,0.073,7.771,2.533c5.07,7.11,11.284,13.315,18.471,18.438
			c2.458,1.754,3.484,4.904,2.531,7.77l-4.73,14.217l21.48,8.901l6.703-13.396c1.554-3.104,5.178-4.562,8.448-3.401
			c11.089,3.936,40.469,4.976,54.457,4.976h61.874v-6.876c0-2.575,1.439-4.936,3.73-6.112c2.291-1.178,5.048-0.977,7.145,0.523
			l48.125,34.428c1.719,1.229,2.775,3.18,2.869,5.291c0.092,2.109-0.792,4.146-2.396,5.521l-48.125,41.25
			C-348.797,457.584-350.39,458.152-352,458.152z"/>
	</g>
	<g>
		<path fill="#3693D1" d="M-402.157,374.082l-8.614-10.718c5.623-4.521,10.624-9.821,14.863-15.758
			c1.754-2.455,4.906-3.48,7.767-2.526l14.215,4.73l8.899-21.484l-13.401-6.71c-2.698-1.353-4.201-4.309-3.703-7.283
			c1.454-8.687,1.462-17.47,0.02-26.105c-0.497-2.977,1.005-5.929,3.705-7.279l13.378-6.696l-8.897-21.474l-14.195,4.721
			c-2.861,0.952-6.012-0.074-7.765-2.528c-5.074-7.105-11.293-13.312-18.48-18.45c-2.455-1.753-3.479-4.902-2.526-7.765
			l4.733-14.214l-21.479-8.893l-6.706,13.397c-1.553,3.105-5.176,4.563-8.445,3.402c-11.093-3.936-40.473-4.976-54.456-4.976
			h-61.875v6.875c0,2.576-1.439,4.937-3.729,6.114c-2.29,1.178-5.046,0.978-7.142-0.518l-48.125-34.375
			c-1.722-1.228-2.78-3.179-2.874-5.291c-0.093-2.111,0.79-4.148,2.394-5.523l48.126-41.25c2.039-1.747,4.907-2.148,7.348-1.026
			c2.438,1.121,4.003,3.562,4.003,6.247v6.874h109.998c75.817,0,137.5,61.682,137.5,137.5c0,9.734-1.028,19.471-3.053,28.938
			l-13.444-2.875c1.822-8.525,2.747-17.294,2.747-26.062c0-68.236-55.515-123.749-123.75-123.749h-116.874
			c-3.415,0-6.249-2.491-6.783-5.756l-30.204,25.888l30.112,21.507V210.6c0-3.797,3.077-6.875,6.875-6.875h68.75
			c3.902,0,35.186,0.128,53.134,4.12l7.044-14.073c1.614-3.225,5.446-4.652,8.776-3.275l33.309,13.792
			c3.333,1.379,5.031,5.101,3.893,8.524l-5.197,15.61c5.375,4.297,10.229,9.143,14.503,14.477l15.595-5.188
			c3.419-1.138,7.141,0.561,8.521,3.892l13.796,33.301c1.382,3.331-0.049,7.164-3.273,8.778l-14.696,7.355
			c0.753,6.805,0.748,13.663-0.016,20.49l14.713,7.366c3.225,1.614,4.654,5.445,3.274,8.778l-13.797,33.313
			c-1.381,3.331-5.102,5.033-8.522,3.892l-15.612-5.196C-392.064,365.006-396.876,369.835-402.157,374.082z"/>
	</g>
</g>
<g>
	<circle fill="#3693D1" cx="242.846" cy="466.353" r="5.02"/>
	<g>
		<path fill="#3693D1" d="M303.638,418.848c-2.621,0-4.745-2.123-4.745-4.744V202.757c0-2.621,2.124-4.745,4.745-4.745
			c2.622,0,4.746,2.124,4.746,4.745v211.346C308.384,416.725,306.26,418.848,303.638,418.848z"/>
	</g>
	<g>
		<path fill="#3693D1" d="M336.154,451.361c-20.545,0-37.26-16.715-37.26-37.258c0-2.621,2.124-4.745,4.745-4.745
			c2.622,0,4.746,2.124,4.746,4.745c0,15.312,12.456,27.769,27.77,27.769c13.831,0,25.645-10.339,27.487-24.045
			c0.179-1.337,0.917-2.533,2.031-3.292c1.112-0.758,2.491-1.009,3.807-0.685c2.492,0.615,4.955,0.926,7.319,0.926
			c16.807,0,30.478-13.672,30.478-30.479c0-1.838-0.179-3.688-0.547-5.653c-0.408-2.175,0.743-4.343,2.771-5.226
			c15.109-6.567,24.871-21.441,24.871-37.892c0-13.571-6.69-26.29-17.896-34.021c-1.242-0.856-2.002-2.251-2.048-3.759
			c-0.047-1.506,0.623-2.945,1.81-3.878c8.078-6.353,12.714-15.858,12.714-26.082c0-12.785-7.508-24.572-19.13-30.024
			c-1.812-0.851-2.895-2.748-2.707-4.741c0.107-1.153,0.161-2.191,0.161-3.167c0-17.099-12.807-31.293-29.789-33.016
			c-1.923-0.196-3.534-1.537-4.077-3.392c-4.104-14.058-17.196-23.876-31.837-23.876c-18.3,0-33.188,14.889-33.188,33.188
			c0,2.622-2.124,4.746-4.746,4.746c-2.621,0-4.745-2.124-4.745-4.746c0-23.532,19.146-42.677,42.679-42.677
			c17.78,0,33.788,11.26,39.96,27.739c20.294,3.545,35.233,21.097,35.233,42.034c0,0.271-0.003,0.542-0.009,0.818
			c13.271,7.524,21.685,21.757,21.685,37.115c0,11.152-4.28,21.634-11.91,29.544c10.943,9.595,17.329,23.487,17.329,38.196
			c0,19.007-10.595,36.303-27.281,45.021c0.123,1.266,0.187,2.521,0.187,3.749c0,22.037-17.93,39.969-39.968,39.969
			c-1.561,0-3.146-0.101-4.742-0.3C367.685,439.883,353.036,451.361,336.154,451.361z"/>
	</g>
	<g>
		<path fill="#3693D1" d="M335.902,239.764c-20.407,0-37.008-16.601-37.008-37.006c0-2.621,2.124-4.745,4.745-4.745
			c2.622,0,4.746,2.124,4.746,4.745c0,15.171,12.344,27.516,27.518,27.516c7.084,0,13.812-2.686,18.947-7.562
			c1.896-1.801,4.906-1.726,6.71,0.173c1.804,1.902,1.726,4.903-0.176,6.709C354.478,236.152,345.427,239.764,335.902,239.764z"/>
	</g>
	<g>
		<path fill="#3693D1" d="M360.44,440.435c-1.215,0-2.429-0.462-3.354-1.391c-1.854-1.853-1.854-4.856,0-6.709
			c9.241-9.243,9.241-24.282,0-33.525c-1.854-1.853-1.854-4.856,0-6.709c1.849-1.855,4.858-1.855,6.709,0
			c12.942,12.942,12.942,34.001,0,46.943C362.868,439.973,361.655,440.435,360.44,440.435z"/>
	</g>
	<g>
		<path fill="#3693D1" d="M303.638,385.117c-2.621,0-4.745-2.124-4.745-4.745c0-14.484,11.785-26.269,26.268-26.269
			c8.741,0,16.883,4.329,21.782,11.578c1.466,2.172,0.895,5.121-1.275,6.589c-2.171,1.465-5.121,0.897-6.59-1.275
			c-3.129-4.636-8.332-7.401-13.917-7.401c-9.251,0-16.777,7.526-16.777,16.778C308.384,382.993,306.26,385.117,303.638,385.117z"/>
	</g>
	<g>
		<path fill="#3693D1" d="M331.233,305.486c-2.622,0-4.745-2.123-4.745-4.744c0-2.622,2.123-4.745,4.745-4.745
			c10.545,0,19.123-8.582,19.123-19.127c0-2.621,2.124-4.745,4.745-4.745c2.622,0,4.746,2.124,4.746,4.745
			C359.847,292.649,347.01,305.486,331.233,305.486z"/>
	</g>
	<g>
		<path fill="#3693D1" d="M431.309,314.619c-1.529,0-3.025-0.734-3.941-2.096c-4.948-7.354-12.466-12.342-21.165-14.042
			c-8.699-1.704-17.541,0.087-24.898,5.037c-2.17,1.465-5.123,0.891-6.586-1.288c-1.462-2.175-0.887-5.124,1.287-6.585
			c9.458-6.366,20.833-8.667,32.017-6.478c11.188,2.187,20.855,8.603,27.219,18.058c1.463,2.177,0.886,5.124-1.286,6.587
			C433.14,314.357,432.22,314.619,431.309,314.619z"/>
	</g>
	<g>
		<path fill="#3693D1" d="M401.302,384.239c-1.45,0-2.96-0.101-4.524-0.327c-7.109-1.026-12.348-4.236-15.49-6.744
			c-2.048-1.637-2.382-4.623-0.748-6.669c1.639-2.051,4.627-2.38,6.669-0.747c2.227,1.775,5.927,4.046,10.927,4.768
			c6.676,0.97,12.007-1.35,14.594-2.816c2.289-1.291,5.181-0.489,6.47,1.786c1.292,2.281,0.492,5.176-1.788,6.47
			C414.37,381.684,408.623,384.239,401.302,384.239z"/>
	</g>
	<g>
		<path fill="#3693D1" d="M383.785,340.751c-0.686,0-1.381-0.146-2.039-0.461c-2.367-1.127-3.369-3.96-2.241-6.325
			c0.619-1.301,5.883-13.02-0.193-23.715c-5.576-9.819-18.438-14.6-30.589-11.36c-2.532,0.665-5.13-0.832-5.809-3.364
			c-0.672-2.533,0.833-5.133,3.365-5.809c16.52-4.395,33.485,2.122,41.283,15.847c8.453,14.877,1.346,30.727,0.507,32.485
			C387.257,339.755,385.557,340.751,383.785,340.751z"/>
	</g>
	<g>
		<path fill="#3693D1" d="M386.724,261.694c-2.296,0-4.314-1.673-4.682-4.014c-0.327-2.093-1.534-12.957,6.755-21.248
			c6.56-6.561,16.639-8.776,25.679-5.645c2.478,0.858,3.788,3.561,2.931,6.038c-0.857,2.476-3.559,3.786-6.038,2.929
			c-5.623-1.946-11.853-0.623-15.862,3.389c-5.151,5.153-4.209,12.278-4.086,13.076c0.404,2.588-1.369,5.016-3.957,5.42
			C387.214,261.675,386.969,261.694,386.724,261.694z"/>
	</g>
	<g>
		<path fill="#3693D1" d="M303.641,143.272c-0.026,0-0.049,0-0.073,0c-2.621-0.04-4.712-2.196-4.674-4.814l0.299-20.132
			c0.041-2.596,2.157-4.675,4.743-4.675c0.025,0,0.05,0,0.072,0c2.621,0.04,4.713,2.197,4.676,4.815l-0.299,20.131
			C308.344,141.194,306.228,143.272,303.641,143.272z"/>
	</g>
	<g>
		<path fill="#3693D1" d="M469.194,391.753c-0.698,0-1.404-0.152-2.075-0.479l-18.105-8.811c-2.354-1.144-3.337-3.985-2.189-6.342
			c1.146-2.361,3.985-3.344,6.344-2.188l18.105,8.81c2.354,1.145,3.337,3.984,2.188,6.343
			C472.641,390.771,470.95,391.753,469.194,391.753z"/>
	</g>
	<g>
		<path fill="#3693D1" d="M387.601,167.114c-0.827,0-1.666-0.215-2.428-0.67c-2.249-1.344-2.985-4.257-1.643-6.506l10.323-17.286
			c1.344-2.253,4.257-2.991,6.506-1.643c2.252,1.343,2.986,4.257,1.644,6.506l-10.323,17.286
			C390.789,166.29,389.214,167.114,387.601,167.114z"/>
	</g>
	<g>
		<path fill="#3693D1" d="M448.406,229.744c-1.666,0-3.28-0.876-4.149-2.434c-1.275-2.287-0.456-5.177,1.834-6.455l17.585-9.808
			c2.287-1.271,5.177-0.458,6.454,1.834c1.276,2.288,0.455,5.177-1.834,6.455l-17.583,9.808
			C449.981,229.55,449.188,229.744,448.406,229.744z"/>
	</g>
	<g>
		<path fill="#3693D1" d="M482.397,309.533c-0.024,0-0.048,0-0.071,0l-20.132-0.299c-2.621-0.04-4.712-2.197-4.674-4.816
			c0.039-2.596,2.155-4.674,4.742-4.674c0.025,0,0.049,0,0.071,0l20.133,0.299c2.621,0.04,4.712,2.197,4.674,4.815
			C487.102,307.455,484.984,309.533,482.397,309.533z"/>
	</g>
	<g>
		<path fill="#3693D1" d="M219.475,167.114c-1.617,0-3.191-0.824-4.079-2.313l-10.323-17.286c-1.343-2.249-0.61-5.163,1.64-6.506
			c2.254-1.346,5.163-0.607,6.506,1.643l10.324,17.286c1.343,2.249,0.61,5.163-1.64,6.506
			C221.139,166.898,220.302,167.114,219.475,167.114z"/>
	</g>
	<g>
		<path fill="#3693D1" d="M158.668,229.744c-0.781,0-1.574-0.194-2.306-0.601l-17.584-9.808c-2.288-1.278-3.107-4.167-1.832-6.455
			c1.275-2.289,4.163-3.109,6.458-1.834l17.582,9.808c2.29,1.278,3.107,4.168,1.832,6.455
			C161.948,228.867,160.334,229.744,158.668,229.744z"/>
	</g>
	<g>
		<path fill="#3693D1" d="M270.812,451.361c-7.808,0-15.279-2.391-21.608-6.915c-2.133-1.523-2.624-4.486-1.101-6.619
			c1.523-2.136,4.486-2.626,6.619-1.1c4.709,3.362,10.272,5.145,16.09,5.145c15.312,0,27.769-12.457,27.769-27.769
			c0-2.621,2.123-4.745,4.744-4.745c2.622,0,4.745,2.124,4.745,4.745C308.07,434.646,291.357,451.361,270.812,451.361z"/>
	</g>
	<g>
		<path fill="#3693D1" d="M167.849,340.271c-2.621,0-4.747-2.124-4.747-4.745c0-14.709,6.387-28.601,17.331-38.198
			c-7.63-7.908-11.91-18.391-11.91-29.542c0-15.357,8.413-29.59,21.685-37.115c-0.005-0.276-0.009-0.547-0.009-0.818
			c0-20.938,14.943-38.489,35.235-42.034c6.172-16.479,22.176-27.739,39.959-27.739c23.533,0,42.678,19.146,42.678,42.677
			c0,2.622-2.123,4.746-4.745,4.746c-2.621,0-4.744-2.124-4.744-4.746c0-18.3-14.89-33.188-33.189-33.188
			c-14.639,0-27.731,9.819-31.838,23.876c-0.54,1.855-2.152,3.196-4.075,3.392c-16.984,1.723-29.791,15.917-29.791,33.016
			c0,0.976,0.054,2.014,0.163,3.167c0.188,1.993-0.897,3.89-2.709,4.741c-11.621,5.452-19.129,17.239-19.129,30.024
			c0,10.222,4.635,19.729,12.716,26.082c1.184,0.933,1.857,2.372,1.81,3.878c-0.046,1.508-0.808,2.902-2.049,3.759
			c-11.207,7.731-17.897,20.45-17.897,34.021C172.592,338.147,170.469,340.271,167.849,340.271z"/>
	</g>
	<g id="gear-5-icon_1_">
		<path fill="#3693D1" d="M197.571,458.013c-0.14,0-0.285-0.008-0.429-0.019l-15.191-1.383c-2-0.183-3.668-1.605-4.168-3.549
			l-2.978-11.638c-1.86-0.834-3.668-1.784-5.409-2.845l-11.281,4.154c-1.89,0.688-4.001,0.123-5.285-1.417l-9.763-11.726
			c-1.285-1.545-1.463-3.726-0.439-5.452l6.121-10.341c-0.724-1.899-1.332-3.849-1.82-5.833l-10.908-5.037
			c-1.822-0.842-2.92-2.738-2.738-4.738l1.383-15.199c0.182-2,1.603-3.668,3.546-4.166l11.645-2.982
			c0.838-1.86,1.789-3.665,2.845-5.406l-4.149-11.282c-0.693-1.882-0.125-3.997,1.417-5.281l11.723-9.768
			c1.538-1.287,3.724-1.466,5.453-0.439l10.345,6.123c1.911-0.729,3.86-1.337,5.835-1.821l5.032-10.909
			c0.841-1.822,2.729-2.878,4.74-2.738l15.193,1.387c1.998,0.182,3.663,1.601,4.163,3.546l2.991,11.641
			c1.853,0.834,3.658,1.783,5.406,2.844l11.284-4.153c1.882-0.692,4-0.129,5.284,1.414l9.766,11.722
			c1.285,1.543,1.46,3.729,0.437,5.456l-6.127,10.342c0.724,1.905,1.332,3.853,1.817,5.834l10.912,5.032
			c1.825,0.841,2.921,2.737,2.738,4.737l-1.383,15.201c-0.18,2-1.603,3.668-3.546,4.166l-11.641,2.986
			c-0.836,1.857-1.788,3.666-2.851,5.408l4.154,11.274c0.697,1.882,0.131,4-1.411,5.284l-11.723,9.772
			c-1.542,1.288-3.726,1.463-5.455,0.439l-10.342-6.125c-1.907,0.727-3.855,1.333-5.836,1.817l-5.046,10.915
			C201.096,456.949,199.407,458.013,197.571,458.013z M186.147,447.463l8.522,0.775l4.63-10.017
			c0.645-1.385,1.914-2.381,3.416-2.668c2.925-0.561,5.789-1.453,8.516-2.653c1.399-0.621,3.011-0.523,4.334,0.257l9.492,5.623
			l6.577-5.483l-3.815-10.354c-0.53-1.439-0.334-3.044,0.53-4.312c1.68-2.463,3.076-5.117,4.154-7.888
			c0.554-1.425,1.762-2.497,3.242-2.876l10.687-2.739l0.775-8.53l-10.013-4.618c-1.388-0.642-2.383-1.909-2.673-3.411
			c-0.562-2.934-1.458-5.8-2.658-8.522c-0.617-1.402-0.519-3.015,0.262-4.332l5.623-9.494l-5.476-6.574l-10.356,3.813
			c-1.432,0.527-3.035,0.331-4.303-0.527c-2.481-1.679-5.138-3.076-7.899-4.151c-1.423-0.553-2.495-1.762-2.876-3.241l-2.743-10.685
			l-8.522-0.777l-4.622,10.013c-0.64,1.391-1.916,2.385-3.42,2.672c-2.904,0.555-5.768,1.447-8.516,2.657
			c-1.4,0.614-3.011,0.519-4.329-0.26l-9.494-5.62l-6.579,5.479l3.811,10.355c0.527,1.435,0.333,3.034-0.526,4.298
			c-1.672,2.47-3.074,5.131-4.163,7.915c-0.559,1.419-1.764,2.483-3.243,2.862l-10.676,2.738l-0.775,8.529l10.006,4.621
			c1.385,0.64,2.378,1.907,2.67,3.407c0.57,2.94,1.465,5.81,2.661,8.528c0.614,1.399,0.521,3.012-0.259,4.326l-5.617,9.49
			l5.479,6.582l10.356-3.812c1.438-0.531,3.042-0.33,4.309,0.529c2.46,1.676,5.114,3.069,7.892,4.149
			c1.425,0.555,2.498,1.761,2.878,3.245L186.147,447.463z M250.852,408.893h0.023H250.852z M195.17,421.682
			c-0.785,0-1.575-0.035-2.364-0.108c-6.79-0.618-12.934-3.842-17.295-9.077c-4.362-5.238-6.422-11.86-5.803-18.647
			c1.283-14.022,13.737-24.347,27.734-23.106c6.786,0.619,12.926,3.844,17.291,9.081c4.361,5.235,6.424,11.859,5.805,18.646
			c-0.617,6.788-3.843,12.933-9.081,17.297C206.827,419.624,201.117,421.682,195.17,421.682z M195.109,380.127
			c-8.186,0-15.19,6.268-15.952,14.583c-0.387,4.264,0.906,8.422,3.645,11.711c2.74,3.29,6.598,5.315,10.863,5.701h0.005
			c4.261,0.396,8.42-0.905,11.709-3.646c3.294-2.741,5.316-6.601,5.707-10.866c0.39-4.264-0.907-8.422-3.646-11.712
			c-2.74-3.288-6.598-5.315-10.859-5.701C196.085,380.147,195.595,380.127,195.109,380.127z"/>
	</g>
	<g>
		<path fill="#3693D1" d="M270.041,219.725c-1.215,0-2.428-0.461-3.355-1.39c-1.852-1.852-1.852-4.857,0-6.709l29.311-29.311
			c1.85-1.854,4.858-1.854,6.709,0c1.854,1.853,1.854,4.858,0,6.71l-29.31,29.31C272.471,219.264,271.256,219.725,270.041,219.725z"
			/>
	</g>
	<g>
		<path fill="#3693D1" d="M259.416,240.705c-4.362,0-8.726-1.661-12.048-4.982c-6.644-6.645-6.644-17.451,0-24.096
			c3.217-3.219,7.497-4.993,12.048-4.993c4.554,0,8.831,1.773,12.051,4.993c3.219,3.219,4.99,7.497,4.99,12.047
			c0,4.552-1.771,8.832-4.99,12.049C268.144,239.043,263.781,240.705,259.416,240.705z M259.416,216.124
			c-2.014,0-3.911,0.785-5.336,2.212c-2.944,2.943-2.944,7.734-0.002,10.677c2.944,2.943,7.735,2.943,10.679,0
			c1.425-1.427,2.21-3.322,2.21-5.339c0-2.015-0.785-3.911-2.21-5.338h-0.002C263.329,216.909,261.434,216.124,259.416,216.124z"/>
	</g>
	<g>
		<path fill="#3693D1" d="M303.851,381.159h-16.848c-2.622,0-4.745-2.123-4.745-4.745c0-2.621,2.123-4.744,4.745-4.744h16.848
			c2.622,0,4.745,2.123,4.745,4.744C308.596,379.036,306.473,381.159,303.851,381.159z"/>
	</g>
	<g>
		<path fill="#3693D1" d="M273.34,392.089c-9.397,0-17.041-7.644-17.041-17.041c0-9.396,7.644-17.041,17.041-17.041
			c9.396,0,17.04,7.646,17.04,17.041C290.38,384.445,282.736,392.089,273.34,392.089z M273.34,367.498
			c-4.163,0-7.551,3.388-7.551,7.55c0,4.164,3.388,7.551,7.551,7.551s7.551-3.387,7.551-7.551
			C280.891,370.886,277.503,367.498,273.34,367.498z"/>
	</g>
	<g>
		<path fill="#3693D1" d="M231.447,280.979c-9.396,0-17.041-7.645-17.041-17.04c0-9.397,7.645-17.042,17.041-17.042
			c9.396,0,17.041,7.644,17.041,17.042C248.487,273.335,240.843,280.979,231.447,280.979z M231.447,256.389
			c-4.164,0-7.551,3.387-7.551,7.551c0,4.163,3.387,7.55,7.551,7.55c4.163,0,7.551-3.387,7.551-7.55
			C238.997,259.776,235.61,256.389,231.447,256.389z"/>
	</g>
	<g>
		<path fill="#3693D1" d="M271.517,305.568c-9.394,0-17.038-7.644-17.038-17.041c0-9.394,7.644-17.038,17.038-17.038
			c9.397,0,17.041,7.645,17.041,17.038C288.558,297.924,280.914,305.568,271.517,305.568z M271.517,280.979
			c-4.163,0-7.548,3.385-7.548,7.548c0,4.164,3.385,7.551,7.548,7.551s7.551-3.388,7.551-7.551
			C279.068,284.365,275.68,280.979,271.517,280.979z"/>
	</g>
	<g>
		<path fill="#3693D1" d="M220.971,259.577c-1.065,0-2.135-0.357-3.021-1.088l-25.846-21.366c-2.021-1.669-2.303-4.662-0.635-6.68
			c1.67-2.021,4.664-2.304,6.682-0.633l25.846,21.367c2.021,1.668,2.303,4.661,0.632,6.679
			C223.693,258.991,222.335,259.577,220.971,259.577z"/>
	</g>
	<g>
		<path fill="#3693D1" d="M242.831,324.236h-30.056c-1.149,0-2.262-0.417-3.126-1.177l-24.98-21.893
			c-1.97-1.727-2.171-4.724-0.442-6.696c1.727-1.969,4.724-2.165,6.696-0.439l23.638,20.716h26.306l18.647-18.646
			c1.853-1.856,4.857-1.856,6.71,0c1.852,1.853,1.852,4.855,0,6.708l-20.038,20.037
			C245.296,323.737,244.091,324.236,242.831,324.236z"/>
	</g>
	<g>
		<path fill="#3693D1" d="M146.293,336.077h-28.686c-2.622,0-4.747-2.123-4.747-4.744v-28.688c0-2.621,2.125-4.744,4.747-4.744
			h28.686c2.62,0,4.746,2.123,4.746,4.744v28.688C151.038,333.954,148.912,336.077,146.293,336.077z M122.349,326.588h19.199V307.39
			h-19.199V326.588z"/>
	</g>
	<g>
		<path fill="#3693D1" d="M304.76,486.349c-16.837,0-33.504-2.349-49.536-6.976c-2.515-0.728-3.967-3.357-3.242-5.873
			c0.729-2.519,3.35-3.981,5.877-3.242c15.172,4.38,30.953,6.602,46.9,6.602c47.285,0,92.709-20.036,124.623-54.968
			c1.766-1.932,4.764-2.069,6.703-0.302c1.935,1.768,2.07,4.769,0.302,6.703C402.68,465.19,354.704,486.349,304.76,486.349z"/>
	</g>
</g>
</svg>
