<?xml version="1.0" encoding="utf-8"?>
<!-- Generator: Adobe Illustrator 16.0.0, SVG Export Plug-In . SVG Version: 6.00 Build 0)  -->
<!DOCTYPE svg PUBLIC "-//W3C//DTD SVG 1.1//EN" "http://www.w3.org/Graphics/SVG/1.1/DTD/svg11.dtd">
<svg version="1.1" id="Layer_1" xmlns="http://www.w3.org/2000/svg" xmlns:xlink="http://www.w3.org/1999/xlink" x="0px" y="0px"
	 width="600px" height="600px" viewBox="0 0 600 600" enable-background="new 0 0 600 600" xml:space="preserve">
<g>
	<path fill="#3693D1" d="M251.16,417.222h-18.842l-11.928-34.673h-61.348l-11.688,34.673h-18.867l48.76-144.346h25.148
		L251.16,417.222z M189.838,286.311l-25.824,79.962h51.601L189.838,286.311z"/>
	<path fill="#3693D1" d="M318.865,364.993h-35.357v52.229h-18.646V272.875h55.065c30.988,0,41.831,13.435,41.831,35.547v20.806
		c0,17.117-6.284,28.83-22.963,33.58l37.485,54.413h-21.463L318.865,364.993z M319.273,289.558h-35.765v58.97h35.765
		c17.776,0,23.837-4.993,23.837-19.08v-20.809C343.11,294.334,337.049,289.558,319.273,289.558z"/>
	<path fill="#3693D1" d="M357.035,230.42h46.821v-47.642h20.859v47.642h46.796v19.712h-46.796v47.67h-20.859v-47.67h-46.821V230.42z
		"/>
</g>
</svg>
