<?xml version="1.0" encoding="utf-8"?>
<!-- Generator: Adobe Illustrator 16.0.0, SVG Export Plug-In . SVG Version: 6.00 Build 0)  -->
<!DOCTYPE svg PUBLIC "-//W3C//DTD SVG 1.1//EN" "http://www.w3.org/Graphics/SVG/1.1/DTD/svg11.dtd">
<svg version="1.1" id="Layer_1" xmlns="http://www.w3.org/2000/svg" xmlns:xlink="http://www.w3.org/1999/xlink" x="0px" y="0px"
	 width="600px" height="600px" viewBox="0 0 600 600" enable-background="new 0 0 600 600" xml:space="preserve">
<g>
	<g>
		<path fill="#3693D1" d="M431.295,300.004c0-41.61-19.053-79.86-52.313-104.924c-2.101-1.582-2.511-4.532-0.927-6.633
			c1.555-2.107,4.539-2.514,6.611-0.929c35.655,26.892,56.104,67.897,56.104,112.485c0,2.675-0.081,5.319-0.218,7.996"/>
	</g>
	<g>
		<path fill="#3693D1" d="M194.916,391.135c-1.363,0-2.729-0.576-3.682-1.722c-20.67-25.089-32.025-56.841-32.025-89.409
			c0-47.727,23.854-91.818,63.883-117.949c2.184-1.417,5.105-0.817,6.551,1.367c1.42,2.182,0.792,5.135-1.393,6.555
			c-37.318,24.377-59.598,65.521-59.598,110.027c0,30.385,10.644,60.007,29.894,83.404c1.666,2.021,1.392,4.995-0.628,6.661
			C197.045,390.781,195.954,391.135,194.916,391.135z"/>
	</g>
	<g>
		<path fill="#3693D1" d="M438.67,400.827c-31.24,42.81-81.744,70.684-138.693,70.684c-94.578,0-171.518-76.936-171.518-171.507
			c0-94.575,76.939-171.515,171.518-171.515c94.568,0,171.564,76.939,171.564,171.515c0,17.253-2.567,33.905-7.323,49.604
			l-6.933-21.538c1.637-9.123,2.457-18.486,2.457-28.066c0-88.081-71.636-159.801-159.766-159.801
			c-88.084,0-159.719,71.72-159.719,159.801c0,88.072,71.635,159.74,159.719,159.74c45.37,0,86.355-19,115.46-49.415L438.67,400.827
			z"/>
	</g>
	<g>
		<g>
			<g>
				<path fill="#3693D1" d="M299.977,432.142c-0.743,0-1.479-0.165-2.136-0.492l-76.878-36.584
					c-1.992-0.928-3.111-3.057-2.785-5.214c0.165-1.119,4.395-27.438,17.09-53.348c5.184-10.514,11.089-19.52,17.527-26.811
					c1.803-2.049,4.969-2.213,6.988-0.41c2.049,1.827,2.238,4.945,0.411,6.989c-5.87,6.607-11.274,14.88-16.022,24.601
					c-9.396,19.109-13.982,38.959-15.564,46.906l71.397,33.961l64.185-29.486c2.512-1.147,5.43-0.056,6.551,2.43
					c1.143,2.487,0.053,5.433-2.431,6.556l-66.284,30.438C301.369,431.977,300.657,432.142,299.977,432.142z"/>
			</g>
			<g>
				<path fill="#3693D1" d="M353.153,323.587"/>
			</g>
			<g>
				<path fill="#3693D1" d="M299.977,307.834c-29.594,0-51.274-41.332-52.667-68.662c-0.136-2.729,1.964-5.05,4.696-5.187
					c2.756-0.137,5.049,1.964,5.159,4.696c1.198,23.317,20.094,59.271,42.812,59.271c18.041,0,34.235-23.121,40.295-44.882
					c0.736-2.651,3.438-4.177,6.085-3.44c2.62,0.736,4.177,3.465,3.412,6.084C342.565,281.627,323.123,307.834,299.977,307.834z"/>
			</g>
			<g>
				<path fill="#3693D1" d="M361.051,261.48c-0.084,0-0.137,0-0.246,0c-22.363-1.011-61.764-13.898-81.006-29.624
					c-0.028-0.028-0.081-0.08-0.137-0.108c0.655,7.151,1.746,11.029,1.746,11.058c0.438,1.581,0.056,3.275-0.982,4.503
					c-1.038,1.256-2.619,1.911-4.258,1.774c-5.87-0.571-35.496-4.121-42.539-17.283c-0.438-0.816-0.655-1.77-0.6-2.699
					c2.564-33.53,32.541-59.766,68.256-59.766c37.731,0,68.417,28.911,68.417,64.433c0,9.854-2.076,19.109-4.012,24.465
					C365.006,260.196,363.096,261.48,361.051,261.48z M274.201,212.853c1.911,0,3.713,1.119,4.531,2.925
					c1.146,2.539,3.657,5.432,7.315,8.435c16.493,13.431,50.458,25.008,71.425,27.108c1.229-4.556,2.347-10.92,2.347-17.553
					c0-30.086-26.263-54.55-58.534-54.55c-29.978,0-55.203,21.375-58.211,48.978c3.934,4.752,16.545,8.386,27.416,10.156
					c-0.354-2.402-0.707-5.377-0.929-8.925c-0.245-3.742-0.327-7.674-0.271-11.686c0-2.322,1.635-4.289,3.928-4.78
					C273.549,212.908,273.875,212.853,274.201,212.853z"/>
			</g>
		</g>
		<g>
			<g>
				<path fill="#3693D1" d="M404.211,415.816c-7.59,0-15.123-1.364-22.41-4.147c-28.209-10.704-44.861-40.025-39.621-69.705
					c0.494-2.703,3.059-4.479,5.734-4.015c2.675,0.489,4.475,3.062,3.983,5.736c-4.394,25.009,9.644,49.715,33.425,58.753
					c13.238,5.049,27.655,4.611,40.568-1.176c12.916-5.813,22.822-16.297,27.844-29.539c10.375-27.329-3.383-58.043-30.737-68.42
					c-20.288-7.726-43.687-2.072-58.235,14.034c-1.828,2.048-4.942,2.209-6.986,0.383c-2.049-1.827-2.192-4.971-0.354-6.989
					c17.247-19.141,45.015-25.825,69.122-16.683c32.436,12.34,48.764,48.764,36.42,81.196c-5.951,15.697-17.686,28.146-33.032,35.03
					C421.713,413.962,412.949,415.816,404.211,415.816z"/>
			</g>
			<g>
				<path fill="#3693D1" d="M393.809,384.257c-1.364,0-2.647-0.546-3.602-1.556l-24.846-26.457
					c-1.884-1.965-1.775-5.106,0.221-6.992c1.991-1.856,5.103-1.772,6.985,0.221l21.08,22.469l36.335-42.209
					c1.775-2.046,4.914-2.29,6.969-0.517c2.073,1.775,2.294,4.914,0.519,6.986l-39.919,46.361c-0.93,1.039-2.24,1.667-3.629,1.693
					C393.893,384.257,393.837,384.257,393.809,384.257z"/>
			</g>
		</g>
	</g>
</g>
</svg>
