<?xml version="1.0" encoding="utf-8"?>
<!-- Generator: Adobe Illustrator 16.0.0, SVG Export Plug-In . SVG Version: 6.00 Build 0)  -->
<!DOCTYPE svg PUBLIC "-//W3C//DTD SVG 1.1//EN" "http://www.w3.org/Graphics/SVG/1.1/DTD/svg11.dtd">
<svg version="1.1" id="Layer_1" xmlns="http://www.w3.org/2000/svg" xmlns:xlink="http://www.w3.org/1999/xlink" x="0px" y="0px"
	 width="600px" height="600px" viewBox="0 0 600 600" enable-background="new 0 0 600 600" xml:space="preserve">
<g>
	<g>
		<g>
			<path fill="#3693D1" d="M207.137,482.007c-0.764,0-1.473-0.161-2.156-0.49l-73.664-35.052c-1.992-0.933-3.139-3.09-2.785-5.271
				c0.166-1.067,4.213-26.32,16.413-51.164c4.941-10.103,10.591-18.759,16.823-25.744c1.827-2.048,4.966-2.245,7.041-0.41
				c2.045,1.826,2.238,4.967,0.379,7.042c-5.593,6.308-10.752,14.224-15.318,23.507c-8.896,18.127-13.291,36.968-14.82,44.692
				l68.115,32.408l70.662-32.437c-2.757-12.587-13.467-53.811-38.121-74.642c-2.1-1.773-2.374-4.917-0.57-7.018
				c1.746-2.101,4.912-2.347,6.992-0.571c31.97,26.972,41.879,81.934,42.262,84.251c0.383,2.24-0.764,4.45-2.84,5.384
				l-76.336,35.052C208.557,481.846,207.845,482.007,207.137,482.007z"/>
		</g>
		<g>
			<path fill="#3693D1" d="M207.137,362.919c-22.936,0-40.785-25.447-47.691-49.091c-0.764-2.619,0.737-5.403,3.385-6.169
				c2.648-0.764,5.404,0.766,6.196,3.384c5.896,20.313,21.298,41.913,38.11,41.913c21.68,0,39.674-34.376,40.74-56.681
				c0.133-2.731,2.398-4.808,5.211-4.728c2.756,0.137,4.861,2.462,4.724,5.219C256.553,323.087,235.694,362.919,207.137,362.919z"/>
		</g>
		<g>
			<path fill="#3693D1" d="M154.936,318.495c-2.129,0-4.04-1.363-4.752-3.384c-1.719-5.13-3.545-13.979-3.545-23.426
				c0-34.178,27.765-61.975,61.918-61.975c32.324,0,59.464,25.257,61.762,57.5c0.056,0.9-0.109,1.798-0.52,2.591
				c-6.449,12.805-33.312,16.245-38.637,16.796c-1.637,0.161-3.219-0.471-4.312-1.727c-1.035-1.227-1.417-2.918-1.01-4.502
				c0.027-0.053,0.876-3.385,1.447-9.585c-17.668,14.743-52.312,26.73-72.134,27.711
				C155.097,318.495,154.989,318.495,154.936,318.495z M208.557,239.677c-28.666,0-51.982,23.343-51.982,52.008
				c0,6.229,0.932,12.176,2.026,16.55c18.724-2.16,48.593-13.106,63.146-25.802c3.248-2.812,5.488-5.573,6.495-7.975
				c0.929-2.156,3.251-3.384,5.542-2.921c2.293,0.438,3.986,2.458,4.039,4.805c0.057,3.797-0.053,7.563-0.27,11.193
				c-0.222,3.223-0.494,5.955-0.793,8.193c9.424-1.719,20.066-5.054,23.479-9.368C257.539,260.045,235.151,239.677,208.557,239.677z
				"/>
		</g>
	</g>
	<g>
		<g>
			<path fill="#3693D1" d="M392.14,213.824c-7.1,0-12.893-5.766-12.893-12.86c0-7.074,5.793-12.86,12.893-12.86
				c7.07,0,12.828,5.786,12.828,12.86C404.968,208.059,399.21,213.824,392.14,213.824z M392.14,198.071
				c-1.613,0-2.922,1.308-2.922,2.894c0,1.609,1.309,2.893,2.922,2.893c1.58,0,2.893-1.284,2.893-2.893
				C395.032,199.379,393.72,198.071,392.14,198.071z"/>
		</g>
		<g>
			<path fill="#3693D1" d="M342.884,213.824c-7.098,0-12.885-5.766-12.885-12.86c0-7.074,5.787-12.86,12.885-12.86
				c7.07,0,12.836,5.786,12.836,12.86C355.72,208.059,349.954,213.824,342.884,213.824z M342.884,198.071
				c-1.609,0-2.92,1.308-2.92,2.894c0,1.609,1.311,2.893,2.92,2.893c1.582,0,2.895-1.284,2.895-2.893
				C345.779,199.379,344.466,198.071,342.884,198.071z"/>
		</g>
		<g>
			<path fill="#3693D1" d="M293.63,213.824c-7.099,0-12.885-5.766-12.885-12.86c0-7.074,5.786-12.86,12.885-12.86
				c7.077,0,12.834,5.786,12.834,12.86C306.464,208.059,300.706,213.824,293.63,213.824z M293.63,198.071
				c-1.639,0-2.922,1.308-2.922,2.894c0,1.609,1.284,2.893,2.922,2.893c1.584,0,2.893-1.284,2.893-2.893
				C296.522,199.379,295.214,198.071,293.63,198.071z"/>
		</g>
	</g>
	<g>
		<path fill="#3693D1" d="M333.384,283.963c-18.24,0-35.549-5.818-50.017-16.791c-2.213-1.666-2.648-4.78-0.985-6.993
			c1.666-2.182,4.779-2.62,6.989-0.954c12.755,9.666,27.958,14.771,44.013,14.771c24.955,0,47.947-12.562,61.484-33.607
			c1.363-2.128,4.092-2.893,6.357-1.774c5.762,2.837,11.99,4.257,18.432,4.257c23.102,0,41.877-18.783,41.877-41.907
			c0-23.1-18.775-41.884-41.877-41.884c-6.441,0-12.67,1.42-18.432,4.261c-2.266,1.119-4.994,0.354-6.357-1.774
			c-13.537-21.048-36.529-33.634-61.484-33.634c-16.055,0-31.258,5.102-44.013,14.771c-1.066,0.817-2.402,1.144-3.714,0.981
			c-2.729-0.382-5.404-0.574-8.024-0.574c-31.913,0-57.878,25.965-57.878,57.854c0,2.756-2.237,4.994-4.97,4.994
			c-2.764,0-4.973-2.237-4.973-4.994c0-37.377,30.412-67.821,67.82-67.821c2.402,0,4.857,0.137,7.372,0.41
			c14.136-10.185,30.852-15.561,48.379-15.561c26.92,0,51.846,12.86,67.436,34.646c6.004-2.35,12.316-3.521,18.838-3.521
			c28.586,0,51.875,23.262,51.875,51.847c0,28.613-23.289,51.875-51.875,51.875c-6.521,0-12.834-1.203-18.838-3.524
			C385.23,271.075,360.304,283.963,333.384,283.963z"/>
	</g>
	<g>
		<path fill="#3693D1" d="M283.255,360.734c-8.868,0-16.11-7.316-16.11-16.329c0-9.006,7.242-16.325,16.11-16.325
			c8.9,0,16.105,7.319,16.105,16.325C299.36,353.418,292.155,360.734,283.255,360.734z M283.255,338.02
			c-3.384,0-6.141,2.864-6.141,6.386c0,3.496,2.757,6.365,6.141,6.365c3.388,0,6.173-2.869,6.173-6.365
			C289.428,340.884,286.643,338.02,283.255,338.02z"/>
	</g>
	<g>
		<path fill="#3693D1" d="M316.947,329.445c-10.127,0-18.405-8.38-18.405-18.671c0-10.297,8.278-18.679,18.405-18.679
			c10.16,0,18.404,8.382,18.404,18.679C335.351,321.065,327.107,329.445,316.947,329.445z M316.947,302.062
			c-4.639,0-8.404,3.903-8.404,8.712c0,4.801,3.766,8.704,8.404,8.704c4.668,0,8.469-3.903,8.469-8.704
			C325.415,305.966,321.615,302.062,316.947,302.062z"/>
	</g>
</g>
</svg>
