<?xml version="1.0" encoding="utf-8"?>
<!-- Generator: Adobe Illustrator 16.0.0, SVG Export Plug-In . SVG Version: 6.00 Build 0)  -->
<!DOCTYPE svg PUBLIC "-//W3C//DTD SVG 1.1//EN" "http://www.w3.org/Graphics/SVG/1.1/DTD/svg11.dtd">
<svg version="1.1" id="Layer_1" xmlns="http://www.w3.org/2000/svg" xmlns:xlink="http://www.w3.org/1999/xlink" x="0px" y="0px"
	 width="600px" height="600px" viewBox="0 0 600 600" enable-background="new 0 0 600 600" xml:space="preserve">
<g>
	<path fill="#3693D1" d="M133.774,301.254l-0.057-23.367l35.701-7.196c1.27-6.853,3.096-13.667,5.484-20.34l-27.302-24.148
		l16.858-29.091l34.498,11.591c4.572-5.38,9.598-10.388,14.975-14.975l-11.658-34.579l29.252-16.819l24.025,27.33
		c6.688-2.374,13.529-4.201,20.407-5.471l7.196-35.701h33.771l7.183,35.715c6.863,1.27,13.69,3.111,20.364,5.471l24.026-27.344
		l29.265,16.819l-11.666,34.551c5.404,4.601,10.439,9.623,15.03,15.003l34.479-11.591l16.83,29.104l-27.227,24.067
		c2.401,6.702,4.229,13.541,5.525,20.436l35.547,7.168v23.339h-11.562v-13.88l-34.129-6.867l-0.629-3.983
		c-1.325-8.739-3.646-17.423-6.932-25.801l-1.463-3.753l26.131-23.128l-7.358-12.723l-33.123,11.127l-2.511-3.167
		c-5.594-6.965-11.97-13.322-18.955-18.923l-3.156-2.525l11.193-33.154l-12.846-7.39l-23.068,26.281l-3.798-1.477
		c-8.354-3.275-17.009-5.593-25.716-6.909l-4.002-0.627l-6.895-34.288h-14.849l-6.909,34.288l-4.012,0.613
		c-8.697,1.33-17.363,3.647-25.734,6.912l-3.797,1.487l-23.065-26.281l-12.836,7.39l11.185,33.168l-3.143,2.539
		c-6.976,5.587-13.334,11.944-18.92,18.896l-2.525,3.167l-33.145-11.127l-7.385,12.723l26.211,23.194l-1.477,3.753
		c-3.248,8.34-5.58,16.995-6.905,25.691l-0.601,3.998l-34.266,6.896l0.057,13.856L133.774,301.254z"/>
	<g>
		<rect x="294.227" y="186.437" fill="#3693D1" width="11.559" height="12.846"/>
		<polygon fill="#3693D1" points="247.237,214.969 240.811,203.827 250.814,198.069 257.259,209.179 		"/>
		<polygon fill="#3693D1" points="214.38,252.045 203.27,245.627 209.045,235.611 220.166,242.025 		"/>
		<rect x="191.637" y="289.039" fill="#3693D1" width="12.832" height="11.559"/>
		<polygon fill="#3693D1" points="209.031,354.001 203.256,343.986 214.369,337.568 220.156,347.561 		"/>
		<rect x="395.537" y="289.039" fill="#3693D1" width="12.84" height="11.559"/>
		<polygon fill="#3693D1" points="390.955,354.001 379.83,347.587 385.617,337.568 396.727,344.015 		"/>
		<polygon fill="#3693D1" points="385.645,252.059 379.86,242.036 390.969,235.636 396.74,245.627 		"/>
		<polygon fill="#3693D1" points="352.774,214.969 342.769,209.179 349.201,198.069 359.19,203.827 		"/>
	</g>
	<g>
		<path fill="#3693D1" d="M300.012,378.9c-46.383,0-84.117-37.729-84.117-84.089c0-46.383,37.734-84.117,84.117-84.117
			c46.376,0,84.09,37.734,84.09,84.117C384.102,341.171,346.388,378.9,300.012,378.9z M300.012,222.26
			c-40.011,0-72.551,32.556-72.551,72.552c0,40.001,32.54,72.54,72.551,72.54c40,0,72.541-32.539,72.541-72.54
			C372.553,254.815,340.012,222.26,300.012,222.26z"/>
		<path fill="#3693D1" d="M255.702,294.812h-11.548c0-30.795,25.049-55.858,55.857-55.858v11.562
			C275.563,250.516,255.702,270.375,255.702,294.812z"/>
		<g>
			<rect x="316.053" y="397.438" fill="#3693D1" width="11.549" height="74.074"/>
			<rect x="272.41" y="397.438" fill="#3693D1" width="11.551" height="74.074"/>
		</g>
		<polygon fill="#3693D1" points="344.309,403.229 255.717,403.229 255.717,363.012 267.264,363.012 267.264,391.652 
			332.746,391.652 332.746,363.012 344.309,363.012 		"/>
	</g>
</g>
</svg>
